<svg width="91" height="105" viewBox="0 0 91 105" fill="none" xmlns="http://www.w3.org/2000/svg">
<path d="M90.3079 10.9033H75.7601V13.2724H90.3079V10.9033Z" fill="#010101"/>
<path d="M27.6104 26.3135V0H36.1449V3.78909H31.682V10.9833H34.6452V14.5768H31.682V22.4013H36.1449V26.3135H27.6104Z" fill="#010101"/>
<path d="M61.4441 26.3135L56.974 12.9974L55.7134 8.76635V26.3063H53.0328V0H55.5975L59.6691 13.5118L60.85 17.779V0H63.5451V26.3135H61.4441Z" fill="#010101"/>
<path d="M29.6245 65.6827V39.3691H33.6961V65.6827H29.6245Z" fill="#010101"/>
<path d="M7.86073 103.893L7.42604 102.509C6.87542 103.69 5.72348 104.284 4.54256 104.284C1.775 104.284 0 102.27 0 99.1038V82.3535C0 79.5135 2.17347 77.1807 5.09318 77.1807C8.01288 77.1807 10.027 79.5135 10.027 82.3535V87.2149H6.23787V82.1941C6.23787 81.5638 5.88287 81.1291 5.17287 81.1291C4.46287 81.1291 4.0644 81.5638 4.0644 82.1941V99.4588C4.0644 100.133 4.49909 100.611 5.17287 100.611C5.84665 100.611 6.2741 100.133 6.2741 99.4588V94.0903H5.24532V90.9315H10.2226V103.893H7.85349H7.86073Z" fill="#010101"/>
<path d="M33.428 103.893L30.4721 91.9965L29.5593 88.403V103.893H26.0817V77.5791H29.9505L32.5659 89.3883L33.3483 93.0687V77.5791H36.7969V103.893H33.428Z" fill="#010101"/>
<path d="M59.7416 42.0424V65.6608H56.945V42.0424H53.424V39.3545H63.1467V42.0424H59.7416Z" fill="#010101"/>
<path d="M84.3598 55.2788V65.6608H81.5125V55.2788L77.4481 39.3545H80.2954L83.0919 51.5984L85.8957 39.3545H88.6198L84.3598 55.2788Z" fill="#010101"/>
<path d="M65.5593 88.6338H51.0115V91.7274H65.5593V88.6338Z" fill="#010101"/>
<path d="M59.8358 82.9111H56.7422V97.4589H59.8358V82.9111Z" fill="#010101"/>
<path d="M3.27469 26.3498H0.224579V0H3.27469C10.4472 0.0362246 10.9833 2.86899 10.9833 13.193C10.9833 23.517 10.4472 26.3135 3.27469 26.3498ZM4.10061 22.4737C6.8247 22.4737 6.99857 21.7927 6.96959 13.1568C7.00582 4.54981 6.8247 3.87603 4.10061 3.87603V22.481V22.4737Z" fill="#010101"/>
<path d="M6.70154 51.105C5.04245 48.178 4.13684 47.113 4.13684 44.0701C4.13684 43.1573 4.68745 42.7226 5.36123 42.7226C5.99154 42.7226 6.4697 43.1935 6.4697 44.0701V46.0697L9.98349 45.7365V44.4614C9.98349 40.9838 8.12879 38.9697 5.36123 38.9697C1.80398 38.9697 0.108667 41.6214 0.108667 44.8961C0.108667 47.9389 2.20245 51.5759 3.73837 54.0247C5.28154 56.6691 6.22338 58.531 6.22338 60.9001C6.22338 61.8854 5.78868 62.4795 4.91929 62.4795C4.0499 62.4795 3.57898 61.8492 3.57898 60.9001V58.7701L0.0217285 59.1106V60.5813C0.0217285 64.0951 1.95612 66.073 5.1149 66.073C7.6796 66.073 10.1719 64.3704 10.1719 60.2625C10.1719 57.1762 8.44032 54.0536 6.69429 51.0977L6.70154 51.105Z" fill="#010101"/>
</svg>
