<?xml version="1.0" encoding="utf-8"?>
<!-- Generator: Adobe Illustrator 27.1.1, SVG Export Plug-In . SVG Version: 6.00 Build 0)  -->
<svg version="1.1" id="Layer_1" xmlns="http://www.w3.org/2000/svg" xmlns:xlink="http://www.w3.org/1999/xlink" x="0px" y="0px"
	 viewBox="0 0 243 387" style="enable-background:new 0 0 243 387;" xml:space="preserve">
<style type="text/css">
	.st0{fill:#FFFFFF;}
	.st1{fill:none;stroke:#000000;stroke-width:0.7273;}
	.st2{fill:#85FF4D;}
	.st3{fill:none;stroke:#000000;stroke-width:0.8485;stroke-linecap:round;stroke-linejoin:round;}
	.st4{fill:none;stroke:#000000;stroke-width:0.3636;stroke-linecap:round;stroke-dasharray:0.36,0.36;}
	.st5{clip-path:url(#SVGID_00000007404602670761291170000008468977878499948693_);}
	.st6{fill:none;stroke:#000000;stroke-width:0.6572;stroke-linecap:round;stroke-linejoin:round;}
	.st7{clip-path:url(#SVGID_00000183237987234058337790000006291536076014098816_);}
	.st8{clip-path:url(#SVGID_00000082346015046734276400000006265630512367407023_);}
	.st9{fill:none;stroke:#000000;stroke-width:0.6573;stroke-linecap:round;stroke-linejoin:round;}
	.st10{fill:none;stroke:#000000;stroke-width:0.9795;stroke-linecap:round;stroke-linejoin:round;}
	.st11{fill:none;stroke:#000000;stroke-width:1.4546;stroke-linecap:round;}
	.st12{fill:none;stroke:#FFFFFF;stroke-width:1.4546;stroke-linecap:round;}
	.st13{fill:#FFFFFF;stroke:#000000;stroke-width:1.4546;}
	.st14{fill:none;stroke:#000000;stroke-width:1.4546;}
</style>
<rect x="1" y="3" class="st0" width="240" height="382.6"/>
<path d="M21.8,54.5c2.9,0,5-2,5-4.9c0-2.9-1.9-4.5-4.3-6.3c-2.2-1.6-3.5-2.7-3.5-4.6c0-1.4,0.9-2.7,2.7-2.7c2.5,0,3.9,2.5,4.1,5.4
	h0.6l-0.3-6.1h-0.6L25.3,36c-0.1,0.5-0.4,0.6-0.8,0.3c-0.8-0.8-1.7-1.2-3.1-1.2c-2.6,0-4.6,1.7-4.6,4.4c0,2.7,2,4.2,4.3,6
	c1.9,1.4,3.6,2.8,3.6,5c0,1.4-0.9,3-2.9,3c-2.6,0-4.3-2.9-4.5-6.3h-0.6l0,7h0.6l0.2-1.1c0.1-0.5,0.4-0.6,0.7-0.2
	C19.1,53.8,20.4,54.5,21.8,54.5z M35.1,41.3c-1.3,0-2.4,0.9-3.3,2.4h-0.1v-2l-0.4-0.3l-3.5,1.4l0.2,0.5c1.4-0.6,1.4-0.2,1.4,1.3
	v12.3c0,1.5-0.2,1.8-1.6,1.8v0.6h5.5v-0.6c-1.4,0-1.7-0.3-1.7-1.8v-4.1h0c0.6,1.1,1.7,1.7,2.8,1.7c2.5,0,4-3.1,4-6.9
	C38.6,43.9,37.4,41.3,35.1,41.3z M34,53.3c-1.2,0-2.3-1.6-2.3-4.2v-4.2c0.6-1,1.5-1.9,2.4-1.9c1.3,0,2,1.7,2,4.9
	C36.1,50.6,35.6,53.3,34,53.3z M42.5,39.1c0.9,0,1.5-0.6,1.5-1.4c0-0.8-0.6-1.4-1.5-1.4c-0.9,0-1.5,0.6-1.5,1.4
	C41,38.5,41.6,39.1,42.5,39.1z M43.8,41.6l-0.4-0.3L40,42.7l0.2,0.5c1.3-0.6,1.4-0.2,1.4,1.3v7.2c0,1.5-0.2,1.8-1.7,1.8v0.6h5.5
	v-0.6c-1.4,0-1.7-0.3-1.7-1.8V41.6z M51,54.5c2.1,0,3.8-1.6,4-5.5h-0.6c-0.4,2.9-1.6,3.7-2.7,3.7c-1.9,0-2.8-2.4-2.8-5.4
	c0-2.6,0.7-4.9,2.4-4.9c0.7,0,1.1,0.4,1.1,1.2c0,0.5-0.2,1-0.2,1.3c0,0.6,0.4,1.1,1.1,1.1c0.8,0,1.2-0.6,1.2-1.6c0-1.7-1.3-3-3.3-3
	c-3,0-4.7,2.9-4.7,6.8C46.7,51.9,48.3,54.5,51,54.5z M57.6,59.5c2.2-0.1,3.1-2.4,4.1-5.6l2.9-9.9c0.4-1.4,0.8-1.7,1.8-1.7v-0.6h-3.8
	v0.6c1.5,0,1.5,0.3,1.1,1.7l-1.9,6.8h-0.1l-2-6.8c-0.4-1.4-0.4-1.7,1.1-1.7v-0.6h-5.4v0.6c1,0,1.4,0.3,1.9,1.7l2.9,9.2
	c0.2,0.9,0.3,1.8,0.2,2.2c-0.4,1.6-0.9,2.5-1.5,2.5c-0.3,0-0.6-0.1-0.8-0.5c-0.3-0.3-0.6-0.7-1.1-0.7c-0.7,0-1.2,0.4-1.2,1.2
	C55.7,58.9,56.5,59.5,57.6,59.5z M72.2,54.1h7.7v-0.6c-2.3,0-2.6-0.4-2.6-1.8v-5.9c0.7,0.3,1.4,0.4,2.5,0.4c3.3,0,5.8-1.8,5.8-5.5
	c0-3.6-2.5-5.3-6.5-5.3h-6.8V36c2.2,0,2.5,0.4,2.5,1.8v13.8c0,1.4-0.3,1.8-2.5,1.8V54.1z M79.3,45.2c-0.8,0-1.5-0.2-2-0.4v-7.5
	c0-0.3,0.1-0.5,0.4-0.6c0.4-0.2,0.9-0.3,1.5-0.3c2.2,0,3.8,1.4,3.8,4.3C83,43.3,81.7,45.2,79.3,45.2z M90.3,35.2L90,34.9l-3.5,1.7
	l0.2,0.5c1.4-0.7,1.4-0.4,1.4,1.1v13.5c0,1.5-0.2,1.8-1.7,1.8v0.6h5.5v-0.6c-1.4,0-1.6-0.3-1.6-1.8V35.2z M102.8,51.5
	c0,1.5-0.4,1.9-0.9,1.9c-0.4,0-0.6-0.3-0.6-1.4v-6.9c0-2.5-1.4-3.8-3.7-3.8c-2.4,0-4,1.4-4,3.2c0,0.9,0.4,1.4,1.3,1.4
	c0.7,0,1.1-0.4,1.1-1.1c0-0.5-0.3-0.8-0.3-1.4c0-0.8,0.7-1.2,1.6-1.2c1.1,0,1.8,0.7,1.8,2.7v1.3c-2.7,1.2-6,2.5-6,5.4
	c0,1.5,0.9,2.7,2.6,2.7c1.7,0,2.9-1.3,3.4-3.5v0.4c0,2.2,0.8,3,2.1,3c1.5,0,2.1-1.2,2.2-3H102.8z M96.5,52.7c-0.8,0-1.3-0.6-1.3-1.6
	c0-1.9,1.9-3,3.8-4v2.7C98.4,51.8,97.4,52.7,96.5,52.7z M104,54.1h5.3v-0.6c-1.2,0-1.4-0.3-1.4-1.8v-6.9c0.9-1.1,1.7-1.8,2.7-1.8
	c0.9,0,1.4,0.6,1.4,1.9v6.8c0,1.5-0.2,1.8-1.4,1.8v0.6h5.2v-0.6c-1.3,0-1.5-0.3-1.5-1.8v-7c0-2.2-0.9-3.4-2.6-3.4
	c-1.6,0-2.6,1-3.7,2.4h-0.1v-2.1l-0.4-0.3l-1.6,0.7l-1.9,0.7l0.2,0.5c1.4-0.6,1.4-0.3,1.4,1.3v7.2c0,1.5-0.2,1.8-1.6,1.8V54.1z
	 M124.8,49.1c-0.6,2.8-1.8,3.6-2.8,3.6c-1.9,0-2.9-2.2-2.9-5.4v0h6.1c0-3.4-1.3-6-4-6c-2.8,0-4.4,3.1-4.4,6.8c0,3.8,1.7,6.3,4.3,6.3
	c2.2,0,3.8-1.6,4.3-5.4H124.8z M121.2,42.3c1.4,0,1.8,1.8,1.8,4h-3.9C119.2,44,119.8,42.3,121.2,42.3z M133,48.9
	c0,2.8-0.5,4.1-1.6,4.1c-1.1,0-1.3-1.4-1.3-3.4v-6.8h2.7v-1h-2.8v-3.4h-0.8c-0.2,2.2-1.3,3.4-3,3.5v0.9h1.6v7.4c0,3.3,1,4.4,2.8,4.4
	c2.3,0,3-2,3-5.6H133z M143.5,48.6V47h-8v1.7H143.5z M149.6,54.5c1.8,0,3.4-1.1,3.4-3.4c0-1.8-1-2.8-3.1-4.4
	c-1.6-1.3-2.2-1.8-2.2-2.8c0-0.9,0.6-1.6,1.5-1.6c1.6,0,2.6,1.4,2.9,3.3h0.5l-0.1-4.1h-0.5l-0.1,0.5c-0.1,0.3-0.3,0.4-0.6,0.1
	c-0.4-0.3-1.1-0.8-2.2-0.8c-1.8,0-3.2,1.3-3.2,3.2c0,1.3,0.7,2.2,2.7,3.8c2.2,1.7,2.7,2.2,2.7,3.2c0,1.2-0.6,1.9-1.7,1.9
	c-1.6,0-2.9-1.5-3.3-4.3h-0.5l0.2,5h0.5l0.2-0.5c0.1-0.3,0.3-0.3,0.6-0.1C147.6,54,148.4,54.5,149.6,54.5z M164.1,51.5
	c0,1.5-0.4,1.9-0.9,1.9c-0.4,0-0.6-0.3-0.6-1.4v-6.9c0-2.5-1.4-3.8-3.7-3.8c-2.3,0-4,1.4-4,3.2c0,0.9,0.4,1.4,1.3,1.4
	c0.7,0,1.1-0.4,1.1-1.1c0-0.5-0.3-0.8-0.3-1.4c0-0.8,0.7-1.2,1.6-1.2c1.1,0,1.8,0.7,1.8,2.7v1.3c-2.7,1.2-6,2.5-6,5.4
	c0,1.5,0.9,2.7,2.6,2.7c1.7,0,2.9-1.3,3.4-3.5v0.4c0,2.2,0.8,3,2.1,3c1.5,0,2.1-1.2,2.2-3H164.1z M157.8,52.7
	c-0.8,0-1.3-0.6-1.3-1.6c0-1.9,1.9-3,3.8-4v2.7C159.7,51.8,158.7,52.7,157.8,52.7z M169.8,50.9h-0.1l-2-6.8
	c-0.4-1.4-0.4-1.7,1.1-1.7v-0.6h-5.4v0.6c1,0,1.4,0.3,1.8,1.7l3.2,10.2h1.3l3.2-10.2c0.4-1.4,0.9-1.7,2-1.7v-0.6h-4v0.6
	c1.5,0,1.5,0.3,1.1,1.7L169.8,50.9z M182.8,49.1c-0.6,2.8-1.8,3.6-2.8,3.6c-1.9,0-2.9-2.2-2.9-5.4v0h6.1c0-3.4-1.3-6-4-6
	c-2.8,0-4.4,3.1-4.4,6.8c0,3.8,1.7,6.3,4.3,6.3c2.2,0,3.8-1.6,4.3-5.4H182.8z M179.3,42.3c1.4,0,1.8,1.8,1.8,4h-3.9
	C177.3,44,177.9,42.3,179.3,42.3z M191.7,41.3c-1.3,0-2.4,1.3-3.1,2.5h-0.1v-2.2l-0.4-0.3l-1.6,0.7l-1.9,0.7l0.2,0.5
	c1.4-0.6,1.4-0.3,1.4,1.3v7.2c0,1.5-0.2,1.8-1.6,1.8v0.6h6.3v-0.6c-2.1,0-2.5-0.4-2.5-2v-6.2c0.5-1.4,1.1-2.2,1.7-2.2
	c0.3,0,0.4,0.1,0.7,0.4c0.3,0.3,0.5,0.5,0.9,0.5c0.6,0,1.1-0.6,1.1-1.5C192.9,41.8,192.5,41.3,191.7,41.3z M23,84.1
	c3.7,0,6.7-1.3,6.7-5c0-2.5-1.9-4.3-4.8-4.5v-0.1c2.3-0.3,4-1.8,4-4.4c0-3.1-2.3-4.6-5.7-4.6H16V66c2.2,0,2.5,0.4,2.5,1.8v13.8
	c0,1.4-0.3,1.8-2.5,1.8v0.6H23z M21,67.1c0-0.3,0.1-0.5,0.5-0.6c0.4-0.1,0.9-0.1,1.3-0.1c1.8,0,3.5,1.1,3.5,3.7
	c0,2.7-1.7,3.9-3.6,3.9c-0.6,0-1.2,0-1.7-0.1V67.1z M21,75.1c0.6-0.1,1.2-0.1,1.8-0.1c1.8,0,4.4,0.9,4.4,4.1c0,3.2-2.3,4-4.4,4
	c-1.1,0-1.7-0.2-1.7-0.7V75.1z M38.8,84.5l3.4-1.3l-0.2-0.5c-1.4,0.5-1.5,0.2-1.5-1.3v-9.5l-0.3-0.3l-3.6,1.2l0.2,0.5
	c1.4-0.4,1.5-0.2,1.5,1.3v6.6c-0.7,1-1.7,1.8-2.6,1.8c-0.9,0-1.3-0.7-1.3-2v-9.1l-0.3-0.3l-3.6,1.2l0.2,0.5c1.4-0.4,1.5-0.2,1.5,1.3
	v6.6c0,2,0.9,3.4,2.5,3.4c1.7,0,2.8-1.1,3.6-2.4l0.1,0l0,2L38.8,84.5z M50.3,71.3c-1.3,0-2.4,1.3-3.1,2.5h-0.1v-2.2l-0.4-0.3
	l-1.6,0.7l-1.9,0.7l0.2,0.5c1.4-0.6,1.4-0.3,1.4,1.3v7.2c0,1.5-0.2,1.8-1.6,1.8v0.6h6.3v-0.6c-2.1,0-2.5-0.4-2.5-2v-6.2
	c0.5-1.4,1.1-2.2,1.7-2.2c0.3,0,0.4,0.1,0.7,0.4c0.3,0.3,0.5,0.5,0.9,0.5c0.6,0,1.1-0.6,1.1-1.5C51.6,71.8,51.1,71.3,50.3,71.3z
	 M56.4,82.2c-2.3,0-2.4-0.5-2.4-1.1c0-0.5,0.3-0.8,0.8-1.2c0.6,0.3,1.2,0.4,1.9,0.4c2.6,0,4.3-1.8,4.3-4.5c0-1.5-0.5-2.7-1.5-3.5
	c0.7-0.1,1.3,0.4,2.2,0.4c0.6,0,0.8-0.3,0.8-0.8c0-0.4-0.2-0.7-0.9-0.7c-0.7,0-1.7,0.2-2.7,0.8c-0.7-0.4-1.4-0.6-2.3-0.6
	c-2.7,0-4.4,1.9-4.4,4.5c0,1.6,0.7,2.9,1.8,3.7c-1,0.7-1.8,1.4-1.8,2.5c0,0.8,0.4,1.4,1.4,1.8c-1.5,0.7-2.4,1.5-2.4,2.9
	c0,1.9,2.2,2.8,4.7,2.8c3.9,0,6.7-2.3,6.7-4.9c0-1.8-1.1-2.5-3.5-2.5H56.4z M56.4,72.2c1.6,0,2.3,2.4,2.3,4.4c0,1.6-0.5,2.7-1.7,2.7
	c-1.7,0-2.3-2.4-2.3-4.3C54.6,73.6,55.1,72.2,56.4,72.2z M56.5,88.2c-2.4,0-3.4-1-3.4-2c0-0.7,0.6-1.4,1.3-2.1
	c0.5,0.1,1,0.2,1.7,0.2H59c1.7,0,2.3,0.2,2.3,1.1C61.3,86.7,59.4,88.2,56.5,88.2z M71,79.1c-0.6,2.8-1.8,3.6-2.8,3.6
	c-1.9,0-2.9-2.2-2.9-5.4v0h6.1c0-3.4-1.3-6-4-6c-2.8,0-4.4,3.1-4.4,6.8c0,3.8,1.7,6.3,4.3,6.3c2.2,0,3.8-1.6,4.3-5.4H71z M67.4,72.3
	c1.4,0,1.8,1.8,1.8,4h-3.9C65.4,74,66,72.3,67.4,72.3z M79.8,71.3c-1.3,0-2.4,1.3-3.1,2.5h-0.1v-2.2l-0.4-0.3l-1.6,0.7l-1.9,0.7
	l0.2,0.5c1.4-0.6,1.4-0.3,1.4,1.3v7.2c0,1.5-0.2,1.8-1.6,1.8v0.6h6.3v-0.6c-2.1,0-2.5-0.4-2.5-2v-6.2c0.5-1.4,1.1-2.2,1.7-2.2
	c0.3,0,0.4,0.1,0.7,0.4c0.3,0.3,0.5,0.5,0.9,0.5c0.6,0,1.1-0.6,1.1-1.5C81.1,71.8,80.6,71.3,79.8,71.3z M17,102
	c-0.2,0-0.3,0.2-0.4,0.2c-0.1,0-0.1-0.1-0.1-0.2c0-0.3,0.3-0.7,0.8-0.9v-0.3c-0.9,0.3-1.1,0.9-1.1,1.4c0,0.5,0.3,0.8,0.7,0.8
	c0.4,0,0.6-0.2,0.6-0.6C17.4,102.2,17.2,102,17,102z M18.9,102c-0.2,0-0.3,0.2-0.4,0.2c-0.1,0-0.1-0.1-0.1-0.2
	c0-0.3,0.3-0.7,0.8-0.9v-0.3c-0.9,0.3-1.1,0.9-1.1,1.4c0,0.5,0.3,0.8,0.7,0.8c0.4,0,0.6-0.2,0.6-0.6C19.3,102.2,19.1,102,18.9,102z
	 M26.1,100.8h-5.9v0.2c1.1,0,1.2,0.2,1.2,0.9v7.1c0,0.7-0.1,0.9-1.2,0.9v0.2h3.2v-0.2c-1.1,0-1.2-0.2-1.2-0.9v-3.3H24
	c0.7,0,0.9,0.1,0.9,1.3h0.2v-3h-0.2c0,1.2-0.2,1.3-0.9,1.3h-1.8v-3.6c0-0.3,0.2-0.5,0.5-0.5h2.2c0.8,0,1,0.2,1.2,1.8l0.3,0l-0.2-2
	L26.1,100.8z M28.4,110.3c1.4,0,2.2-1.5,2.2-3.3c0-1.8-0.9-3.2-2.2-3.2c-1.4,0-2.2,1.5-2.2,3.3C26.2,108.9,27.1,110.3,28.4,110.3z
	 M28.6,109.9c-1.1,0-1.7-1.7-1.7-3.3c0-1.2,0.4-2.4,1.4-2.4c1.1,0,1.7,1.7,1.7,3.3C29.9,108.7,29.5,109.9,28.6,109.9z M34.2,103.8
	c-0.6,0-1.1,0.5-1.4,1.2h0v-1l-0.1-0.1l-1.3,0.5l0.1,0.2c0.7-0.3,0.7-0.1,0.7,0.6v3.9c0,0.7-0.1,0.9-0.8,0.9v0.2h2.5v-0.3
	c-1,0-1.2-0.1-1.2-0.9v-3.4c0.3-0.8,0.6-1.1,0.9-1.1c0.1,0,0.2,0,0.3,0.2c0.1,0.1,0.2,0.2,0.3,0.2c0.2,0,0.4-0.2,0.4-0.5
	C34.7,104,34.5,103.8,34.2,103.8z M40.7,107.6c0,1.5-0.3,2.1-0.8,2.1c-0.6,0-0.7-0.8-0.7-1.9v-3.4h1.4V104h-1.4v-1.6h-0.3
	c0,1-0.4,1.7-1.2,1.7v0.3h0.8v3.8c0,1.5,0.4,2.1,1.2,2.1c1,0,1.3-1,1.3-2.7H40.7z M42.8,105.3c0.5-0.5,0.9-0.9,1.5-0.9
	c0.5,0,0.8,0.3,0.8,1v3.6c0,0.7-0.1,0.9-0.7,0.9v0.2h2.1v-0.2c-0.7,0-0.8-0.2-0.8-0.9v-3.6c0-0.9-0.3-1.6-1.2-1.6
	c-0.7,0-1.2,0.5-1.7,1.1h0v-4.2l-0.1-0.1l-0.4,0.2l-0.9,0.4l0.1,0.2c0.7-0.3,0.7-0.2,0.7,0.5l0,7.1c0,0.7-0.1,0.9-0.8,0.9v0.2h2.1
	v-0.2c-0.7,0-0.7-0.2-0.7-0.9V105.3z M49.2,110.3c1.4,0,2.2-1.5,2.2-3.3c0-1.8-0.9-3.2-2.2-3.2c-1.4,0-2.2,1.5-2.2,3.3
	C47.1,108.9,47.9,110.3,49.2,110.3z M49.4,109.9c-1.1,0-1.7-1.7-1.7-3.3c0-1.2,0.4-2.4,1.4-2.4c1.1,0,1.7,1.7,1.7,3.3
	C50.7,108.7,50.3,109.9,49.4,109.9z M54.2,110.3c0.8,0,1.4-0.5,1.4-1.6c0-0.8-0.5-1.3-1.5-2.2c-0.8-0.6-1.1-0.9-1.1-1.5
	c0-0.5,0.4-0.9,0.9-0.9c0.8,0,1.2,0.7,1.3,1.6h0.2l0-2h-0.2l0,0.2c0,0.1-0.1,0.2-0.3,0.1c-0.2-0.2-0.5-0.4-1-0.4
	c-0.8,0-1.4,0.6-1.4,1.4c0,0.6,0.3,1,1.3,1.8c1.1,0.9,1.3,1.2,1.3,1.8c0,0.7-0.3,1.1-0.9,1.1c-0.7,0-1.4-0.7-1.5-2.2h-0.2l0.1,2.4
	h0.2l0.1-0.2c0.1-0.1,0.2-0.2,0.3-0.1C53.2,110,53.7,110.3,54.2,110.3z M60,107.6c-0.3,1.6-0.9,2-1.4,2c-0.9,0-1.4-1.3-1.4-2.8v-0.2
	h3c0-1.7-0.6-2.9-1.8-2.9c-1.2,0-1.9,1.5-1.9,3.4c0,1.8,0.7,3.2,1.9,3.2c0.9,0,1.7-0.8,1.9-2.6H60z M58.4,104.2
	c0.8,0,1.1,1.1,1.1,2.1h-2.3C57.3,105.1,57.7,104.2,58.4,104.2z M70.8,104H69v0.2c0.8,0,0.8,0.1,0.6,0.8l-1.1,3.9h0l-0.9-3.9
	c-0.2-0.7-0.2-0.8,0.5-0.8V104h-1.9v0.2c0.4,0,0.6,0.1,0.8,0.8l0.1,0.3l-0.9,3.6h0l-1.1-3.9c-0.2-0.7-0.2-0.8,0.4-0.8V104h-1.9v0.2
	c0.5,0,0.7,0.1,0.9,0.8l1.4,5.2H66l1.1-4.1l1,4.1h0.4l1.4-5.2c0.2-0.7,0.4-0.8,0.8-0.8V104z M72.3,105.3c0.5-0.5,0.9-0.9,1.5-0.9
	c0.5,0,0.8,0.3,0.8,1v3.6c0,0.7-0.1,0.9-0.7,0.9v0.2h2.1v-0.2c-0.7,0-0.8-0.2-0.8-0.9v-3.6c0-0.9-0.3-1.6-1.2-1.6
	c-0.7,0-1.2,0.5-1.7,1.1h0v-4.2l-0.1-0.1l-0.4,0.2l-0.9,0.4l0.1,0.2c0.7-0.3,0.7-0.2,0.7,0.5l0,7.1c0,0.7-0.1,0.9-0.8,0.9v0.2H73
	v-0.2c-0.7,0-0.7-0.2-0.7-0.9V105.3z M78.7,110.3c1.4,0,2.2-1.5,2.2-3.3c0-1.8-0.9-3.2-2.2-3.2c-1.4,0-2.2,1.5-2.2,3.3
	C76.5,108.9,77.4,110.3,78.7,110.3z M78.9,109.9c-1.1,0-1.7-1.7-1.7-3.3c0-1.2,0.4-2.4,1.4-2.4c1.1,0,1.7,1.7,1.7,3.3
	C80.2,108.7,79.8,109.9,78.9,109.9z M85.6,100.7l-0.1-0.1l-0.4,0.2l-0.9,0.4l0.1,0.2c0.7-0.3,0.7-0.2,0.7,0.5v7.1
	c0,0.7-0.1,0.9-0.8,0.9v0.2h2.2v-0.2c-0.7,0-0.8-0.2-0.8-0.9V100.7z M89.2,110.3c1.4,0,2.2-1.5,2.2-3.3c0-1.8-0.9-3.2-2.2-3.2
	c-1.4,0-2.2,1.5-2.2,3.3C87,108.9,87.9,110.3,89.2,110.3z M89.4,109.9c-1.1,0-1.7-1.7-1.7-3.3c0-1.2,0.4-2.4,1.4-2.4
	c1.1,0,1.7,1.7,1.7,3.3C90.7,108.7,90.3,109.9,89.4,109.9z M94.3,108.9L94.3,108.9l-1.2-3.9c-0.2-0.7-0.2-0.8,0.6-0.8V104h-2.2v0.2
	c0.5,0,0.7,0.1,0.9,0.8l1.5,5.2h0.4l1.5-5.2c0.2-0.7,0.4-0.8,0.9-0.8V104h-1.9v0.2c0.8,0,0.8,0.1,0.6,0.8L94.3,108.9z M100.4,107.6
	c-0.3,1.6-0.9,2-1.4,2c-0.9,0-1.4-1.3-1.4-2.8v-0.2h3c0-1.7-0.6-2.9-1.8-2.9c-1.2,0-1.9,1.5-1.9,3.4c0,1.8,0.7,3.2,1.9,3.2
	c0.9,0,1.7-0.8,1.9-2.6H100.4z M98.8,104.2c0.8,0,1.1,1.1,1.1,2.1h-2.3C97.7,105.1,98.1,104.2,98.8,104.2z M107.6,107.6
	c-0.3,1.6-0.9,2-1.4,2c-0.9,0-1.4-1.3-1.4-2.8v-0.2h3c0-1.7-0.6-2.9-1.8-2.9c-1.2,0-1.9,1.5-1.9,3.4c0,1.8,0.7,3.2,1.9,3.2
	c0.9,0,1.7-0.8,1.9-2.6H107.6z M106.1,104.2c0.8,0,1.1,1.1,1.1,2.1h-2.3C104.9,105.1,105.3,104.2,106.1,104.2z M108.7,110.1h2.1
	v-0.2c-0.7,0-0.7-0.2-0.7-0.9v-3.7c0.5-0.5,0.9-0.9,1.5-0.9c0.5,0,0.8,0.3,0.8,1v3.6c0,0.7-0.1,0.9-0.7,0.9v0.2h2.1v-0.2
	c-0.7,0-0.7-0.2-0.7-0.9v-3.6c0-0.9-0.3-1.6-1.2-1.6c-0.7,0-1.2,0.5-1.7,1.1h0v-1l-0.2-0.1l-1.3,0.5l0.1,0.2
	c0.7-0.3,0.7-0.2,0.7,0.6v3.9c0,0.7-0.1,0.9-0.8,0.9V110.1z M116.2,108.9L116.2,108.9L115,105c-0.2-0.7-0.2-0.8,0.6-0.8V104h-2.2
	v0.2c0.5,0,0.7,0.1,0.9,0.8l1.5,5.2h0.4l1.5-5.2c0.2-0.7,0.4-0.8,0.9-0.8V104h-1.9v0.2c0.8,0,0.8,0.1,0.6,0.8L116.2,108.9z
	 M120,102.4c0.3,0,0.6-0.2,0.6-0.5c0-0.3-0.2-0.5-0.6-0.5c-0.3,0-0.6,0.2-0.6,0.5C119.4,102.1,119.7,102.4,120,102.4z M120.4,103.9
	l-0.1-0.1l-0.4,0.2l-0.8,0.3l0.1,0.2c0.7-0.3,0.7-0.1,0.7,0.6v3.9c0,0.7-0.1,0.9-0.8,0.9v0.2h2.2v-0.2c-0.7,0-0.8-0.2-0.8-0.9V103.9
	z M124.7,103.8c-0.6,0-1.1,0.5-1.4,1.2h0v-1l-0.1-0.1l-1.3,0.5l0.1,0.2c0.7-0.3,0.7-0.1,0.7,0.6v3.9c0,0.7-0.1,0.9-0.8,0.9v0.2h2.5
	v-0.3c-1,0-1.2-0.1-1.2-0.9v-3.4c0.3-0.8,0.6-1.1,0.9-1.1c0.1,0,0.2,0,0.3,0.2c0.1,0.1,0.2,0.2,0.3,0.2c0.2,0,0.4-0.2,0.4-0.5
	C125.2,104,125,103.8,124.7,103.8z M127.9,110.3c1.4,0,2.2-1.5,2.2-3.3c0-1.8-0.9-3.2-2.2-3.2c-1.4,0-2.2,1.5-2.2,3.3
	C125.7,108.9,126.6,110.3,127.9,110.3z M128,109.9c-1.1,0-1.7-1.7-1.7-3.3c0-1.2,0.4-2.4,1.4-2.4c1.1,0,1.7,1.7,1.7,3.3
	C129.4,108.7,129,109.9,128,109.9z M130.8,110.1h2.1v-0.2c-0.7,0-0.7-0.2-0.7-0.9v-3.7c0.5-0.5,0.9-0.9,1.5-0.9c0.5,0,0.8,0.3,0.8,1
	v3.6c0,0.7-0.1,0.9-0.7,0.9v0.2h2.1v-0.2c-0.7,0-0.7-0.2-0.7-0.9v-3.6c0-0.9-0.3-1.6-1.2-1.6c-0.7,0-1.2,0.5-1.7,1.1h0v-1l-0.2-0.1
	l-1.3,0.5l0.1,0.2c0.7-0.3,0.7-0.2,0.7,0.6v3.9c0,0.7-0.1,0.9-0.8,0.9V110.1z M143.3,105.3c0-0.9-0.3-1.6-1.1-1.6
	c-0.7,0-1.1,0.5-1.6,1.1h0c-0.1-0.7-0.4-1.1-1.1-1.1c-0.7,0-1.1,0.5-1.6,1.1h0v-1l-0.2-0.1l-0.4,0.2l-0.9,0.4l0.1,0.2
	c0.7-0.3,0.7-0.2,0.7,0.6v3.9c0,0.7-0.1,0.9-0.8,0.9v0.2h2.1v-0.2c-0.6,0-0.7-0.2-0.7-0.9v-3.7c0.4-0.5,0.8-0.9,1.3-0.9
	c0.5,0,0.7,0.3,0.7,1v3.6c0,0.7-0.1,0.9-0.7,0.9v0.2h2.1v-0.2c-0.6,0-0.7-0.2-0.7-0.9v-3.6v-0.1c0.4-0.5,0.8-0.9,1.3-0.9
	c0.5,0,0.7,0.3,0.7,1v3.6c0,0.7-0.1,0.9-0.7,0.9v0.2h2.1v-0.2c-0.7,0-0.7-0.2-0.7-0.9V105.3z M148.2,107.6c-0.3,1.6-0.9,2-1.4,2
	c-0.9,0-1.4-1.3-1.4-2.8v-0.2h3c0-1.7-0.6-2.9-1.8-2.9c-1.2,0-1.9,1.5-1.9,3.4c0,1.8,0.7,3.2,1.9,3.2c0.9,0,1.7-0.8,1.9-2.6H148.2z
	 M146.7,104.2c0.8,0,1.1,1.1,1.1,2.1h-2.3C145.5,105.1,145.9,104.2,146.7,104.2z M149.3,110.1h2.1v-0.2c-0.7,0-0.7-0.2-0.7-0.9v-3.7
	c0.5-0.5,0.9-0.9,1.5-0.9c0.5,0,0.8,0.3,0.8,1v3.6c0,0.7-0.1,0.9-0.7,0.9v0.2h2.1v-0.2c-0.7,0-0.7-0.2-0.7-0.9v-3.6
	c0-0.9-0.3-1.6-1.2-1.6c-0.7,0-1.2,0.5-1.7,1.1h0v-1l-0.2-0.1l-1.3,0.5l0.1,0.2c0.7-0.3,0.7-0.2,0.7,0.6v3.9c0,0.7-0.1,0.9-0.8,0.9
	V110.1z M157.7,107.6c0,1.5-0.3,2.1-0.8,2.1c-0.6,0-0.7-0.8-0.7-1.9v-3.4h1.4V104h-1.4v-1.6h-0.3c0,1-0.4,1.7-1.2,1.7v0.3h0.8v3.8
	c0,1.5,0.4,2.1,1.2,2.1c1,0,1.3-1,1.3-2.7H157.7z M165.4,108.9c0,0.8-0.2,1-0.4,1c-0.2,0-0.3-0.1-0.3-0.8v-3.6
	c0-1.2-0.6-1.8-1.5-1.8c-1,0-1.7,0.7-1.7,1.5c0,0.4,0.2,0.6,0.5,0.6c0.3,0,0.4-0.2,0.4-0.4c0-0.2-0.2-0.3-0.2-0.6
	c0-0.4,0.4-0.7,0.9-0.7c0.6,0,1,0.4,1,1.4v0.7c-1.3,0.6-2.9,1.3-2.9,2.7c0,0.7,0.4,1.3,1.2,1.3c0.8,0,1.4-0.6,1.7-1.7v0.5
	c0,0.9,0.3,1.3,0.8,1.3c0.6,0,0.8-0.6,0.8-1.4H165.4z M162.5,109.7c-0.5,0-0.7-0.4-0.7-0.9c0-1.1,1.1-1.7,2.2-2.2v1.4
	C163.6,109.2,163,109.7,162.5,109.7z M166.1,110.1h2.1v-0.2c-0.7,0-0.7-0.2-0.7-0.9v-3.7c0.5-0.5,0.9-0.9,1.5-0.9
	c0.5,0,0.8,0.3,0.8,1v3.6c0,0.7-0.1,0.9-0.7,0.9v0.2h2.1v-0.2c-0.7,0-0.7-0.2-0.7-0.9v-3.6c0-0.9-0.3-1.6-1.2-1.6
	c-0.7,0-1.2,0.5-1.7,1.1h0v-1l-0.2-0.1l-1.3,0.5l0.1,0.2c0.7-0.3,0.7-0.2,0.7,0.6v3.9c0,0.7-0.1,0.9-0.8,0.9V110.1z M176.2,109.5
	c-0.7,0.3-0.7,0.2-0.7-0.6v-8.3l-0.1-0.1l-1.3,0.6l0.1,0.2c0.7-0.3,0.7-0.2,0.7,0.5v2.5h0c-0.3-0.4-0.7-0.6-1.2-0.6
	c-1.3,0-1.9,1.6-1.9,3.4c0,1.7,0.6,3.1,1.7,3.1c0.7,0,1.2-0.4,1.5-1.1h0v0.9l0.2,0.1l1.3-0.6L176.2,109.5z M173.6,109.7
	c-0.8,0-1.2-1.2-1.2-2.7c0-1.4,0.3-2.7,1.3-2.7c0.8,0,1.2,0.9,1.2,2.1v2.3C174.6,109.2,174.3,109.7,173.6,109.7z M17.9,125.3
	c0.9,0,1.7-0.8,1.8-2.7h-0.2c-0.2,1.6-0.8,2.1-1.3,2.1c-0.9,0-1.4-1.3-1.4-2.8c0-1.3,0.4-2.7,1.4-2.7c0.4,0,0.7,0.2,0.7,0.7
	c0,0.2-0.1,0.5-0.1,0.6c0,0.2,0.1,0.4,0.4,0.4c0.3,0,0.5-0.2,0.5-0.7c0-0.8-0.5-1.4-1.4-1.4c-1.3,0-2.1,1.5-2.1,3.3
	C16,123.9,16.7,125.3,17.9,125.3z M22.5,125.3c1.4,0,2.2-1.5,2.2-3.3c0-1.8-0.9-3.2-2.2-3.2c-1.4,0-2.2,1.5-2.2,3.3
	C20.4,123.9,21.2,125.3,22.5,125.3z M22.7,124.9c-1.1,0-1.7-1.7-1.7-3.3c0-1.2,0.4-2.4,1.4-2.4c1.1,0,1.7,1.7,1.7,3.3
	C24,123.7,23.6,124.9,22.7,124.9z M32.3,120.3c0-0.9-0.3-1.6-1.1-1.6c-0.7,0-1.1,0.5-1.6,1.1h0c-0.1-0.7-0.4-1.1-1.1-1.1
	c-0.7,0-1.1,0.5-1.6,1.1h0v-1l-0.2-0.1l-0.4,0.2l-0.9,0.4l0.1,0.2c0.7-0.3,0.7-0.2,0.7,0.6v3.9c0,0.7-0.1,0.9-0.8,0.9v0.2h2.1v-0.2
	c-0.6,0-0.7-0.2-0.7-0.9v-3.7c0.4-0.5,0.8-0.9,1.3-0.9c0.5,0,0.7,0.3,0.7,1v3.6c0,0.7-0.1,0.9-0.7,0.9v0.2h2.1v-0.2
	c-0.6,0-0.7-0.2-0.7-0.9v-3.6v-0.1c0.4-0.5,0.8-0.9,1.3-0.9c0.5,0,0.7,0.3,0.7,1v3.6c0,0.7-0.1,0.9-0.7,0.9v0.2H33v-0.2
	c-0.7,0-0.7-0.2-0.7-0.9V120.3z M36.4,118.8c-0.6,0-1.1,0.4-1.5,1.2h0v-1l-0.1-0.1l-1.3,0.5l0.1,0.2c0.7-0.3,0.7-0.1,0.7,0.6v6.4
	c0,0.7-0.1,0.9-0.8,0.9v0.2h2.2v-0.2c-0.7,0-0.8-0.1-0.8-0.9v-2.2h0c0.3,0.6,0.8,0.9,1.3,0.9c1.3,0,1.8-1.7,1.8-3.4
	C38,120.1,37.5,118.8,36.4,118.8z M36.1,124.8c-0.7,0-1.3-0.9-1.3-2.2v-2.2c0.3-0.6,0.8-1,1.4-1c0.8,0,1.1,1,1.1,2.6
	C37.3,123.4,36.9,124.8,36.1,124.8z M41.2,125.3c1.4,0,2.2-1.5,2.2-3.3c0-1.8-0.9-3.2-2.2-3.2c-1.4,0-2.2,1.5-2.2,3.3
	C39,123.9,39.9,125.3,41.2,125.3z M41.3,124.9c-1.1,0-1.7-1.7-1.7-3.3c0-1.2,0.4-2.4,1.4-2.4c1.1,0,1.7,1.7,1.7,3.3
	C42.7,123.7,42.3,124.9,41.3,124.9z M46.1,125.3c0.8,0,1.4-0.5,1.4-1.6c0-0.8-0.5-1.3-1.5-2.2c-0.8-0.6-1.1-0.9-1.1-1.5
	c0-0.5,0.4-0.9,0.9-0.9c0.8,0,1.2,0.7,1.3,1.6h0.2l0-2h-0.2l0,0.2c0,0.1-0.1,0.2-0.3,0.1c-0.2-0.2-0.5-0.4-1-0.4
	c-0.8,0-1.4,0.6-1.4,1.4c0,0.6,0.3,1,1.3,1.8c1.1,0.9,1.3,1.2,1.3,1.8c0,0.7-0.3,1.1-0.9,1.1c-0.7,0-1.4-0.7-1.5-2.2h-0.2l0.1,2.4
	h0.2l0.1-0.2c0.1-0.1,0.2-0.2,0.3-0.1C45.2,125,45.6,125.3,46.1,125.3z M51.2,122.6c0,1.5-0.3,2.1-0.8,2.1c-0.6,0-0.7-0.8-0.7-1.9
	v-3.4H51V119h-1.4v-1.6h-0.3c0,1-0.4,1.7-1.2,1.7v0.3H49v3.8c0,1.5,0.4,2.1,1.2,2.1c1,0,1.3-1,1.3-2.7H51.2z M53,117.4
	c0.3,0,0.6-0.2,0.6-0.5c0-0.3-0.2-0.5-0.6-0.5c-0.3,0-0.6,0.2-0.6,0.5C52.4,117.1,52.6,117.4,53,117.4z M53.4,118.9l-0.1-0.1
	l-0.4,0.2l-0.8,0.3l0.1,0.2c0.7-0.3,0.7-0.1,0.7,0.6v3.9c0,0.7-0.1,0.9-0.8,0.9v0.2h2.2v-0.2c-0.7,0-0.8-0.2-0.8-0.9V118.9z
	 M54.8,125.1H57v-0.2c-0.7,0-0.7-0.2-0.7-0.9v-3.7c0.5-0.5,0.9-0.9,1.5-0.9c0.5,0,0.8,0.3,0.8,1v3.6c0,0.7-0.1,0.9-0.7,0.9v0.2h2.1
	v-0.2c-0.7,0-0.7-0.2-0.7-0.9v-3.6c0-0.9-0.3-1.6-1.2-1.6c-0.7,0-1.2,0.5-1.7,1.1h0v-1l-0.2-0.1l-1.3,0.5l0.1,0.2
	c0.7-0.3,0.7-0.2,0.7,0.6v3.9c0,0.7-0.1,0.9-0.8,0.9V125.1z M62.3,124.4c-1.1,0-1.2-0.3-1.2-0.6c0-0.3,0.2-0.5,0.5-0.7
	c0.3,0.2,0.6,0.2,0.9,0.2c1.1,0,1.9-0.9,1.9-2.2c0-0.7-0.2-1.4-0.7-1.8c0.3-0.1,0.6,0,1,0c0.3,0,0.4-0.1,0.4-0.3
	c0-0.2-0.1-0.3-0.3-0.3c-0.4,0-0.8,0.1-1.3,0.3c-0.3-0.2-0.6-0.3-1-0.3c-1.1,0-1.9,0.9-1.9,2.3c0,0.8,0.3,1.4,0.7,1.8
	c-0.4,0.3-0.8,0.7-0.8,1.2c0,0.4,0.2,0.7,0.6,0.8c-0.6,0.4-1.2,0.8-1.2,1.5c0,1,1,1.4,2.1,1.4c1.8,0,3-1.2,3-2.3
	c0-0.9-0.5-1.1-1.7-1.1H62.3z M62.4,119.2c0.9,0,1.3,1.2,1.3,2.2c0,0.9-0.3,1.5-1.1,1.5c-1,0-1.3-1.2-1.3-2.1
	C61.3,119.9,61.6,119.2,62.4,119.2z M62.3,127.3c-1.2,0-1.7-0.5-1.7-1.1c0-0.5,0.4-0.9,1-1.3c0.2,0,0.4,0,0.7,0h1.2
	c0.9,0,1.2,0.1,1.2,0.7C64.8,126.5,63.8,127.3,62.3,127.3z M66.2,125.2c0.2,0,0.2-0.1,0.3-0.1c0.1,0,0.1,0.1,0.1,0.2
	c0,0.5-0.4,1-0.8,1.2v0.3c0.9-0.5,1.2-1.2,1.2-1.8c0-0.5-0.3-0.8-0.7-0.8c-0.3,0-0.5,0.2-0.5,0.6C65.7,125,65.9,125.2,66.2,125.2z
	 M72.4,125.3c0.9,0,1.7-0.8,1.8-2.7H74c-0.2,1.6-0.8,2.1-1.3,2.1c-0.9,0-1.4-1.3-1.4-2.8c0-1.3,0.4-2.7,1.4-2.7
	c0.4,0,0.7,0.2,0.7,0.7c0,0.2-0.1,0.5-0.1,0.6c0,0.2,0.1,0.4,0.4,0.4c0.3,0,0.5-0.2,0.5-0.7c0-0.8-0.5-1.4-1.4-1.4
	c-1.3,0-2.1,1.5-2.1,3.3C70.5,123.9,71.2,125.3,72.4,125.3z M77.7,118.8c-0.6,0-1.1,0.5-1.4,1.2h0v-1l-0.1-0.1l-1.3,0.5l0.1,0.2
	c0.7-0.3,0.7-0.1,0.7,0.6v3.9c0,0.7-0.1,0.9-0.8,0.9v0.2h2.5v-0.3c-1,0-1.2-0.1-1.2-0.9v-3.4c0.3-0.8,0.6-1.1,0.9-1.1
	c0.1,0,0.2,0,0.3,0.2c0.1,0.1,0.2,0.2,0.3,0.2c0.2,0,0.4-0.2,0.4-0.5C78.3,119,78.1,118.8,77.7,118.8z M82.3,122.6
	c-0.3,1.6-0.9,2-1.4,2c-0.9,0-1.4-1.3-1.4-2.8v-0.2h3c0-1.7-0.6-2.9-1.8-2.9c-1.2,0-1.9,1.5-1.9,3.4c0,1.8,0.7,3.2,1.9,3.2
	c0.9,0,1.7-0.8,1.9-2.6H82.3z M80.7,119.2c0.8,0,1.1,1.1,1.1,2.1h-2.3C79.5,120.1,79.9,119.2,80.7,119.2z M87.6,123.9
	c0,0.8-0.2,1-0.4,1c-0.2,0-0.3-0.1-0.3-0.8v-3.6c0-1.2-0.6-1.8-1.5-1.8c-1,0-1.7,0.7-1.7,1.5c0,0.4,0.2,0.6,0.5,0.6
	c0.3,0,0.4-0.2,0.4-0.4c0-0.2-0.2-0.3-0.2-0.6c0-0.4,0.4-0.7,0.9-0.7c0.6,0,1,0.4,1,1.4v0.7c-1.3,0.6-2.9,1.3-2.9,2.7
	c0,0.7,0.4,1.3,1.2,1.3c0.8,0,1.3-0.6,1.7-1.7v0.5c0,0.9,0.3,1.3,0.8,1.3c0.6,0,0.8-0.6,0.8-1.4H87.6z M84.7,124.7
	c-0.5,0-0.7-0.4-0.7-0.9c0-1.1,1.1-1.7,2.2-2.2v1.4C85.8,124.2,85.3,124.7,84.7,124.7z M91,122.6c0,1.5-0.3,2.1-0.8,2.1
	c-0.6,0-0.7-0.8-0.7-1.9v-3.4h1.4V119h-1.4v-1.6h-0.3c0,1-0.4,1.7-1.2,1.7v0.3h0.8v3.8c0,1.5,0.4,2.1,1.2,2.1c1,0,1.3-1,1.3-2.7H91z
	 M95.5,122.6c-0.3,1.6-0.9,2-1.4,2c-0.9,0-1.4-1.3-1.4-2.8v-0.2h3c0-1.7-0.6-2.9-1.8-2.9c-1.2,0-1.9,1.5-1.9,3.4
	c0,1.8,0.7,3.2,1.9,3.2c0.9,0,1.7-0.8,1.9-2.6H95.5z M93.9,119.2c0.8,0,1.1,1.1,1.1,2.1h-2.3C92.8,120.1,93.2,119.2,93.9,119.2z
	 M101.3,124.5c-0.7,0.3-0.7,0.2-0.7-0.6v-8.3l-0.1-0.1l-1.3,0.6l0.1,0.2c0.7-0.3,0.7-0.2,0.7,0.5v2.5h0c-0.3-0.4-0.7-0.6-1.2-0.6
	c-1.3,0-1.9,1.6-1.9,3.4c0,1.7,0.6,3.1,1.7,3.1c0.7,0,1.2-0.4,1.5-1.1h0v0.9l0.2,0.1l1.3-0.6L101.3,124.5z M98.6,124.7
	c-0.8,0-1.2-1.2-1.2-2.7c0-1.4,0.3-2.7,1.3-2.7c0.8,0,1.2,0.9,1.2,2.1v2.3C99.6,124.2,99.3,124.7,98.6,124.7z M107.4,122.6
	c0,1.5-0.3,2.1-0.8,2.1c-0.6,0-0.7-0.8-0.7-1.9v-3.4h1.4V119h-1.4v-1.6h-0.3c0,1-0.4,1.7-1.2,1.7v0.3h0.8v3.8c0,1.5,0.4,2.1,1.2,2.1
	c1,0,1.3-1,1.3-2.7H107.4z M110.6,125.3c1.4,0,2.2-1.5,2.2-3.3c0-1.8-0.9-3.2-2.2-3.2c-1.4,0-2.2,1.5-2.2,3.3
	C108.4,123.9,109.3,125.3,110.6,125.3z M110.7,124.9c-1.1,0-1.7-1.7-1.7-3.3c0-1.2,0.4-2.4,1.4-2.4c1.1,0,1.7,1.7,1.7,3.3
	C112.1,123.7,111.7,124.9,110.7,124.9z M118.9,118.8c-0.6,0-1.1,0.4-1.5,1.2h0v-1l-0.1-0.1l-1.3,0.5l0.1,0.2
	c0.7-0.3,0.7-0.1,0.7,0.6v6.4c0,0.7-0.1,0.9-0.8,0.9v0.2h2.2v-0.2c-0.7,0-0.8-0.1-0.8-0.9v-2.2h0c0.3,0.6,0.8,0.9,1.3,0.9
	c1.3,0,1.8-1.7,1.8-3.4C120.5,120.1,120,118.8,118.9,118.8z M118.6,124.8c-0.7,0-1.3-0.9-1.3-2.2v-2.2c0.3-0.6,0.8-1,1.4-1
	c0.8,0,1.1,1,1.1,2.6C119.8,123.4,119.4,124.8,118.6,124.8z M124.1,118.8c-0.6,0-1.1,0.5-1.4,1.2h0v-1l-0.1-0.1l-1.3,0.5l0.1,0.2
	c0.7-0.3,0.7-0.1,0.7,0.6v3.9c0,0.7-0.1,0.9-0.8,0.9v0.2h2.5v-0.3c-1,0-1.2-0.1-1.2-0.9v-3.4c0.3-0.8,0.6-1.1,0.9-1.1
	c0.1,0,0.2,0,0.3,0.2c0.1,0.1,0.2,0.2,0.3,0.2c0.2,0,0.4-0.2,0.4-0.5C124.6,119,124.4,118.8,124.1,118.8z M127.3,125.3
	c1.4,0,2.2-1.5,2.2-3.3c0-1.8-0.9-3.2-2.2-3.2c-1.4,0-2.2,1.5-2.2,3.3C125.1,123.9,126,125.3,127.3,125.3z M127.4,124.9
	c-1.1,0-1.7-1.7-1.7-3.3c0-1.2,0.4-2.4,1.4-2.4c1.1,0,1.7,1.7,1.7,3.3C128.8,123.7,128.4,124.9,127.4,124.9z M132.4,123.9
	L132.4,123.9l-1.2-3.9c-0.2-0.7-0.2-0.8,0.6-0.8V119h-2.2v0.2c0.5,0,0.7,0.1,0.9,0.8l1.5,5.2h0.4l1.5-5.2c0.2-0.7,0.4-0.8,0.9-0.8
	V119H133v0.2c0.8,0,0.8,0.1,0.6,0.8L132.4,123.9z M136.2,117.4c0.3,0,0.6-0.2,0.6-0.5c0-0.3-0.2-0.5-0.6-0.5c-0.3,0-0.6,0.2-0.6,0.5
	C135.6,117.1,135.9,117.4,136.2,117.4z M136.6,118.9l-0.1-0.1l-0.4,0.2l-0.8,0.3l0.1,0.2c0.7-0.3,0.7-0.1,0.7,0.6v3.9
	c0,0.7-0.1,0.9-0.8,0.9v0.2h2.2v-0.2c-0.7,0-0.8-0.2-0.8-0.9V118.9z M142.6,124.5c-0.7,0.3-0.7,0.2-0.7-0.6v-8.3l-0.1-0.1l-1.3,0.6
	l0.1,0.2c0.7-0.3,0.7-0.2,0.7,0.5v2.5h0c-0.3-0.4-0.7-0.6-1.2-0.6c-1.3,0-1.9,1.6-1.9,3.4c0,1.7,0.6,3.1,1.7,3.1
	c0.7,0,1.2-0.4,1.5-1.1h0v0.9l0.2,0.1l1.3-0.6L142.6,124.5z M140,124.7c-0.8,0-1.2-1.2-1.2-2.7c0-1.4,0.3-2.7,1.3-2.7
	c0.8,0,1.2,0.9,1.2,2.1v2.3C141,124.2,140.7,124.7,140,124.7z M146.9,122.6c-0.3,1.6-0.9,2-1.4,2c-0.9,0-1.4-1.3-1.4-2.8v-0.2h3
	c0-1.7-0.6-2.9-1.8-2.9c-1.2,0-1.9,1.5-1.9,3.4c0,1.8,0.7,3.2,1.9,3.2c0.9,0,1.7-0.8,1.9-2.6H146.9z M145.3,119.2
	c0.8,0,1.1,1.1,1.1,2.1h-2.3C144.2,120.1,144.6,119.2,145.3,119.2z M151.2,127.8c1,0,1.4-1.3,1.9-2.9l1.4-4.9
	c0.2-0.7,0.4-0.8,0.8-0.8V119h-1.8v0.2c0.8,0,0.8,0.1,0.6,0.8l-1,3.9h0l-1.1-3.9c-0.2-0.7-0.2-0.8,0.6-0.8V119h-2.2v0.2
	c0.5,0,0.7,0.1,0.9,0.8l1.5,4.8c0,0.3,0,0.6-0.1,0.8c-0.3,1-0.6,1.6-0.9,1.6c-0.2,0-0.3-0.1-0.4-0.3c-0.1-0.2-0.2-0.3-0.5-0.3
	c-0.2,0-0.4,0.2-0.4,0.4C150.3,127.5,150.7,127.8,151.2,127.8z M157.5,125.3c1.4,0,2.2-1.5,2.2-3.3c0-1.8-0.9-3.2-2.2-3.2
	c-1.4,0-2.2,1.5-2.2,3.3C155.3,123.9,156.2,125.3,157.5,125.3z M157.7,124.9c-1.1,0-1.7-1.7-1.7-3.3c0-1.2,0.4-2.4,1.4-2.4
	c1.1,0,1.7,1.7,1.7,3.3C159,123.7,158.6,124.9,157.7,124.9z M164,125.3l0.3-0.2l0.9-0.4l-0.1-0.2c-0.7,0.3-0.7,0.2-0.7-0.6V119
	l-0.1-0.1l-1.3,0.5l0.1,0.2c0.7-0.2,0.7-0.1,0.7,0.6v3.6c-0.4,0.5-0.9,0.9-1.5,0.9c-0.5,0-0.7-0.3-0.7-1.1V119l-0.1-0.1l-1.3,0.5
	l0.1,0.2c0.7-0.2,0.7-0.1,0.7,0.6v3.5c0,0.9,0.3,1.6,1.1,1.6c0.7,0,1.3-0.5,1.7-1.1l0,0l0,0.9L164,125.3z M168.8,118.8
	c-0.6,0-1.1,0.5-1.4,1.2h0v-1l-0.1-0.1l-1.3,0.5l0.1,0.2c0.7-0.3,0.7-0.1,0.7,0.6v3.9c0,0.7-0.1,0.9-0.8,0.9v0.2h2.5v-0.3
	c-1,0-1.2-0.1-1.2-0.9v-3.4c0.3-0.8,0.6-1.1,0.9-1.1c0.1,0,0.2,0,0.3,0.2c0.1,0.1,0.2,0.2,0.3,0.2c0.2,0,0.4-0.2,0.4-0.5
	C169.3,119,169.1,118.8,168.8,118.8z M177,124.5c-0.7,0.3-0.7,0.2-0.7-0.6v-8.3l-0.1-0.1l-1.3,0.6l0.1,0.2c0.7-0.3,0.7-0.2,0.7,0.5
	v2.5h0c-0.3-0.4-0.7-0.6-1.2-0.6c-1.3,0-1.9,1.6-1.9,3.4c0,1.7,0.6,3.1,1.7,3.1c0.7,0,1.2-0.4,1.5-1.1h0v0.9l0.2,0.1l1.3-0.6
	L177,124.5z M174.4,124.7c-0.8,0-1.2-1.2-1.2-2.7c0-1.4,0.3-2.7,1.3-2.7c0.8,0,1.2,0.9,1.2,2.1v2.3
	C175.4,124.2,175,124.7,174.4,124.7z M182.1,123.9c0,0.8-0.2,1-0.4,1c-0.2,0-0.3-0.1-0.3-0.8v-3.6c0-1.2-0.6-1.8-1.5-1.8
	c-1,0-1.7,0.7-1.7,1.5c0,0.4,0.2,0.6,0.5,0.6c0.3,0,0.4-0.2,0.4-0.4c0-0.2-0.2-0.3-0.2-0.6c0-0.4,0.4-0.7,0.9-0.7c0.6,0,1,0.4,1,1.4
	v0.7c-1.3,0.6-2.9,1.3-2.9,2.7c0,0.7,0.4,1.3,1.2,1.3c0.8,0,1.4-0.6,1.7-1.7v0.5c0,0.9,0.3,1.3,0.8,1.3c0.6,0,0.8-0.6,0.8-1.4H182.1
	z M179.2,124.7c-0.5,0-0.7-0.4-0.7-0.9c0-1.1,1.1-1.7,2.2-2.2v1.4C180.3,124.2,179.7,124.7,179.2,124.7z M183.7,117.4
	c0.3,0,0.6-0.2,0.6-0.5c0-0.3-0.2-0.5-0.6-0.5c-0.3,0-0.6,0.2-0.6,0.5C183.2,117.1,183.4,117.4,183.7,117.4z M184.2,118.9l-0.1-0.1
	l-0.4,0.2l-0.8,0.3l0.1,0.2c0.7-0.3,0.7-0.1,0.7,0.6v3.9c0,0.7-0.1,0.9-0.8,0.9v0.2h2.2v-0.2c-0.7,0-0.8-0.2-0.8-0.9V118.9z
	 M187,115.7l-0.1-0.1l-0.4,0.2l-0.9,0.4l0.1,0.2c0.7-0.3,0.7-0.2,0.7,0.5v7.1c0,0.7-0.1,0.9-0.8,0.9v0.2h2.2v-0.2
	c-0.7,0-0.8-0.2-0.8-0.9V115.7z M188.8,127.8c1,0,1.4-1.3,1.9-2.9l1.4-4.9c0.2-0.7,0.4-0.8,0.8-0.8V119h-1.8v0.2
	c0.8,0,0.8,0.1,0.6,0.8l-1,3.9h0l-1.1-3.9c-0.2-0.7-0.2-0.8,0.6-0.8V119h-2.2v0.2c0.5,0,0.7,0.1,0.9,0.8l1.5,4.8
	c0,0.3,0,0.6-0.1,0.8c-0.3,1-0.6,1.6-0.9,1.6c-0.2,0-0.3-0.1-0.4-0.3c-0.1-0.2-0.2-0.3-0.5-0.3s-0.4,0.2-0.4,0.4
	C187.9,127.5,188.3,127.8,188.8,127.8z M20.5,139.5c-0.7,0.3-0.7,0.2-0.7-0.6v-8.3l-0.1-0.1l-1.3,0.6l0.1,0.2
	c0.7-0.3,0.7-0.2,0.7,0.5v2.5h0c-0.3-0.4-0.7-0.6-1.2-0.6c-1.3,0-1.9,1.6-1.9,3.4c0,1.7,0.6,3.1,1.7,3.1c0.7,0,1.2-0.4,1.5-1.1h0
	v0.9l0.2,0.1l1.3-0.6L20.5,139.5z M17.9,139.7c-0.8,0-1.2-1.2-1.2-2.7c0-1.4,0.3-2.7,1.3-2.7c0.8,0,1.2,0.9,1.2,2.1v2.3
	C18.9,139.2,18.5,139.7,17.9,139.7z M23.4,140.3c1.4,0,2.2-1.5,2.2-3.3c0-1.8-0.9-3.2-2.2-3.2c-1.4,0-2.2,1.5-2.2,3.3
	C21.2,138.9,22.1,140.3,23.4,140.3z M23.6,139.9c-1.1,0-1.7-1.7-1.7-3.3c0-1.2,0.4-2.4,1.4-2.4c1.1,0,1.7,1.7,1.7,3.3
	C24.9,138.7,24.5,139.9,23.6,139.9z M28.3,140.3c0.8,0,1.4-0.5,1.4-1.6c0-0.8-0.5-1.3-1.5-2.2c-0.8-0.6-1.1-0.9-1.1-1.5
	c0-0.5,0.4-0.9,0.9-0.9c0.8,0,1.2,0.7,1.3,1.6h0.2l0-2h-0.2l0,0.2c0,0.1-0.1,0.2-0.3,0.1c-0.2-0.2-0.5-0.4-1-0.4
	c-0.8,0-1.4,0.6-1.4,1.4c0,0.6,0.3,1,1.3,1.8c1.1,0.9,1.3,1.2,1.3,1.8c0,0.7-0.3,1.1-0.9,1.1c-0.7,0-1.4-0.7-1.5-2.2h-0.2l0.1,2.4
	h0.2l0.1-0.2c0.1-0.1,0.2-0.2,0.3-0.1C27.4,140,27.8,140.3,28.3,140.3z M34.2,137.6c-0.3,1.6-0.9,2-1.4,2c-0.9,0-1.4-1.3-1.4-2.8
	v-0.2h3c0-1.7-0.6-2.9-1.8-2.9c-1.2,0-1.9,1.5-1.9,3.4c0,1.8,0.7,3.2,1.9,3.2c0.9,0,1.7-0.8,1.9-2.6H34.2z M32.6,134.2
	c0.8,0,1.1,1.1,1.1,2.1h-2.3C31.4,135.1,31.8,134.2,32.6,134.2z M40.1,140.3c1.4,0,2.2-1.5,2.2-3.3c0-1.8-0.9-3.2-2.2-3.2
	c-1.4,0-2.2,1.5-2.2,3.3C37.9,138.9,38.8,140.3,40.1,140.3z M40.2,139.9c-1.1,0-1.7-1.7-1.7-3.3c0-1.2,0.4-2.4,1.4-2.4
	c1.1,0,1.7,1.7,1.7,3.3C41.6,138.7,41.2,139.9,40.2,139.9z M45.6,130.5c-0.9,0-1.7,0.7-1.7,2.4v1.1l-0.8,0.1v0.3h0.8v4.6
	c0,0.7-0.1,0.9-0.8,0.9v0.2h2.6v-0.2c-1,0-1.1-0.2-1.1-0.9v-4.6h1.3V134h-1.3v-1.2c0-1.4,0.4-1.9,0.9-1.9c0.2,0,0.3,0.1,0.5,0.4
	c0.2,0.2,0.3,0.4,0.5,0.4c0.3,0,0.4-0.2,0.4-0.4C46.9,130.9,46.3,130.5,45.6,130.5z M51.8,133.8c-0.6,0-1.1,0.4-1.5,1.2h0v-1
	l-0.1-0.1l-1.3,0.5l0.1,0.2c0.7-0.3,0.7-0.1,0.7,0.6v6.4c0,0.7-0.1,0.9-0.8,0.9v0.2H51v-0.2c-0.7,0-0.8-0.1-0.8-0.9v-2.2h0
	c0.3,0.6,0.8,0.9,1.3,0.9c1.3,0,1.8-1.7,1.8-3.4C53.4,135.1,52.9,133.8,51.8,133.8z M51.5,139.8c-0.7,0-1.3-0.9-1.3-2.2v-2.2
	c0.3-0.6,0.8-1,1.4-1c0.8,0,1.1,1,1.1,2.6C52.7,138.4,52.3,139.8,51.5,139.8z M57,133.8c-0.6,0-1.1,0.5-1.4,1.2h0v-1l-0.1-0.1
	l-1.3,0.5l0.1,0.2c0.7-0.3,0.7-0.1,0.7,0.6v3.9c0,0.7-0.1,0.9-0.8,0.9v0.2h2.5v-0.3c-1,0-1.2-0.1-1.2-0.9v-3.4
	c0.3-0.8,0.6-1.1,0.9-1.1c0.1,0,0.2,0,0.3,0.2c0.1,0.1,0.2,0.2,0.3,0.2c0.2,0,0.4-0.2,0.4-0.5C57.5,134,57.3,133.8,57,133.8z
	 M60.2,140.3c1.4,0,2.2-1.5,2.2-3.3c0-1.8-0.9-3.2-2.2-3.2c-1.4,0-2.2,1.5-2.2,3.3C58,138.9,58.9,140.3,60.2,140.3z M60.3,139.9
	c-1.1,0-1.7-1.7-1.7-3.3c0-1.2,0.4-2.4,1.4-2.4c1.1,0,1.7,1.7,1.7,3.3C61.7,138.7,61.3,139.9,60.3,139.9z M67.2,137.2v-0.6h-3.7v0.6
	H67.2z M72.5,138.9c0,0.8-0.2,1-0.4,1c-0.2,0-0.3-0.1-0.3-0.8v-3.6c0-1.2-0.6-1.8-1.5-1.8c-1,0-1.7,0.7-1.7,1.5
	c0,0.4,0.2,0.6,0.5,0.6c0.3,0,0.4-0.2,0.4-0.4c0-0.2-0.2-0.4-0.2-0.6c0-0.4,0.4-0.7,0.9-0.7c0.6,0,1,0.4,1,1.4v0.7
	c-1.3,0.6-2.9,1.3-2.9,2.7c0,0.7,0.4,1.3,1.2,1.3c0.8,0,1.3-0.6,1.7-1.7v0.5c0,0.9,0.3,1.3,0.8,1.3c0.6,0,0.8-0.6,0.8-1.4H72.5z
	 M69.6,139.7c-0.5,0-0.7-0.4-0.7-0.9c0-1.1,1.1-1.7,2.2-2.2v1.4C70.7,139.2,70.1,139.7,69.6,139.7z M75.2,140.3
	c0.9,0,1.7-0.8,1.8-2.7h-0.2c-0.2,1.6-0.8,2.1-1.3,2.1c-0.9,0-1.4-1.3-1.4-2.8c0-1.3,0.4-2.7,1.4-2.7c0.4,0,0.7,0.2,0.7,0.7
	c0,0.2-0.1,0.5-0.1,0.6c0,0.2,0.1,0.4,0.4,0.4c0.3,0,0.5-0.2,0.5-0.7c0-0.8-0.5-1.4-1.4-1.4c-1.3,0-2.1,1.5-2.1,3.3
	C73.3,138.9,73.9,140.3,75.2,140.3z M80.5,137.6c0,1.5-0.3,2.1-0.8,2.1c-0.6,0-0.7-0.8-0.7-1.9v-3.4h1.4V134h-1.4v-1.6h-0.3
	c0,1-0.4,1.7-1.2,1.7v0.3h0.8v3.8c0,1.5,0.4,2.1,1.2,2.1c1,0,1.3-1,1.3-2.7H80.5z M82.3,132.4c0.3,0,0.6-0.2,0.6-0.5
	c0-0.3-0.2-0.5-0.6-0.5c-0.3,0-0.6,0.2-0.6,0.5C81.7,132.1,81.9,132.4,82.3,132.4z M82.7,133.9l-0.1-0.1l-0.4,0.2l-0.8,0.3l0.1,0.2
	c0.7-0.3,0.7-0.1,0.7,0.6v3.9c0,0.7-0.1,0.9-0.8,0.9v0.2h2.2v-0.2c-0.7,0-0.8-0.2-0.8-0.9V133.9z M86.2,138.9L86.2,138.9L85,135
	c-0.2-0.7-0.2-0.8,0.6-0.8V134h-2.2v0.2c0.5,0,0.7,0.1,0.9,0.8l1.5,5.2h0.4l1.5-5.2c0.2-0.7,0.4-0.8,0.9-0.8V134h-1.9v0.2
	c0.8,0,0.8,0.1,0.6,0.8L86.2,138.9z M92.3,137.6c-0.3,1.6-0.9,2-1.4,2c-0.9,0-1.4-1.3-1.4-2.8v-0.2h3c0-1.7-0.6-2.9-1.8-2.9
	c-1.2,0-1.9,1.5-1.9,3.4c0,1.8,0.7,3.2,1.9,3.2c0.9,0,1.7-0.8,1.9-2.6H92.3z M90.7,134.2c0.8,0,1.1,1.1,1.1,2.1h-2.3
	C89.6,135.1,89.9,134.2,90.7,134.2z M100.2,138.9c0,0.8-0.2,1-0.4,1c-0.2,0-0.3-0.1-0.3-0.8v-3.6c0-1.2-0.6-1.8-1.5-1.8
	c-1,0-1.7,0.7-1.7,1.5c0,0.4,0.2,0.6,0.5,0.6c0.3,0,0.4-0.2,0.4-0.4c0-0.2-0.2-0.4-0.2-0.6c0-0.4,0.4-0.7,0.9-0.7c0.6,0,1,0.4,1,1.4
	v0.7c-1.3,0.6-2.9,1.3-2.9,2.7c0,0.7,0.4,1.3,1.2,1.3c0.8,0,1.3-0.6,1.7-1.7v0.5c0,0.9,0.3,1.3,0.8,1.3c0.6,0,0.8-0.6,0.8-1.4H100.2
	z M97.3,139.7c-0.5,0-0.7-0.4-0.7-0.9c0-1.1,1.1-1.7,2.2-2.2v1.4C98.4,139.2,97.9,139.7,97.3,139.7z M103.5,137.6
	c0,1.5-0.3,2.1-0.8,2.1c-0.6,0-0.7-0.8-0.7-1.9v-3.4h1.4V134H102v-1.6h-0.3c0,1-0.4,1.7-1.2,1.7v0.3h0.8v3.8c0,1.5,0.4,2.1,1.2,2.1
	c1,0,1.3-1,1.3-2.7H103.5z M107.3,137.6c0,1.5-0.3,2.1-0.8,2.1c-0.6,0-0.7-0.8-0.7-1.9v-3.4h1.4V134h-1.4v-1.6h-0.3
	c0,1-0.4,1.7-1.2,1.7v0.3h0.8v3.8c0,1.5,0.4,2.1,1.2,2.1c1,0,1.3-1,1.3-2.7H107.3z M109.1,132.4c0.3,0,0.6-0.2,0.6-0.5
	c0-0.3-0.2-0.5-0.6-0.5c-0.3,0-0.6,0.2-0.6,0.5C108.6,132.1,108.8,132.4,109.1,132.4z M109.6,133.9l-0.1-0.1l-0.4,0.2l-0.8,0.3
	l0.1,0.2c0.7-0.3,0.7-0.1,0.7,0.6v3.9c0,0.7-0.1,0.9-0.8,0.9v0.2h2.2v-0.2c-0.7,0-0.8-0.2-0.8-0.9V133.9z M113.8,137.6
	c0,1.5-0.3,2.1-0.8,2.1c-0.6,0-0.7-0.8-0.7-1.9v-3.4h1.4V134h-1.4v-1.6H112c0,1-0.4,1.7-1.2,1.7v0.3h0.8v3.8c0,1.5,0.4,2.1,1.2,2.1
	c1,0,1.3-1,1.3-2.7H113.8z M118.4,140.3l0.3-0.2l0.9-0.4l-0.1-0.2c-0.7,0.3-0.7,0.2-0.7-0.6V134l-0.1-0.1l-1.3,0.5l0.1,0.2
	c0.7-0.2,0.7-0.1,0.7,0.6v3.6c-0.4,0.5-0.9,0.9-1.5,0.9c-0.5,0-0.7-0.3-0.7-1.1V134l-0.1-0.1l-1.3,0.5l0.1,0.2
	c0.7-0.2,0.7-0.1,0.7,0.6v3.5c0,0.9,0.3,1.6,1.1,1.6c0.7,0,1.3-0.5,1.7-1.1l0,0l0,0.9L118.4,140.3z M124.7,139.5
	c-0.7,0.3-0.7,0.2-0.7-0.6v-8.3l-0.1-0.1l-1.3,0.6l0.1,0.2c0.7-0.3,0.7-0.2,0.7,0.5v2.5h0c-0.3-0.4-0.7-0.6-1.2-0.6
	c-1.3,0-1.9,1.6-1.9,3.4c0,1.7,0.6,3.1,1.7,3.1c0.7,0,1.2-0.4,1.5-1.1h0v0.9l0.2,0.1l1.3-0.6L124.7,139.5z M122.1,139.7
	c-0.8,0-1.2-1.2-1.2-2.7c0-1.4,0.3-2.7,1.3-2.7c0.8,0,1.2,0.9,1.2,2.1v2.3C123.1,139.2,122.7,139.7,122.1,139.7z M129,137.6
	c-0.3,1.6-0.9,2-1.4,2c-0.9,0-1.4-1.3-1.4-2.8v-0.2h3c0-1.7-0.6-2.9-1.8-2.9c-1.2,0-1.9,1.5-1.9,3.4c0,1.8,0.7,3.2,1.9,3.2
	c0.9,0,1.7-0.8,1.9-2.6H129z M127.4,134.2c0.8,0,1.1,1.1,1.1,2.1h-2.3C126.2,135.1,126.6,134.2,127.4,134.2z M133.2,139.5
	c0.5,0.5,1.1,0.8,1.7,0.8c1.4,0,2.2-1.4,2.2-3.5c0-1.9-0.6-3-1.6-3c-0.6,0-1.2,0.4-1.6,1h0v-4.1l-0.1-0.1l-1.3,0.6l0.1,0.2
	c0.7-0.3,0.7-0.2,0.7,0.5V139.5z M133.8,135.3c0.3-0.5,0.8-0.9,1.3-0.9c0.8,0,1.3,0.9,1.3,2.6c0,1.7-0.5,2.9-1.4,2.9
	c-0.5,0-0.9-0.4-1.1-0.6V135.3z M141.4,140.3l0.3-0.2l0.9-0.4l-0.1-0.2c-0.7,0.3-0.7,0.2-0.7-0.6V134l-0.1-0.1l-1.3,0.5l0.1,0.2
	c0.7-0.2,0.7-0.1,0.7,0.6v3.6c-0.4,0.5-0.9,0.9-1.5,0.9c-0.5,0-0.7-0.3-0.7-1.1V134l-0.1-0.1l-1.3,0.5l0.1,0.2
	c0.7-0.2,0.7-0.1,0.7,0.6v3.5c0,0.9,0.3,1.6,1.1,1.6c0.7,0,1.3-0.5,1.7-1.1l0,0l0,0.9L141.4,140.3z M146,137.6
	c0,1.5-0.3,2.1-0.8,2.1c-0.6,0-0.7-0.8-0.7-1.9v-3.4h1.4V134h-1.4v-1.6h-0.3c0,1-0.4,1.7-1.2,1.7v0.3h0.8v3.8c0,1.5,0.4,2.1,1.2,2.1
	c1,0,1.3-1,1.3-2.7H146z M156.6,134h-1.8v0.2c0.8,0,0.8,0.1,0.6,0.8l-1.1,3.9h0l-0.9-3.9c-0.2-0.7-0.2-0.8,0.5-0.8V134h-1.9v0.2
	c0.4,0,0.6,0.1,0.8,0.8l0.1,0.3l-0.9,3.6h0l-1.1-3.9c-0.2-0.7-0.2-0.8,0.4-0.8V134h-1.9v0.2c0.5,0,0.7,0.1,0.9,0.8l1.4,5.2h0.4
	l1.1-4.1l1,4.1h0.4l1.4-5.2c0.2-0.7,0.4-0.8,0.8-0.8V134z M157.9,132.4c0.3,0,0.6-0.2,0.6-0.5c0-0.3-0.2-0.5-0.6-0.5
	c-0.3,0-0.6,0.2-0.6,0.5C157.3,132.1,157.6,132.4,157.9,132.4z M158.3,133.9l-0.1-0.1l-0.4,0.2l-0.8,0.3l0.1,0.2
	c0.7-0.3,0.7-0.1,0.7,0.6v3.9c0,0.7-0.1,0.9-0.8,0.9v0.2h2.2v-0.2c-0.7,0-0.8-0.2-0.8-0.9V133.9z M162.6,137.6
	c0,1.5-0.3,2.1-0.8,2.1c-0.6,0-0.7-0.8-0.7-1.9v-3.4h1.4V134h-1.4v-1.6h-0.3c0,1-0.4,1.7-1.2,1.7v0.3h0.8v3.8c0,1.5,0.4,2.1,1.2,2.1
	c1,0,1.3-1,1.3-2.7H162.6z M164.8,135.3c0.5-0.5,0.9-0.9,1.5-0.9c0.5,0,0.8,0.3,0.8,1v3.6c0,0.7-0.1,0.9-0.7,0.9v0.2h2.1v-0.2
	c-0.7,0-0.8-0.2-0.8-0.9v-3.6c0-0.9-0.3-1.6-1.2-1.6c-0.7,0-1.2,0.5-1.7,1.1h0v-4.2l-0.1-0.1l-0.4,0.2l-0.9,0.4l0.1,0.2
	c0.7-0.3,0.7-0.2,0.7,0.5l0,7.1c0,0.7-0.1,0.9-0.8,0.9v0.2h2.1v-0.2c-0.7,0-0.7-0.2-0.7-0.9V135.3z M175.9,138.9c0,0.8-0.2,1-0.4,1
	c-0.2,0-0.3-0.1-0.3-0.8v-3.6c0-1.2-0.6-1.8-1.5-1.8c-1,0-1.7,0.7-1.7,1.5c0,0.4,0.2,0.6,0.5,0.6c0.3,0,0.4-0.2,0.4-0.4
	c0-0.2-0.2-0.4-0.2-0.6c0-0.4,0.4-0.7,0.9-0.7c0.6,0,1,0.4,1,1.4v0.7c-1.3,0.6-2.9,1.3-2.9,2.7c0,0.7,0.4,1.3,1.2,1.3
	c0.8,0,1.3-0.6,1.7-1.7v0.5c0,0.9,0.3,1.3,0.8,1.3c0.6,0,0.8-0.6,0.8-1.4H175.9z M173,139.7c-0.5,0-0.7-0.4-0.7-0.9
	c0-1.1,1.1-1.7,2.2-2.2v1.4C174.1,139.2,173.5,139.7,173,139.7z M17.8,155.3c0.8,0,1.4-0.5,1.4-1.6c0-0.8-0.5-1.3-1.5-2.2
	c-0.8-0.6-1.1-0.9-1.1-1.5c0-0.5,0.4-0.9,0.9-0.9c0.8,0,1.2,0.7,1.3,1.6H19l0-2h-0.2l0,0.2c0,0.1-0.1,0.2-0.3,0.1
	c-0.2-0.2-0.5-0.4-1-0.4c-0.8,0-1.4,0.6-1.4,1.4c0,0.6,0.3,1,1.3,1.8c1.1,0.9,1.3,1.2,1.3,1.8c0,0.7-0.3,1.1-0.9,1.1
	c-0.7,0-1.4-0.7-1.5-2.2h-0.2l0.1,2.4h0.2l0.1-0.2c0.1-0.1,0.2-0.2,0.3-0.1C16.8,155,17.2,155.3,17.8,155.3z M22.8,152.6
	c0,1.5-0.3,2.1-0.8,2.1c-0.6,0-0.7-0.8-0.7-1.9v-3.4h1.4V149h-1.4v-1.6H21c0,1-0.4,1.7-1.2,1.7v0.3h0.8v3.8c0,1.5,0.4,2.1,1.2,2.1
	c1,0,1.3-1,1.3-2.7H22.8z M26.5,148.8c-0.6,0-1.1,0.5-1.4,1.2h0v-1l-0.1-0.1l-1.3,0.5l0.1,0.2c0.7-0.3,0.7-0.1,0.7,0.6v3.9
	c0,0.7-0.1,0.9-0.8,0.9v0.2h2.5v-0.3c-1,0-1.2-0.1-1.2-0.9v-3.4c0.3-0.8,0.6-1.1,0.9-1.1c0.1,0,0.2,0,0.3,0.2
	c0.1,0.1,0.2,0.2,0.3,0.2c0.2,0,0.4-0.2,0.4-0.5C27,149,26.8,148.8,26.5,148.8z M29.7,155.3c1.4,0,2.2-1.5,2.2-3.3
	c0-1.8-0.9-3.2-2.2-3.2c-1.4,0-2.2,1.5-2.2,3.3C27.5,153.9,28.4,155.3,29.7,155.3z M29.8,154.9c-1.1,0-1.7-1.7-1.7-3.3
	c0-1.2,0.4-2.4,1.4-2.4c1.1,0,1.7,1.7,1.7,3.3C31.2,153.7,30.8,154.9,29.8,154.9z M32.6,155.1h2.1v-0.2c-0.7,0-0.7-0.2-0.7-0.9v-3.7
	c0.5-0.5,0.9-0.9,1.5-0.9c0.5,0,0.8,0.3,0.8,1v3.6c0,0.7-0.1,0.9-0.7,0.9v0.2h2.1v-0.2c-0.7,0-0.7-0.2-0.7-0.9v-3.6
	c0-0.9-0.3-1.6-1.2-1.6c-0.7,0-1.2,0.5-1.7,1.1h0v-1l-0.2-0.1l-1.3,0.5l0.1,0.2c0.7-0.3,0.7-0.2,0.7,0.6v3.9c0,0.7-0.1,0.9-0.8,0.9
	V155.1z M40.1,154.4c-1.1,0-1.2-0.3-1.2-0.6c0-0.3,0.2-0.5,0.5-0.7c0.3,0.2,0.6,0.2,0.9,0.2c1.1,0,1.9-0.9,1.9-2.2
	c0-0.7-0.2-1.4-0.7-1.8c0.3-0.1,0.6,0,1,0c0.3,0,0.4-0.1,0.4-0.3c0-0.2-0.1-0.3-0.3-0.3c-0.4,0-0.8,0.1-1.3,0.3
	c-0.3-0.2-0.6-0.3-1-0.3c-1.1,0-1.9,0.9-1.9,2.3c0,0.8,0.3,1.4,0.7,1.8c-0.4,0.3-0.8,0.7-0.8,1.2c0,0.4,0.2,0.7,0.6,0.8
	c-0.6,0.4-1.2,0.8-1.2,1.5c0,1,1,1.4,2.1,1.4c1.8,0,3-1.2,3-2.3c0-0.9-0.5-1.1-1.7-1.1H40.1z M40.2,149.2c0.9,0,1.3,1.2,1.3,2.2
	c0,0.9-0.3,1.5-1.1,1.5c-1,0-1.3-1.2-1.3-2.1C39.1,149.9,39.4,149.2,40.2,149.2z M40.1,157.3c-1.2,0-1.7-0.5-1.7-1.1
	c0-0.5,0.4-0.9,1-1.3c0.2,0,0.4,0,0.7,0h1.2c0.9,0,1.2,0.1,1.2,0.7C42.5,156.5,41.6,157.3,40.1,157.3z M47.2,145.7l-0.1-0.1
	l-0.4,0.2l-0.9,0.4l0.1,0.2c0.7-0.3,0.7-0.2,0.7,0.5v7.1c0,0.7-0.1,0.9-0.8,0.9v0.2H48v-0.2c-0.7,0-0.8-0.2-0.8-0.9V145.7z
	 M52.9,153.9c0,0.8-0.2,1-0.4,1c-0.2,0-0.3-0.1-0.3-0.8v-3.6c0-1.2-0.6-1.8-1.5-1.8c-1,0-1.7,0.7-1.7,1.5c0,0.4,0.2,0.6,0.5,0.6
	c0.3,0,0.4-0.2,0.4-0.4c0-0.2-0.2-0.4-0.2-0.6c0-0.4,0.4-0.7,0.9-0.7c0.6,0,1,0.4,1,1.4v0.7c-1.3,0.6-2.9,1.3-2.9,2.7
	c0,0.7,0.4,1.3,1.2,1.3c0.8,0,1.3-0.6,1.7-1.7v0.5c0,0.9,0.3,1.3,0.8,1.3c0.6,0,0.8-0.6,0.8-1.4H52.9z M50,154.7
	c-0.5,0-0.7-0.4-0.7-0.9c0-1.1,1.1-1.7,2.2-2.2v1.4C51.1,154.2,50.5,154.7,50,154.7z M55.5,155.3c0.9,0,1.7-0.8,1.8-2.7H57
	c-0.2,1.6-0.8,2.1-1.3,2.1c-0.9,0-1.4-1.3-1.4-2.8c0-1.3,0.4-2.7,1.4-2.7c0.4,0,0.7,0.2,0.7,0.7c0,0.2-0.1,0.5-0.1,0.6
	c0,0.2,0.1,0.4,0.4,0.4c0.3,0,0.5-0.2,0.5-0.7c0-0.8-0.5-1.4-1.4-1.4c-1.3,0-2.1,1.5-2.1,3.3C53.6,153.9,54.3,155.3,55.5,155.3z
	 M59.2,145.7l-0.1-0.1l-0.4,0.2l-0.9,0.4l0.1,0.2c0.7-0.3,0.7-0.2,0.7,0.5v7.1c0,0.7-0.1,0.9-0.8,0.9v0.2h2.2v-0.2
	c-0.7,0-0.7-0.2-0.7-0.9V145.7z M60.1,151.4l1.2-1.5c0.4-0.6,0.8-0.6,1.2-0.6V149h-2.2v0.2c0.6,0,0.8,0.2,0.4,0.7l-1.3,1.7l1.5,2.6
	c0.4,0.6,0.5,0.7-0.3,0.7v0.2h2.2v-0.2c-0.5,0-0.7-0.1-1.1-0.7L60.1,151.4z M68,155.3c1.4,0,2.2-1.5,2.2-3.3c0-1.8-0.9-3.2-2.2-3.2
	c-1.4,0-2.2,1.5-2.2,3.3C65.8,153.9,66.7,155.3,68,155.3z M68.2,154.9c-1.1,0-1.7-1.7-1.7-3.3c0-1.2,0.4-2.4,1.4-2.4
	c1.1,0,1.7,1.7,1.7,3.3C69.5,153.7,69.1,154.9,68.2,154.9z M73.5,145.5c-0.9,0-1.7,0.7-1.7,2.4v1.1l-0.8,0.1v0.3h0.8v4.6
	c0,0.7-0.1,0.9-0.8,0.9v0.2h2.6v-0.2c-1,0-1.1-0.2-1.1-0.9v-4.6h1.3V149h-1.3v-1.2c0-1.4,0.4-1.9,0.9-1.9c0.2,0,0.3,0.1,0.5,0.4
	c0.2,0.2,0.3,0.4,0.5,0.4c0.3,0,0.4-0.2,0.4-0.4C74.8,145.9,74.3,145.5,73.5,145.5z M80.5,152.6c-0.3,1.6-0.9,2-1.4,2
	c-0.9,0-1.4-1.3-1.4-2.8v-0.2h3c0-1.7-0.6-2.9-1.8-2.9c-1.2,0-1.9,1.5-1.9,3.4c0,1.8,0.7,3.2,1.9,3.2c0.9,0,1.7-0.8,1.9-2.6H80.5z
	 M79,149.2c0.8,0,1.1,1.1,1.1,2.1h-2.3C77.8,150.1,78.2,149.2,79,149.2z M83.7,153.9L83.7,153.9l-1.2-3.9c-0.2-0.7-0.2-0.8,0.6-0.8
	V149H81v0.2c0.5,0,0.7,0.1,0.9,0.8l1.5,5.2h0.4l1.5-5.2c0.2-0.7,0.4-0.8,0.9-0.8V149h-1.9v0.2c0.8,0,0.8,0.1,0.6,0.8L83.7,153.9z
	 M87.5,147.4c0.3,0,0.6-0.2,0.6-0.5c0-0.3-0.2-0.5-0.6-0.5c-0.3,0-0.6,0.2-0.6,0.5C86.9,147.1,87.2,147.4,87.5,147.4z M88,148.9
	l-0.1-0.1l-0.4,0.2l-0.8,0.3l0.1,0.2c0.7-0.3,0.7-0.1,0.7,0.6v3.9c0,0.7-0.1,0.9-0.8,0.9v0.2h2.2v-0.2c-0.7,0-0.8-0.2-0.8-0.9V148.9
	z M94,154.5c-0.7,0.3-0.7,0.2-0.7-0.6v-8.3l-0.1-0.1l-1.3,0.6l0.1,0.2c0.7-0.3,0.7-0.2,0.7,0.5v2.5h0c-0.3-0.4-0.7-0.6-1.2-0.6
	c-1.3,0-1.9,1.6-1.9,3.4c0,1.7,0.6,3.1,1.7,3.1c0.7,0,1.2-0.4,1.5-1.1h0v0.9l0.2,0.1l1.3-0.6L94,154.5z M91.4,154.7
	c-0.8,0-1.2-1.2-1.2-2.7c0-1.4,0.3-2.7,1.3-2.7c0.8,0,1.2,0.9,1.2,2.1v2.3C92.4,154.2,92,154.7,91.4,154.7z M98.2,152.6
	c-0.3,1.6-0.9,2-1.4,2c-0.9,0-1.4-1.3-1.4-2.8v-0.2h3c0-1.7-0.6-2.9-1.8-2.9c-1.2,0-1.9,1.5-1.9,3.4c0,1.8,0.7,3.2,1.9,3.2
	c0.9,0,1.7-0.8,1.9-2.6H98.2z M96.7,149.2c0.8,0,1.1,1.1,1.1,2.1h-2.3C95.5,150.1,95.9,149.2,96.7,149.2z M99.3,155.1h2.1v-0.2
	c-0.7,0-0.7-0.2-0.7-0.9v-3.7c0.5-0.5,0.9-0.9,1.5-0.9c0.5,0,0.8,0.3,0.8,1v3.6c0,0.7-0.1,0.9-0.7,0.9v0.2h2.1v-0.2
	c-0.7,0-0.7-0.2-0.7-0.9v-3.6c0-0.9-0.3-1.6-1.2-1.6c-0.7,0-1.2,0.5-1.7,1.1h0v-1l-0.2-0.1l-1.3,0.5l0.1,0.2
	c0.7-0.3,0.7-0.2,0.7,0.6v3.9c0,0.7-0.1,0.9-0.8,0.9V155.1z M106.8,155.3c0.9,0,1.7-0.8,1.8-2.7h-0.2c-0.2,1.6-0.8,2.1-1.3,2.1
	c-0.9,0-1.4-1.3-1.4-2.8c0-1.3,0.4-2.7,1.4-2.7c0.4,0,0.7,0.2,0.7,0.7c0,0.2-0.1,0.5-0.1,0.6c0,0.2,0.1,0.4,0.4,0.4
	c0.3,0,0.5-0.2,0.5-0.7c0-0.8-0.5-1.4-1.4-1.4c-1.3,0-2.1,1.5-2.1,3.3C104.9,153.9,105.6,155.3,106.8,155.3z M112.8,152.6
	c-0.3,1.6-0.9,2-1.4,2c-0.9,0-1.4-1.3-1.4-2.8v-0.2h3c0-1.7-0.6-2.9-1.8-2.9c-1.2,0-1.9,1.5-1.9,3.4c0,1.8,0.7,3.2,1.9,3.2
	c0.9,0,1.7-0.8,1.9-2.6H112.8z M111.3,149.2c0.8,0,1.1,1.1,1.1,2.1H110C110.1,150.1,110.5,149.2,111.3,149.2z M114.3,155.3
	c0.3,0,0.5-0.2,0.5-0.5c0-0.3-0.2-0.5-0.5-0.5c-0.3,0-0.5,0.2-0.5,0.5C113.7,155,114,155.3,114.3,155.3z M116.6,146.5
	c0.2,0,0.3-0.2,0.4-0.2c0.1,0,0.1,0.1,0.1,0.2c0,0.3-0.3,0.7-0.8,0.9v0.3c0.9-0.3,1.1-0.9,1.1-1.3c0-0.5-0.3-0.9-0.7-0.9
	c-0.4,0-0.6,0.2-0.6,0.6C116.1,146.3,116.3,146.5,116.6,146.5z M118.4,146.5c0.2,0,0.3-0.2,0.4-0.2c0.1,0,0.1,0.1,0.1,0.2
	c0,0.3-0.3,0.7-0.8,0.9v0.3c0.9-0.3,1.1-0.9,1.1-1.3c0-0.5-0.3-0.9-0.7-0.9c-0.4,0-0.6,0.2-0.6,0.6
	C118,146.3,118.2,146.5,118.4,146.5z"/>
<path d="M16.3,174.4v0.9h1.8v6.4h-1.8v0.9H21v-0.9h-1.8v-6.4H21v-0.9H16.3z M22.7,182.6h1.1v-7.8l4.2,7.8h2v-8.2h-1v7.8l-4.2-7.8h-2
	V182.6z M35.2,182.8c1.9,0,2.7-1.1,2.9-1.8v1.6h1.1v-3.7c0-0.5-0.2-0.7-0.7-0.7h-3.5v0.8h3.2c0.1,1.8-0.9,2.8-2.7,2.8
	c-2.1,0-2.8-1.5-2.8-3.2c0-2,1-3.4,2.9-3.4c1.4,0,2.3,0.8,2.5,2.2H39c-0.3-1.9-1.6-3.1-3.6-3.1c-2.5,0-3.9,1.7-3.9,4.3
	C31.5,181,32.7,182.8,35.2,182.8z M41,182.6H42v-3.2h4.1v3.2h1v-3c0-0.5-0.2-0.9-0.8-0.9h-0.6c0.9-0.2,1.4-0.8,1.4-2.1
	c0-1.8-1.3-2.2-3.2-2.2h-3V182.6z M42,178.5v-3.1h2c1.3,0,2.2,0.1,2.2,1.6c0,1.4-0.8,1.6-2.2,1.6H42z M49,182.6h5.7v-0.9H50V179h4.1
	v-0.9H50v-2.7h4.6v-0.9H49V182.6z M56.2,182.6h2.6c2,0,4.2-0.6,4.2-4.1c0-3.5-2.1-4.1-4.2-4.1h-2.6V182.6z M57.2,181.7v-6.4h1.6
	c1.4,0,3.1,0.2,3.1,3.2c0,3-1.6,3.2-3.1,3.2H57.2z M63.7,174.4v0.9h1.8v6.4h-1.8v0.9h4.7v-0.9h-1.8v-6.4h1.8v-0.9H63.7z M70.1,182.6
	h5.7v-0.9h-4.6V179h4.1v-0.9h-4.1v-2.7h4.6v-0.9h-5.7V182.6z M77.3,182.6h1.1v-7.8l4.2,7.8h2v-8.2h-1v7.8l-4.2-7.8h-2V182.6z
	 M85.9,174.4v0.9h2.8v7.3h1.1v-7.3h2.8v-0.9H85.9z M100.3,180.4c0-1.1-0.7-1.9-2-2.2l-2.3-0.6c-0.9-0.2-1.2-0.7-1.2-1.3
	c0-0.8,0.6-1.2,1.8-1.2c1.5,0,2.3,0.7,2.3,2h1.1c0-1.8-1.2-2.8-3.4-2.8c-1.9,0-2.9,0.8-2.9,2.2c0,1,0.5,1.7,1.8,2.1l2.3,0.6
	c1,0.2,1.4,0.7,1.4,1.4c0,0.9-0.6,1.4-2,1.4c-1.8,0-2.8-0.7-2.8-2.3h-1.1c0,2.1,1.3,3.2,3.8,3.2C99.3,182.8,100.3,181.9,100.3,180.4
	z"/>
<line class="st1" x1="108.8" y1="179.3" x2="226.5" y2="179.3"/>
<path d="M16.4,212.9c-0.2,0.7-0.5,0.9-1.4,0.9l-0.1,0.3h3.5l0.1-0.3c-1,0-1-0.2-0.8-0.9l2.1-7c0.2-0.7,0.5-0.9,1.3-0.9l0.1-0.3h-3.5
	l-0.1,0.3c1,0,1,0.2,0.8,0.9L16.4,212.9z M20.3,208.6l3.1-2.7c0.7-0.6,1.1-0.8,1.8-0.8l0.1-0.3h-3.2l-0.1,0.3c0.6,0,0.7,0.1,0.7,0.3
	c0,0.2-0.2,0.4-0.6,0.8l-3.2,2.9l1.6,4c0.2,0.6,0.2,0.8-0.9,0.8l-0.1,0.3h3.6l0.1-0.3c-0.8,0-1.1-0.1-1.3-0.8L20.3,208.6z
	 M25.7,213.5c-0.5,0-0.9-0.4-0.9-1.1c0-0.3,0-0.6,0.1-0.9c1.6-0.2,3.2-1.3,3.2-2.6c0-0.6-0.4-1.1-1.1-1.1c-1.7,0-3.4,2.7-3.4,4.7
	c0,1.2,0.6,1.8,1.5,1.8c1.1,0,2-1,2.7-2.6h-0.3C27,212.8,26.4,213.5,25.7,213.5z M27,208.2c0.3,0,0.4,0.2,0.4,0.5
	c0,1.1-1.1,2-2.4,2.4C25.3,209.7,26.1,208.2,27,208.2z M27.5,216.7c1.4,0,2.5-1.3,3.6-3c1.5-2,2.3-3.7,2.3-4.9
	c0-0.7-0.2-1.1-0.6-1.1c-0.3,0-0.4,0.2-0.4,0.5c0,0.4,0.3,0.7,0.3,1.3c0,1-0.7,2.5-1.9,4c0.2-1.5,0.2-3.2,0.2-4.2
	c0-1.2-0.3-1.6-0.9-1.6c-0.8,0-1.3,1-1.7,2.1h0.3c0.4-0.9,0.7-1.5,0.9-1.5c0.2,0,0.3,0.2,0.3,1c0,0.9,0,3.2-0.1,5.1
	c-0.4,0.7-0.9,1.4-1.3,1.4c-0.4,0-0.5-0.4-1-0.4c-0.4,0-0.7,0.3-0.7,0.7C26.8,216.5,27,216.7,27.5,216.7z M40.6,207.7
	c-0.3,0-0.4,0.2-0.4,0.5c0,0.4,0.3,0.8,0.3,1.5c0,1.4-1.1,3.7-2,3.7c-0.4,0-0.5-0.4-0.5-0.9c0-1.2,0.8-2.3,1.2-4.1h-1.2
	c-0.1,1.8-1.3,5-2.4,5c-0.4,0-0.5-0.3-0.5-0.9c0-1.5,1.2-3.3,2.2-4.5l-0.2-0.2c0,0,0,0-0.1,0.1c-0.1,0.1-0.2,0.1-0.3,0.1
	c-0.3,0-0.9-0.1-1.2-0.1c-0.4,0-0.7,0.2-0.9,0.7c-0.2,0.3-0.2,0.6-0.2,0.8c0,0.3,0.2,0.4,0.3,0.4c0.2,0,0.3-0.2,0.3-0.3
	c0-0.3-0.3-0.4-0.3-0.6c0-0.1,0.1-0.2,0.2-0.2c0.3,0,1,0.2,1.2,0.2h0c-1.1,1.2-2.2,2.7-2.2,4.1c0,0.9,0.5,1.4,1.1,1.4
	c0.8,0,1.5-0.8,2.1-2h0.1c-0.1,0.4-0.2,0.7-0.2,0.9c0,0.7,0.4,1.1,1,1.1c1.6,0,3.3-3.6,3.3-5.6C41.2,208,41,207.7,40.6,207.7z
	 M43.2,214.3c1.7,0,3.4-2.3,3.4-4.5c0-1.2-0.7-2-1.7-2c-1.7,0-3.4,2.3-3.4,4.5C41.5,213.5,42.2,214.3,43.2,214.3z M43.3,213.8
	c-0.5,0-0.7-0.4-0.7-1.1c0-1.9,1.2-4.4,2.2-4.4c0.5,0,0.7,0.5,0.7,1.2C45.5,211.3,44.3,213.8,43.3,213.8z M48.3,214.1
	c1.5-4.3,2.4-5.3,3-5.3c0.2,0,0.4,0.1,0.6,0.1c0.3,0,0.6-0.4,0.6-0.7c0-0.3-0.2-0.4-0.4-0.4c-1,0-2,1.1-3,3.7H49l0.7-1.9
	c0.2-0.5,0.4-0.9,0.4-1.2c0-0.3-0.2-0.6-0.6-0.6c-0.8,0-1.7,0.9-2.3,2h0.3c0.4-0.7,1-1.3,1.3-1.3c0.1,0,0.2,0,0.2,0.2
	c0,0.2-0.2,0.7-0.3,1l-1.5,4.5H48.3z M56.1,213.6c-0.2,0-0.2-0.1-0.2-0.3c0-0.2,0.1-0.6,0.2-0.8l2.6-7.9l-0.1-0.1
	c-0.3,0.3-0.8,0.3-2.2,0.3l-0.1,0.3c0.8,0,1.1,0.2,0.8,0.9l-1.1,3.1h0c0-0.7-0.3-1.3-1-1.3c-1.6,0-3.5,2.9-3.5,4.9
	c0,0.9,0.4,1.6,1,1.6c1,0,2.1-1.9,2.7-3.1h0.2l-0.4,1.3c-0.2,0.5-0.3,0.8-0.3,1c0,0.4,0.2,0.7,0.8,0.7c0.9,0,1.7-1.2,2.1-2.2h-0.3
	C57,212.8,56.5,213.6,56.1,213.6z M53.1,213.4c-0.3,0-0.4-0.3-0.4-0.9c0-1.7,1.4-4.2,2.4-4.2c0.4,0,0.5,0.3,0.5,0.8
	c0,0.4-0.1,0.8-0.2,1.1C55,211.6,53.8,213.4,53.1,213.4z M62.1,209.2c0.4,0,0.8-0.4,0.8-0.8c0-0.3-0.2-0.5-0.5-0.5
	c-0.5,0-0.8,0.4-0.8,0.9C61.6,209,61.8,209.2,62.1,209.2z M60.6,214.2c0.4,0,0.8-0.4,0.8-0.8c0-0.3-0.2-0.5-0.5-0.5
	c-0.5,0-0.8,0.4-0.8,0.9C60,214,60.3,214.2,60.6,214.2z"/>
<path class="st2" d="M87.5,200.5h114.7c5.4,0,9.8,4.4,9.8,9.8v0c0,5.4-4.4,9.8-9.8,9.8H87.5c-5.4,0-9.8-4.4-9.8-9.8v0
	C77.7,204.9,82.1,200.5,87.5,200.5z"/>
<path class="st3" d="M91.5,209.1c0-0.2-0.1-0.4-0.2-0.6c-0.2-0.2-0.4-0.2-0.6-0.2 M90.7,211.6c1.4,0,2.5-1.1,2.5-2.5
	c0-1.4-1.1-2.5-2.5-2.5s-2.5,1.1-2.5,2.5c0,0.1,0,0.2,0,0.3c0,0.2,0,0.3,0,0.3c0,0.1,0,0.1,0,0.1c0,0.1-0.1,0.1-0.2,0.2l-2.2,2.2
	c-0.1,0.1-0.1,0.1-0.1,0.2c0,0,0,0.1-0.1,0.1c0,0,0,0.1,0,0.2v0.7c0,0.2,0,0.4,0,0.4c0,0.1,0.1,0.1,0.2,0.2c0.1,0,0.2,0,0.4,0h1
	v-0.8h0.8v-0.8H89l0.7-0.7c0.1-0.1,0.2-0.2,0.2-0.2c0.1,0,0.1,0,0.1,0c0.1,0,0.2,0,0.3,0C90.4,211.6,90.6,211.6,90.7,211.6z"/>
<path d="M105.7,211.2c0-1.1-0.7-1.9-2-2.2l-2.3-0.6c-0.9-0.2-1.2-0.7-1.2-1.3c0-0.8,0.6-1.2,1.8-1.2c1.5,0,2.3,0.7,2.3,2h1.1
	c0-1.8-1.2-2.8-3.4-2.8c-1.9,0-2.9,0.8-2.9,2.2c0,1,0.5,1.7,1.8,2.1l2.3,0.6c1,0.2,1.4,0.7,1.4,1.4c0,0.9-0.7,1.4-2.1,1.4
	c-1.8,0-2.7-0.7-2.7-2.3h-1.1c0,2.1,1.3,3.2,3.8,3.2C104.7,213.5,105.7,212.6,105.7,211.2z M106.8,210.3c0,2,1,3.2,3.3,3.2
	c2.3,0,3.3-1.1,3.3-3.2v-5.2h-1.1v4.9c0,1.6-0.5,2.5-2.3,2.5c-1.7,0-2.2-0.8-2.2-2.5v-4.9h-1.1V210.3z M121.6,211.2
	c0-1.1-0.7-1.9-2-2.2l-2.3-0.6c-0.9-0.2-1.2-0.7-1.2-1.3c0-0.8,0.6-1.2,1.8-1.2c1.5,0,2.3,0.7,2.3,2h1.1c0-1.8-1.2-2.8-3.4-2.8
	c-1.9,0-2.9,0.8-2.9,2.2c0,1,0.5,1.7,1.8,2.1l2.3,0.6c1,0.2,1.4,0.7,1.4,1.4c0,0.9-0.7,1.4-2.1,1.4c-1.8,0-2.7-0.7-2.7-2.3h-1.1
	c0,2.1,1.3,3.2,3.8,3.2C120.6,213.5,121.6,212.6,121.6,211.2z M122.1,205.2v0.9h2.8v7.3h1.1v-7.3h2.8v-0.9H122.1z M128.6,213.4h1.1
	l1-3.1h3.3l1,3.1h1.1l-2.6-8.2h-2.3L128.6,213.4z M130.9,209.3l1.2-3.9h0.3l1.2,3.9H130.9z M137.1,205.2v0.9h1.8v6.4h-1.8v0.9h4.7
	v-0.9H140v-6.4h1.8v-0.9H137.1z M143.4,213.4h1.1v-7.2l-0.2-0.7h0.3l3.9,7.9h2.1v-8.2h-1v7.2l0.2,0.7h-0.3l-3.9-7.9h-2.1V213.4z
	 M151.8,213.4h1.1l1-3.1h3.3l1,3.1h1.1l-2.6-8.2h-2.3L151.8,213.4z M154.2,209.3l1.2-3.9h0.3l1.2,3.9H154.2z M160.5,213.4h3.3
	c2,0,3.3-0.5,3.3-2.2c0-1.5-1-2-2.3-2v-0.3c0.8-0.1,1.7-0.5,1.7-1.7c0-1.6-1.2-2-3.2-2h-2.8V213.4z M161.6,212.5v-3h2.2
	c1.4,0,2.2,0.3,2.2,1.5c0,1.3-0.8,1.5-2.2,1.5H161.6z M161.6,208.7V206h1.8c1.3,0,2.1,0.1,2.1,1.3c0,1.2-0.8,1.3-2.1,1.3H161.6z
	 M168.2,205.2v0.9h1.8v6.4h-1.8v0.9h4.7v-0.9h-1.8v-6.4h1.8v-0.9H168.2z M175.2,213.4h4.4v-0.9h-4.1v-7.3h-1.1v7.5
	C174.5,213.1,174.8,213.4,175.2,213.4z M180.7,205.2v0.9h1.8v6.4h-1.8v0.9h4.7v-0.9h-1.8v-6.4h1.8v-0.9H180.7z M186.7,205.2v0.9h2.8
	v7.3h1.1v-7.3h2.8v-0.9H186.7z M200.2,205.2l-2.2,4.5h-0.3l-2.2-4.5h-1.1l2.4,4.7h0.5v3.5h1v-3.5h0.5l2.4-4.7H200.2z"/>
<path class="st1" d="M87.5,200.5h114.7c5.4,0,9.8,4.4,9.8,9.8v0c0,5.4-4.4,9.8-9.8,9.8H87.5c-5.4,0-9.8-4.4-9.8-9.8v0
	C77.7,204.9,82.1,200.5,87.5,200.5z"/>
<line class="st4" x1="15.7" y1="227.6" x2="226.3" y2="227.6"/>
<path d="M16.3,261h3.6l0.1-0.3c-1.1,0-1.1-0.2-0.9-0.9l2.2-7.2c0.1-0.2,0.2-0.4,0.5-0.4h0.8c0.8,0,1,0.3,0.7,1.7h0.4l0.5-2.2h-6.4
	l-0.8,2.2h0.3c0.5-1.3,0.8-1.7,1.7-1.7h0.6c0.3,0,0.4,0.2,0.3,0.4l-2.2,7.2c-0.2,0.7-0.5,0.9-1.4,0.9L16.3,261z M23.5,261.2
	c1.7,0,3.4-2.3,3.4-4.5c0-1.2-0.7-2-1.7-2c-1.7,0-3.4,2.3-3.4,4.5C21.8,260.4,22.5,261.2,23.5,261.2z M23.6,260.7
	c-0.5,0-0.7-0.4-0.7-1.1c0-1.9,1.2-4.4,2.2-4.4c0.5,0,0.7,0.5,0.7,1.2C25.8,258.2,24.6,260.7,23.6,260.7z M32.1,254.7
	c-1,0-1.8,1.5-2.4,2.7h-0.1l1.2-3.6h-1.1l-0.2,0.6v0c-0.3,1-1.2,2.6-2.4,3.3l0.2,0.2c0.7-0.5,1.3-1.3,1.7-2l-2.1,6.6
	c-0.2,0.7-0.5,0.9-1,0.9l-0.1,0.3h3l0.1-0.3c-1,0-1.1-0.2-0.9-0.9l0.6-1.8c0.3,0.3,0.7,0.5,1.1,0.5c1.7,0,3.2-2.9,3.2-4.8
	C33.1,255.2,32.7,254.7,32.1,254.7z M29.8,260.6c-0.5,0-0.7-0.5-0.7-1.1l0.2-0.6c0.5-1.5,1.6-3.4,2.3-3.4c0.3,0,0.5,0.3,0.5,0.9
	C32,258,30.8,260.6,29.8,260.6z M36.6,253.5c0.4,0,0.7-0.3,0.7-0.7c0-0.4-0.3-0.7-0.7-0.7s-0.7,0.3-0.7,0.7
	C35.8,253.2,36.1,253.5,36.6,253.5z M34.1,259.3c-0.2,0.5-0.3,0.7-0.3,1c0,0.4,0.2,0.7,0.8,0.7c1,0,1.7-1.2,2.1-2.2h-0.3
	c-0.4,0.9-0.9,1.6-1.3,1.6c-0.2,0-0.2-0.1-0.2-0.3c0-0.2,0.2-0.6,0.2-0.8l1-2.8c0.2-0.5,0.3-0.9,0.3-1.2c0-0.3-0.2-0.6-0.6-0.6
	c-0.8,0-1.7,0.9-2.3,2h0.3c0.4-0.7,1-1.4,1.3-1.4c0.1,0,0.2,0,0.2,0.2c0,0.2-0.2,0.6-0.3,1L34.1,259.3z M38.7,261.2
	c1,0,1.9-0.9,2.5-2.5h-0.3c-0.5,1-1.2,1.8-1.8,1.8c-0.5,0-0.8-0.6-0.8-1.4c0-1.6,1-4,2.1-4c0.3,0,0.5,0.2,0.5,0.4
	c0,0.6-0.6,0.6-0.6,1.1c0,0.2,0.2,0.4,0.4,0.4c0.5,0,0.8-0.7,0.8-1.3c0-0.7-0.5-1.1-1.1-1.1c-1.7,0-3.3,2.5-3.3,4.6
	C37.2,260.4,37.8,261.2,38.7,261.2z M43.2,261.2c1.1,0,2-0.8,2-1.9c0-0.6-0.2-0.9-0.7-1.6l-0.3-0.5c-0.3-0.5-0.5-0.9-0.5-1.3
	c0-0.6,0.3-0.9,0.8-0.9c0.5,0,0.6,0.3,0.7,0.6c0.1,0.3,0.2,0.5,0.4,0.5c0.3,0,0.5-0.2,0.5-0.5c0-0.4-0.5-0.9-1.4-0.9
	c-1.1,0-2.1,0.8-2.1,1.9c0,0.6,0.3,1,0.7,1.6l0.3,0.5c0.3,0.4,0.5,0.7,0.5,1.2c0,0.5-0.3,0.9-0.8,0.9c-0.5,0-0.7-0.3-1-0.8
	c-0.1-0.3-0.2-0.5-0.4-0.5c-0.3,0-0.5,0.2-0.5,0.5C41.5,260.6,42.2,261.2,43.2,261.2z M50.1,256.1c0.4,0,0.8-0.4,0.8-0.8
	c0-0.3-0.2-0.5-0.5-0.5c-0.5,0-0.8,0.4-0.8,0.8C49.6,255.9,49.8,256.1,50.1,256.1z M48.6,261.1c0.4,0,0.8-0.4,0.8-0.8
	c0-0.3-0.2-0.5-0.5-0.5c-0.5,0-0.8,0.4-0.8,0.9C48,260.9,48.2,261.1,48.6,261.1z"/>
<path class="st0" d="M87.5,235.5h43.2c5.4,0,9.8,4.4,9.8,9.8v0c0,5.4-4.4,9.8-9.8,9.8H87.5c-5.4,0-9.8-4.4-9.8-9.8v0
	C77.7,239.8,82.1,235.5,87.5,235.5z"/>
<g>
	<defs>
		<rect id="SVGID_1_" x="84.3" y="240.9" width="8.7" height="8.7"/>
	</defs>
	<clipPath id="SVGID_00000082328855645152674570000000251126493762317211_">
		<use xlink:href="#SVGID_1_"  style="overflow:visible;"/>
	</clipPath>
	<g style="clip-path:url(#SVGID_00000082328855645152674570000000251126493762317211_);">
		<path class="st6" d="M87.2,243.8L87.2,243.8 M85,242.8v1.6c0,0.2,0,0.3,0,0.4c0,0.1,0,0.1,0.1,0.2c0,0.1,0.1,0.1,0.2,0.3l2.8,2.8
			c0.4,0.4,0.6,0.6,0.9,0.7c0.2,0.1,0.5,0.1,0.7,0c0.2-0.1,0.5-0.3,0.9-0.7l0.8-0.8c0.4-0.4,0.6-0.6,0.7-0.9c0.1-0.2,0.1-0.5,0-0.7
			c-0.1-0.2-0.3-0.5-0.7-0.9l-2.8-2.8c-0.1-0.1-0.2-0.2-0.3-0.2c-0.1,0-0.1-0.1-0.2-0.1c-0.1,0-0.2,0-0.4,0h-1.6
			c-0.4,0-0.6,0-0.8,0.1c-0.1,0.1-0.2,0.2-0.3,0.3C85,242.2,85,242.4,85,242.8z M87.4,243.8c0,0.1-0.1,0.2-0.2,0.2
			c-0.1,0-0.2-0.1-0.2-0.2c0-0.1,0.1-0.2,0.2-0.2C87.3,243.6,87.4,243.7,87.4,243.8z"/>
	</g>
</g>
<path d="M97.7,248.3h1.1v-3.5h3.9v-0.9h-3.9V241h4.4v-0.9h-5.4V248.3z M104.2,244.2c0,2.4,1.4,4.2,3.9,4.2s3.9-1.8,3.9-4.2
	c0-2.4-1.4-4.2-3.9-4.2S104.2,241.8,104.2,244.2z M105.3,244.2c0-1.9,0.9-3.3,2.8-3.3c1.9,0,2.8,1.4,2.8,3.3c0,1.9-0.9,3.3-2.8,3.3
	C106.2,247.5,105.3,246.1,105.3,244.2z M113.4,244.2c0,2.4,1.4,4.2,3.9,4.2s3.9-1.8,3.9-4.2c0-2.4-1.4-4.2-3.9-4.2
	S113.4,241.8,113.4,244.2z M114.5,244.2c0-1.9,0.9-3.3,2.8-3.3s2.8,1.4,2.8,3.3c0,1.9-0.9,3.3-2.8,3.3S114.5,246.1,114.5,244.2z
	 M122.7,248.3h2.6c2,0,4.2-0.6,4.2-4.1c0-3.5-2.1-4.1-4.2-4.1h-2.6V248.3z M123.8,247.4V241h1.6c1.4,0,3.1,0.2,3.1,3.2
	c0,3-1.6,3.2-3.1,3.2H123.8z"/>
<path class="st1" d="M87.5,235.5h43.2c5.4,0,9.8,4.4,9.8,9.8v0c0,5.4-4.4,9.8-9.8,9.8H87.5c-5.4,0-9.8-4.4-9.8-9.8v0
	C77.7,239.8,82.1,235.5,87.5,235.5z"/>
<path class="st0" d="M87.5,259.5h65.2c5.4,0,9.8,4.4,9.8,9.8v0c0,5.4-4.4,9.8-9.8,9.8H87.5c-5.4,0-9.8-4.4-9.8-9.8v0
	C77.7,263.8,82.1,259.5,87.5,259.5z"/>
<g>
	<defs>
		<rect id="SVGID_00000008106863670394839790000017017979947724896388_" x="84.3" y="264.9" width="8.7" height="8.7"/>
	</defs>
	<clipPath id="SVGID_00000080176064064831301570000015248198246644623748_">
		<use xlink:href="#SVGID_00000008106863670394839790000017017979947724896388_"  style="overflow:visible;"/>
	</clipPath>
	<g style="clip-path:url(#SVGID_00000080176064064831301570000015248198246644623748_);">
		<path class="st6" d="M87.2,267.8L87.2,267.8 M85,266.8v1.6c0,0.2,0,0.3,0,0.4c0,0.1,0,0.1,0.1,0.2c0,0.1,0.1,0.1,0.2,0.3l2.8,2.8
			c0.4,0.4,0.6,0.6,0.9,0.7c0.2,0.1,0.5,0.1,0.7,0c0.2-0.1,0.5-0.3,0.9-0.7l0.8-0.8c0.4-0.4,0.6-0.6,0.7-0.9c0.1-0.2,0.1-0.5,0-0.7
			c-0.1-0.2-0.3-0.5-0.7-0.9l-2.8-2.8c-0.1-0.1-0.2-0.2-0.3-0.2c-0.1,0-0.1-0.1-0.2-0.1c-0.1,0-0.2,0-0.4,0h-1.6
			c-0.4,0-0.6,0-0.8,0.1c-0.1,0.1-0.2,0.2-0.3,0.3C85,266.2,85,266.4,85,266.8z M87.4,267.8c0,0.1-0.1,0.2-0.2,0.2
			c-0.1,0-0.2-0.1-0.2-0.2c0-0.1,0.1-0.2,0.2-0.2C87.3,267.6,87.4,267.7,87.4,267.8z"/>
	</g>
</g>
<path d="M97,272.3h1.1l1-3.1h3.3l1,3.1h1.1l-2.6-8.2h-2.3L97,272.3z M99.3,268.2l1.2-3.9h0.3l1.2,3.9H99.3z M109.1,272.4
	c2.1,0,3.5-1.3,3.7-3.3h-1.1c-0.2,1.5-1.1,2.4-2.7,2.4c-1.8,0-2.8-1.4-2.8-3.3c0-1.9,1-3.3,2.8-3.3c1.6,0,2.5,0.9,2.7,2.4h1.1
	c-0.2-2-1.6-3.3-3.7-3.3c-2.4,0-3.9,1.8-3.9,4.2C105.2,270.6,106.7,272.4,109.1,272.4z M113.5,264.1v0.9h2.8v7.3h1.1V265h2.8v-0.9
	H113.5z M121.5,264.1v0.9h1.8v6.4h-1.8v0.9h4.7v-0.9h-1.8V265h1.8v-0.9H121.5z M127.1,268.2c0,2.4,1.4,4.2,3.9,4.2
	c2.4,0,3.9-1.8,3.9-4.2c0-2.4-1.4-4.2-3.9-4.2C128.5,263.9,127.1,265.8,127.1,268.2z M128.2,268.2c0-1.9,0.9-3.3,2.8-3.3
	c1.9,0,2.8,1.4,2.8,3.3c0,1.9-0.9,3.3-2.8,3.3C129.1,271.5,128.2,270.1,128.2,268.2z M136.4,272.3h1.1v-7.2l-0.2-0.7h0.3l3.9,7.9
	h2.1v-8.2h-1v7.2l0.2,0.7h-0.3l-3.9-7.9h-2.1V272.3z M151.9,270.1c0-1.1-0.7-1.9-2-2.2l-2.3-0.6c-0.9-0.2-1.2-0.7-1.2-1.3
	c0-0.8,0.6-1.2,1.8-1.2c1.5,0,2.3,0.7,2.3,2h1.1c0-1.8-1.2-2.8-3.4-2.8c-1.9,0-2.9,0.8-2.9,2.2c0,1,0.5,1.7,1.8,2.1l2.3,0.6
	c1,0.2,1.4,0.7,1.4,1.4c0,0.9-0.7,1.4-2.1,1.4c-1.8,0-2.7-0.7-2.7-2.3H145c0,2.1,1.3,3.2,3.8,3.2
	C150.9,272.4,151.9,271.6,151.9,270.1z"/>
<path class="st1" d="M87.5,259.5h65.2c5.4,0,9.8,4.4,9.8,9.8v0c0,5.4-4.4,9.8-9.8,9.8H87.5c-5.4,0-9.8-4.4-9.8-9.8v0
	C77.7,263.8,82.1,259.5,87.5,259.5z"/>
<line class="st4" x1="15.7" y1="286.5" x2="226.3" y2="286.5"/>
<path d="M22.1,298.4h-0.9l-5.6,8.5c-0.4,0.6-0.8,0.7-1.3,0.7l-0.1,0.3h2.6l0.1-0.3c-1.2,0-1.1-0.1-0.7-0.7l1.2-1.9h3.1l-0.1,1.7
	c0,0.7-0.2,0.9-1.2,0.9l-0.1,0.3h3.5l0.1-0.3c-0.8,0-1-0.2-1-0.9L22.1,298.4z M20.7,300h0.1l-0.3,4.6h-2.9L20.7,300z M26.1,300.4
	c0.4,0,0.7-0.3,0.7-0.7c0-0.4-0.3-0.7-0.7-0.7s-0.7,0.3-0.7,0.7C25.4,300.1,25.7,300.4,26.1,300.4z M23.6,306.3
	c-0.2,0.5-0.3,0.7-0.3,1c0,0.4,0.2,0.7,0.8,0.7c1,0,1.7-1.2,2.1-2.2H26c-0.4,0.8-0.9,1.6-1.3,1.6c-0.2,0-0.2-0.1-0.2-0.3
	c0-0.2,0.2-0.6,0.2-0.8l1-2.8c0.2-0.5,0.3-0.9,0.3-1.2c0-0.3-0.2-0.6-0.6-0.6c-0.8,0-1.7,0.9-2.3,2h0.3c0.4-0.7,1-1.4,1.3-1.4
	c0.1,0,0.2,0,0.2,0.2c0,0.2-0.2,0.6-0.3,1L23.6,306.3z M27.9,307.9c1.7-4.4,2.8-5.5,3.2-5.5c0.2,0,0.3,0.1,0.3,0.4
	c0,0.4-0.5,1.6-0.9,2.7l-0.9,2.4h1.1c0.4-1,0.8-1.9,1.1-2.6c1.1-2.2,1.9-2.9,2.2-2.9c0.2,0,0.2,0.1,0.2,0.4c0,0.5-0.6,1.9-1.3,3.5
	c-0.2,0.5-0.3,0.8-0.3,1c0,0.4,0.2,0.7,0.8,0.7c0.9,0,1.7-1.2,2.1-2.2h-0.3c-0.4,0.8-0.9,1.6-1.3,1.6c-0.2,0-0.2-0.1-0.2-0.3
	c0-0.2,0.2-0.6,0.3-0.8c0.6-1.3,1.4-3,1.4-3.9c0-0.5-0.3-0.8-0.8-0.8c-0.9,0-1.9,1.2-3.1,3.7h-0.1c0.5-1.3,1-2.3,1-2.9
	c0-0.4-0.3-0.8-0.7-0.8c-0.9,0-1.7,1.2-3,3.7h-0.1l0.7-1.9c0.2-0.5,0.4-0.9,0.4-1.2c0-0.3-0.2-0.6-0.6-0.6c-0.8,0-1.7,0.9-2.3,2h0.3
	c0.4-0.7,1-1.4,1.3-1.4c0.1,0,0.2,0,0.2,0.2c0,0.2-0.2,0.6-0.3,1l-1.5,4.5H27.9z M40,303c0.4,0,0.8-0.4,0.8-0.9
	c0-0.3-0.2-0.5-0.5-0.5c-0.5,0-0.8,0.4-0.8,0.9C39.4,302.8,39.7,303,40,303z M38.5,308c0.4,0,0.8-0.4,0.8-0.9c0-0.3-0.2-0.5-0.5-0.5
	c-0.5,0-0.8,0.4-0.8,0.8C37.9,307.8,38.1,308,38.5,308z"/>
<path class="st0" d="M81,294.4h124.8c1.8,0,3.3,1.5,3.3,3.3v13.1c0,1.8-1.5,3.3-3.3,3.3H81c-1.8,0-3.3-1.5-3.3-3.3v-13.1
	C77.7,295.8,79.2,294.4,81,294.4z"/>
<g>
	<defs>
		<rect id="SVGID_00000023243524197927868180000011934752267995216309_" x="84.3" y="299.1" width="10.2" height="10.2"/>
	</defs>
	<clipPath id="SVGID_00000119816392281102247340000002369136261795447969_">
		<use xlink:href="#SVGID_00000023243524197927868180000011934752267995216309_"  style="overflow:visible;"/>
	</clipPath>
	<g style="clip-path:url(#SVGID_00000119816392281102247340000002369136261795447969_);">
		<path class="st9" d="M89.8,299.9l-3.8,4.5c-0.1,0.2-0.2,0.3-0.2,0.3c0,0.1,0,0.1,0.1,0.2c0.1,0,0.2,0,0.4,0h3.1l-0.4,3.4l3.8-4.5
			c0.1-0.2,0.2-0.3,0.2-0.3c0-0.1,0-0.1-0.1-0.2c-0.1,0-0.2,0-0.4,0h-3.1L89.8,299.9z"/>
	</g>
</g>
<path d="M99,307.2h2.6c2,0,4.2-0.6,4.2-4.1c0-3.5-2.1-4.1-4.2-4.1H99V307.2z M100,306.3v-6.4h1.6c1.4,0,3.1,0.2,3.1,3.2
	c0,3-1.6,3.2-3.1,3.2H100z M106.4,299v0.9h1.8v6.4h-1.8v0.9h4.7v-0.9h-1.8v-6.4h1.8V299H106.4z M119,305c0-1.1-0.7-1.8-2-2.2
	l-2.3-0.6c-0.9-0.2-1.2-0.7-1.2-1.3c0-0.8,0.6-1.2,1.8-1.2c1.5,0,2.3,0.7,2.3,2h1.1c0-1.8-1.2-2.8-3.4-2.8c-1.9,0-2.9,0.8-2.9,2.2
	c0,1,0.5,1.7,1.8,2.1l2.3,0.6c1,0.2,1.4,0.7,1.4,1.4c0,0.9-0.7,1.4-2.1,1.4c-1.8,0-2.7-0.7-2.7-2.3h-1.1c0,2.1,1.3,3.2,3.8,3.2
	C118,307.3,119,306.5,119,305z M127,305c0-1.1-0.7-1.8-2-2.2l-2.3-0.6c-0.9-0.2-1.2-0.7-1.2-1.3c0-0.8,0.6-1.2,1.8-1.2
	c1.5,0,2.3,0.7,2.3,2h1.1c0-1.8-1.2-2.8-3.4-2.8c-1.9,0-2.9,0.8-2.9,2.2c0,1,0.5,1.7,1.8,2.1l2.3,0.6c1,0.2,1.4,0.7,1.4,1.4
	c0,0.9-0.7,1.4-2.1,1.4c-1.8,0-2.7-0.7-2.7-2.3h-1.1c0,2.1,1.3,3.2,3.8,3.2C126,307.3,127,306.5,127,305z M128.4,307.2h5.7v-0.9
	h-4.6v-2.8h4.1v-0.9h-4.1v-2.7h4.6V299h-5.7V307.2z M135.5,307.2h1.1v-6.9l-0.2-1h0.3l2.2,7.9h2.1l2.2-7.9h0.3l-0.2,1v6.9h1.1V299
	h-2.1l-2.2,7.9h-0.3l-2.2-7.9h-2.1V307.2z M146,299v0.9h1.8v6.4H146v0.9h4.7v-0.9h-1.8v-6.4h1.8V299H146z M152.3,307.2h1.1V300
	l-0.2-0.7h0.3l3.9,7.9h2.1V299h-1v7.2l0.2,0.7h-0.3l-3.9-7.9h-2.1V307.2z M160.7,307.2h1.1l1-3.1h3.3l1,3.1h1.1l-2.6-8.2h-2.3
	L160.7,307.2z M163.1,303.1l1.2-3.9h0.3l1.2,3.9H163.1z M167.9,299v0.9h2.8v7.3h1.1v-7.3h2.8V299H167.9z M175.9,299v0.9h1.8v6.4
	h-1.8v0.9h4.7v-0.9h-1.8v-6.4h1.8V299H175.9z M181.5,303.1c0,2.4,1.4,4.2,3.9,4.2c2.4,0,3.9-1.8,3.9-4.2c0-2.4-1.4-4.2-3.9-4.2
	C182.9,298.9,181.5,300.7,181.5,303.1z M182.6,303.1c0-1.9,0.9-3.3,2.8-3.3c1.9,0,2.8,1.4,2.8,3.3c0,1.9-0.9,3.3-2.8,3.3
	C183.5,306.4,182.6,305,182.6,303.1z M190.8,307.2h1.1V300l-0.2-0.7h0.3l3.9,7.9h2.1V299h-1v7.2l0.2,0.7h-0.3l-3.9-7.9h-2.1V307.2z"
	/>
<path class="st1" d="M81,294.4h124.8c1.8,0,3.3,1.5,3.3,3.3v13.1c0,1.8-1.5,3.3-3.3,3.3H81c-1.8,0-3.3-1.5-3.3-3.3v-13.1
	C77.7,295.8,79.2,294.4,81,294.4z"/>
<line class="st4" x1="15.7" y1="321.5" x2="226.3" y2="321.5"/>
<path d="M23.6,333.5h-5.8l-0.1,0.3c1,0,1,0.2,0.8,0.9l-2.1,7c-0.2,0.7-0.5,0.9-1.4,0.9l-0.1,0.3h6.2l1.1-2.2l-0.3-0.1
	c-0.8,1.4-1.3,1.8-2.2,1.8H18c-0.5,0-0.5-0.1-0.3-0.7l1-3.4h1.5c0.6,0,0.7,0.4,0.5,1.2H21l0.8-2.6h-0.3c-0.2,0.7-0.5,1-1.2,1h-1.5
	l1-3.2c0.1-0.3,0.3-0.5,0.7-0.5H22c0.8,0,0.9,0.5,0.6,1.7H23L23.6,333.5z M27.4,336.5c-0.3,0-0.4,0.2-0.4,0.5c0,0.4,0.3,0.8,0.3,1.3
	c0,1.4-1.3,3.8-2.4,3.8c-0.5,0-0.7-0.5-0.7-1c0-1.3,1.1-3.1,2.2-4.4l-0.2-0.2l-0.1,0.1c-0.1,0.1-0.2,0.1-0.3,0.1
	c-0.3,0-1-0.1-1.3-0.1c-0.4,0-0.7,0.3-0.9,0.7c-0.2,0.3-0.2,0.6-0.2,0.8c0,0.3,0.2,0.4,0.3,0.4c0.2,0,0.3-0.2,0.3-0.3
	c0-0.3-0.3-0.4-0.3-0.6c0-0.1,0.1-0.2,0.2-0.2c0.3,0,1,0.2,1.3,0.2h0c-1.1,1.2-2.2,2.7-2.2,4c0,1,0.5,1.5,1.2,1.5
	c1.7,0,3.7-3.7,3.7-5.7C28,336.8,27.7,336.5,27.4,336.5z M31.2,335.3c0.4,0,0.7-0.3,0.7-0.7c0-0.4-0.3-0.7-0.7-0.7s-0.7,0.3-0.7,0.7
	C30.5,335,30.8,335.3,31.2,335.3z M28.8,341.2c-0.2,0.5-0.3,0.7-0.3,1c0,0.4,0.2,0.7,0.8,0.7c1,0,1.7-1.2,2.1-2.2h-0.3
	c-0.4,0.8-0.9,1.6-1.3,1.6c-0.2,0-0.2-0.1-0.2-0.3c0-0.2,0.2-0.6,0.2-0.8l1-2.8c0.2-0.5,0.3-0.9,0.3-1.2c0-0.3-0.2-0.6-0.6-0.6
	c-0.8,0-1.7,0.9-2.3,2h0.3c0.4-0.7,1-1.4,1.3-1.4c0.1,0,0.2,0,0.2,0.2c0,0.2-0.2,0.6-0.3,1L28.8,341.2z M36.3,342.3
	c-0.2,0-0.2-0.1-0.2-0.3c0-0.2,0.1-0.6,0.2-0.8l2.6-7.9l-0.1-0.1c-0.3,0.3-0.8,0.3-2.2,0.3l-0.1,0.3c0.8,0,1.1,0.2,0.8,0.9l-1.1,3.1
	h0c0-0.7-0.3-1.3-1-1.3c-1.6,0-3.5,2.9-3.5,4.9c0,0.9,0.4,1.6,1,1.6c1,0,2.1-1.9,2.7-3.1h0.2l-0.4,1.3c-0.2,0.5-0.3,0.8-0.3,1
	c0,0.4,0.2,0.7,0.8,0.7c0.9,0,1.7-1.2,2.1-2.2h-0.3C37.2,341.6,36.7,342.3,36.3,342.3z M33.3,342.1c-0.3,0-0.4-0.3-0.4-0.9
	c0-1.7,1.4-4.2,2.4-4.2c0.4,0,0.5,0.3,0.5,0.8c0,0.4-0.1,0.8-0.2,1.1C35.2,340.3,34,342.1,33.3,342.1z M40.3,342.2
	c-0.5,0-0.9-0.4-0.9-1.1c0-0.3,0-0.6,0.1-0.9c1.6-0.2,3.2-1.3,3.2-2.6c0-0.6-0.4-1.1-1.1-1.1c-1.7,0-3.4,2.7-3.4,4.7
	c0,1.2,0.6,1.8,1.5,1.8c1.1,0,2-1,2.7-2.6h-0.3C41.7,341.5,41,342.2,40.3,342.2z M41.6,336.9c0.3,0,0.4,0.2,0.4,0.5
	c0,1.1-1.1,2-2.4,2.3C40,338.4,40.8,336.9,41.6,336.9z M44.3,342.8c1.7-4.4,2.9-5.5,3.3-5.5c0.2,0,0.2,0.1,0.2,0.4
	c0,0.5-0.6,1.9-1.3,3.5c-0.2,0.5-0.3,0.8-0.3,1c0,0.4,0.2,0.7,0.8,0.7c1,0,1.7-1.2,2.1-2.2h-0.3c-0.4,0.8-0.9,1.6-1.3,1.6
	c-0.2,0-0.2-0.1-0.2-0.3c0-0.2,0.2-0.6,0.3-0.8c0.6-1.3,1.4-3,1.4-3.9c0-0.5-0.3-0.8-0.8-0.8c-0.9,0-1.8,1.2-3,3.7H45l0.7-1.9
	c0.2-0.5,0.4-0.9,0.4-1.2c0-0.3-0.2-0.6-0.6-0.6c-0.8,0-1.7,0.9-2.3,2h0.3c0.4-0.7,1-1.4,1.3-1.4c0.1,0,0.2,0,0.2,0.2
	c0,0.2-0.2,0.6-0.3,1l-1.5,4.5H44.3z M51.1,343c1,0,1.9-0.9,2.5-2.5h-0.3c-0.5,1-1.2,1.8-1.8,1.8c-0.5,0-0.8-0.6-0.8-1.3
	c0-1.6,1-4,2.1-4c0.3,0,0.5,0.2,0.5,0.4c0,0.6-0.6,0.6-0.6,1.1c0,0.2,0.2,0.4,0.4,0.4c0.5,0,0.8-0.7,0.8-1.3c0-0.7-0.5-1.1-1.1-1.1
	c-1.7,0-3.3,2.5-3.3,4.6C49.6,342.3,50.2,343,51.1,343z M56.2,342.2c-0.5,0-0.9-0.4-0.9-1.1c0-0.3,0-0.6,0.1-0.9
	c1.6-0.2,3.2-1.3,3.2-2.6c0-0.6-0.4-1.1-1.1-1.1c-1.7,0-3.4,2.7-3.4,4.7c0,1.2,0.6,1.8,1.5,1.8c1.1,0,2-1,2.7-2.6h-0.3
	C57.6,341.5,56.9,342.2,56.2,342.2z M57.5,336.9c0.3,0,0.4,0.2,0.4,0.5c0,1.1-1.1,2-2.4,2.3C55.9,338.4,56.7,336.9,57.5,336.9z
	 M63,337.9c0.4,0,0.8-0.4,0.8-0.9c0-0.3-0.2-0.5-0.5-0.5c-0.5,0-0.8,0.4-0.8,0.9C62.4,337.7,62.7,337.9,63,337.9z M61.5,343
	c0.4,0,0.8-0.4,0.8-0.9c0-0.3-0.2-0.5-0.5-0.5c-0.5,0-0.8,0.4-0.8,0.8C60.9,342.7,61.1,343,61.5,343z"/>
<path class="st0" d="M81,329.3h106.3c1.8,0,3.3,1.5,3.3,3.3v13.1c0,1.8-1.5,3.3-3.3,3.3H81c-1.8,0-3.3-1.5-3.3-3.3v-13.1
	C77.7,330.7,79.2,329.3,81,329.3z"/>
<path class="st10" d="M94.6,343.5l-2.1-2.1 M93.6,338.6c0,2.2-1.8,3.9-3.9,3.9s-3.9-1.8-3.9-3.9s1.8-3.9,3.9-3.9
	S93.6,336.4,93.6,338.6z"/>
<path class="st11" d="M94.9,334.7l-9.1,9.1"/>
<path class="st12" d="M95.2,333.2l-10.9,10.9"/>
<path d="M104.1,342.2c2.3,0,2.8-1.6,2.9-2.2h0.3l-0.2,1.1v0.9h1.1v-3.7c0-0.5-0.2-0.7-0.7-0.7h-3.5v0.8h3.2c0.1,1.8-0.9,2.8-2.7,2.8
	c-2.1,0-2.8-1.5-2.8-3.2c0-2,1-3.4,2.9-3.4c1.4,0,2.3,0.8,2.5,2.2h1.1c-0.3-1.9-1.6-3.1-3.6-3.1c-2.5,0-3.9,1.7-3.9,4.3
	C100.4,340.4,101.6,342.2,104.1,342.2z M109.8,342.1h1.1v-3.2h4.1v3.2h1v-3c0-0.5-0.2-0.8-0.8-0.8h-0.9V338c1-0.2,1.6-0.7,1.6-1.9
	c0-1.8-1.3-2.2-3.2-2.2h-3V342.1z M110.9,337.9v-3.1h2c1.3,0,2.2,0.1,2.2,1.5c0,1.4-0.8,1.6-2.2,1.6H110.9z M117.6,338
	c0,2.4,1.4,4.2,3.9,4.2s3.9-1.8,3.9-4.2c0-2.4-1.4-4.2-3.9-4.2S117.6,335.6,117.6,338z M118.6,338c0-1.9,0.9-3.3,2.8-3.3
	s2.8,1.4,2.8,3.3c0,1.9-0.9,3.3-2.8,3.3S118.6,339.9,118.6,338z M126.6,339c0,2,1,3.2,3.3,3.2c2.3,0,3.3-1.1,3.3-3.2v-5.2h-1.1v4.9
	c0,1.6-0.5,2.5-2.3,2.5s-2.2-0.8-2.2-2.5v-4.9h-1.1V339z M134.9,342.1h1.1v-7.2l-0.2-0.7h0.3l3.9,7.9h2.1v-8.2h-1v7.2l0.2,0.7h-0.3
	l-3.9-7.9h-2.1V342.1z M143.8,342.1h2.6c2,0,4.2-0.6,4.2-4.1c0-3.5-2.1-4.1-4.2-4.1h-2.6V342.1z M144.8,341.2v-6.4h1.6
	c1.4,0,3.1,0.2,3.1,3.2c0,3-1.6,3.2-3.1,3.2H144.8z M152.9,342.1h4.4v-0.9h-4.1v-7.3h-1.1v7.5C152.1,341.8,152.4,342.1,152.9,342.1z
	 M158.4,342.1h5.7v-0.9h-4.6v-2.8h4.1v-0.9h-4.1v-2.7h4.6v-0.9h-5.7V342.1z M171.9,339.9c0-1.1-0.7-1.9-2-2.2l-2.3-0.6
	c-0.9-0.2-1.2-0.7-1.2-1.3c0-0.8,0.6-1.2,1.8-1.2c1.5,0,2.3,0.7,2.3,2h1.1c0-1.8-1.2-2.8-3.4-2.8c-1.9,0-2.9,0.8-2.9,2.2
	c0,1,0.5,1.7,1.8,2.1l2.3,0.6c1,0.2,1.4,0.7,1.4,1.4c0,0.9-0.7,1.4-2.1,1.4c-1.8,0-2.7-0.7-2.7-2.3H165c0,2.1,1.3,3.2,3.8,3.2
	C170.9,342.2,171.9,341.4,171.9,339.9z M179.9,339.9c0-1.1-0.7-1.9-2-2.2l-2.3-0.6c-0.9-0.2-1.2-0.7-1.2-1.3c0-0.8,0.6-1.2,1.8-1.2
	c1.5,0,2.3,0.7,2.3,2h1.1c0-1.8-1.2-2.8-3.4-2.8c-1.9,0-2.9,0.8-2.9,2.2c0,1,0.5,1.7,1.8,2.1l2.3,0.6c1,0.2,1.4,0.7,1.4,1.4
	c0,0.9-0.7,1.4-2.1,1.4c-1.8,0-2.7-0.7-2.7-2.3h-1.1c0,2.1,1.3,3.2,3.8,3.2C178.9,342.2,179.9,341.4,179.9,339.9z"/>
<path class="st1" d="M81,329.3h106.3c1.8,0,3.3,1.5,3.3,3.3v13.1c0,1.8-1.5,3.3-3.3,3.3H81c-1.8,0-3.3-1.5-3.3-3.3v-13.1
	C77.7,330.7,79.2,329.3,81,329.3z"/>
<line class="st4" x1="15.7" y1="356.4" x2="226.3" y2="356.4"/>
<path class="st13" d="M198.8,45.2V4l20.6,20.6L240,45.2H198.8z"/>
<rect x="1" y="3" class="st14" width="240" height="382.6"/>
<path class="st0" d="M242.5,46.6l-22.9-22.9L196.6,0.8l45.8,0V46.6z"/>
</svg>
