<svg width="511" height="241" viewBox="0 0 511 241" fill="none" xmlns="http://www.w3.org/2000/svg">
<rect width="163" height="28" transform="translate(28)" fill="white"/>
<rect x="28.5" y="0.5" width="105.675" height="27" rx="13.5" fill="#DEB4FF"/>
<path d="M41.5596 12H41.5646M38.5596 10.6L38.5596 12.8373C38.5596 13.0818 38.5596 13.2041 38.5872 13.3192C38.6117 13.4213 38.6521 13.5188 38.7069 13.6083C38.7688 13.7092 38.8552 13.7957 39.0282 13.9686L42.8625 17.8029C43.4565 18.397 43.7536 18.694 44.096 18.8053C44.3973 18.9031 44.7218 18.9031 45.0231 18.8053C45.3656 18.694 45.6626 18.397 46.2566 17.8029L47.3625 16.6971C47.9565 16.103 48.2536 15.806 48.3648 15.4635C48.4627 15.1623 48.4627 14.8377 48.3648 14.5365C48.2536 14.194 47.9565 13.897 47.3625 13.3029L43.5282 9.46863C43.3552 9.29568 43.2688 9.2092 43.1679 9.14736C43.0784 9.09253 42.9808 9.05213 42.8788 9.02763C42.7637 9 42.6414 9 42.3968 9L40.1596 9C39.5995 9 39.3195 9 39.1056 9.10899C38.9174 9.20487 38.7644 9.35785 38.6686 9.54601C38.5596 9.75992 38.5596 10.0399 38.5596 10.6ZM41.8096 12C41.8096 12.1381 41.6976 12.25 41.5596 12.25C41.4215 12.25 41.3096 12.1381 41.3096 12C41.3096 11.8619 41.4215 11.75 41.5596 11.75C41.6976 11.75 41.8096 11.8619 41.8096 12Z" stroke="black" stroke-width="0.903608" stroke-linecap="round" stroke-linejoin="round"/>
<path d="M55.4479 6.72V7.968H59.3359V18H60.7919V7.968H64.6639V6.72H55.4479ZM65.498 12.352C65.498 15.664 67.482 18.176 70.826 18.176C74.17 18.176 76.138 15.664 76.138 12.352C76.138 9.056 74.17 6.544 70.826 6.544C67.482 6.544 65.498 9.056 65.498 12.352ZM66.97 12.352C66.97 9.712 68.234 7.808 70.826 7.808C73.418 7.808 74.682 9.712 74.682 12.352C74.682 15.008 73.418 16.912 70.826 16.912C68.234 16.912 66.97 15.008 66.97 12.352ZM78.2817 18H79.7377V14.192H81.5617C84.5697 14.192 86.2657 13.328 86.2657 10.448C86.2657 7.584 84.5697 6.72 81.5617 6.72H78.2817V18ZM79.7377 12.944V7.968H81.6097C83.4817 7.968 84.8257 8.352 84.8257 10.448C84.8257 12.56 83.4817 12.944 81.6097 12.944H79.7377ZM87.5561 6.72V7.968H90.0841V16.752H87.5561V18H94.0521V16.752H91.5241V7.968H94.0521V6.72H87.5561ZM100.615 18.176C103.527 18.176 105.431 16.448 105.767 13.632H104.311C104.055 15.696 102.759 16.912 100.615 16.912C98.0709 16.912 96.7429 15.04 96.7429 12.352C96.7429 9.68 98.0709 7.808 100.615 7.808C102.759 7.808 104.055 9.008 104.311 11.072H105.767C105.431 8.272 103.527 6.544 100.615 6.544C97.2549 6.544 95.2709 9.056 95.2709 12.352C95.2709 15.664 97.2549 18.176 100.615 18.176ZM112.856 11.68L113.304 12.912C116.168 11.984 116.888 9.648 117.048 7.12H117.448L117.208 8.16V18H118.664V6.72H115.768C115.736 8.976 115 10.816 112.856 11.68Z" fill="black"/>
<rect x="28.5" y="0.5" width="105.675" height="27" rx="13.5" stroke="black"/>
<rect x="150.5" y="0.5" width="108.675" height="27" rx="13.5" fill="#DEB4FF"/>
<path d="M163.56 12H163.565M160.56 10.6L160.56 12.8373C160.56 13.0818 160.56 13.2041 160.587 13.3192C160.612 13.4213 160.652 13.5188 160.707 13.6083C160.769 13.7092 160.855 13.7957 161.028 13.9686L164.863 17.8029C165.457 18.397 165.754 18.694 166.096 18.8053C166.397 18.9031 166.722 18.9031 167.023 18.8053C167.366 18.694 167.663 18.397 168.257 17.8029L169.363 16.6971C169.957 16.103 170.254 15.806 170.365 15.4635C170.463 15.1623 170.463 14.8377 170.365 14.5365C170.254 14.194 169.957 13.897 169.363 13.3029L165.528 9.46863C165.355 9.29568 165.269 9.2092 165.168 9.14736C165.078 9.09253 164.981 9.05213 164.879 9.02763C164.764 9 164.641 9 164.397 9L162.16 9C161.6 9 161.319 9 161.106 9.10899C160.917 9.20487 160.764 9.35785 160.669 9.54601C160.56 9.75992 160.56 10.0399 160.56 10.6ZM163.81 12C163.81 12.1381 163.698 12.25 163.56 12.25C163.421 12.25 163.31 12.1381 163.31 12C163.31 11.8619 163.421 11.75 163.56 11.75C163.698 11.75 163.81 11.8619 163.81 12Z" stroke="black" stroke-width="0.903608" stroke-linecap="round" stroke-linejoin="round"/>
<path d="M177.495 6.72V7.968H181.383V18H182.839V7.968H186.711V6.72H177.495ZM187.545 12.352C187.545 15.664 189.529 18.176 192.873 18.176C196.217 18.176 198.185 15.664 198.185 12.352C198.185 9.056 196.217 6.544 192.873 6.544C189.529 6.544 187.545 9.056 187.545 12.352ZM189.017 12.352C189.017 9.712 190.281 7.808 192.873 7.808C195.465 7.808 196.729 9.712 196.729 12.352C196.729 15.008 195.465 16.912 192.873 16.912C190.281 16.912 189.017 15.008 189.017 12.352ZM200.329 18H201.785V14.192H203.609C206.617 14.192 208.313 13.328 208.313 10.448C208.313 7.584 206.617 6.72 203.609 6.72H200.329V18ZM201.785 12.944V7.968H203.657C205.529 7.968 206.873 8.352 206.873 10.448C206.873 12.56 205.529 12.944 203.657 12.944H201.785ZM209.603 6.72V7.968H212.131V16.752H209.603V18H216.099V16.752H213.571V7.968H216.099V6.72H209.603ZM222.662 18.176C225.574 18.176 227.478 16.448 227.814 13.632H226.358C226.102 15.696 224.806 16.912 222.662 16.912C220.118 16.912 218.79 15.04 218.79 12.352C218.79 9.68 220.118 7.808 222.662 7.808C224.806 7.808 226.102 9.008 226.358 11.072H227.814C227.478 8.272 225.574 6.544 222.662 6.544C219.302 6.544 217.318 9.056 217.318 12.352C217.318 15.664 219.302 18.176 222.662 18.176ZM234.935 12.128H236.375C236.375 8.896 237.799 7.792 239.815 7.792C241.543 7.792 242.455 8.688 242.455 10.352C242.455 14.256 236.791 15.312 235.095 15.488V18H243.911V16.752H236.583L235.495 17.04V16.624C240.151 15.92 243.911 13.984 243.911 10.368C243.911 7.872 242.247 6.544 239.799 6.544C237.079 6.544 234.935 8.08 234.935 12.128Z" fill="black"/>
<rect x="150.5" y="0.5" width="108.675" height="27" rx="13.5" stroke="black"/>
<rect x="276.5" y="0.5" width="108.675" height="27" rx="13.5" fill="white"/>
<path d="M289.56 12H289.565M286.56 10.6L286.56 12.8373C286.56 13.0818 286.56 13.2041 286.587 13.3192C286.612 13.4213 286.652 13.5188 286.707 13.6083C286.769 13.7092 286.855 13.7957 287.028 13.9686L290.863 17.8029C291.457 18.397 291.754 18.694 292.096 18.8053C292.397 18.9031 292.722 18.9031 293.023 18.8053C293.366 18.694 293.663 18.397 294.257 17.8029L295.363 16.6971C295.957 16.103 296.254 15.806 296.365 15.4635C296.463 15.1623 296.463 14.8377 296.365 14.5365C296.254 14.194 295.957 13.897 295.363 13.3029L291.528 9.46863C291.355 9.29568 291.269 9.2092 291.168 9.14736C291.078 9.09253 290.981 9.05213 290.879 9.02763C290.764 9 290.641 9 290.397 9L288.16 9C287.6 9 287.319 9 287.106 9.10899C286.917 9.20487 286.764 9.35785 286.669 9.54601C286.56 9.75992 286.56 10.0399 286.56 10.6ZM289.81 12C289.81 12.1381 289.698 12.25 289.56 12.25C289.421 12.25 289.31 12.1381 289.31 12C289.31 11.8619 289.421 11.75 289.56 11.75C289.698 11.75 289.81 11.8619 289.81 12Z" stroke="black" stroke-width="0.903608" stroke-linecap="round" stroke-linejoin="round"/>
<path d="M303.448 6.72V7.968H307.336V18H308.792V7.968H312.664V6.72H303.448ZM313.498 12.352C313.498 15.664 315.482 18.176 318.826 18.176C322.17 18.176 324.138 15.664 324.138 12.352C324.138 9.056 322.17 6.544 318.826 6.544C315.482 6.544 313.498 9.056 313.498 12.352ZM314.97 12.352C314.97 9.712 316.234 7.808 318.826 7.808C321.418 7.808 322.682 9.712 322.682 12.352C322.682 15.008 321.418 16.912 318.826 16.912C316.234 16.912 314.97 15.008 314.97 12.352ZM326.282 18H327.738V14.192H329.562C332.57 14.192 334.266 13.328 334.266 10.448C334.266 7.584 332.57 6.72 329.562 6.72H326.282V18ZM327.738 12.944V7.968H329.61C331.482 7.968 332.826 8.352 332.826 10.448C332.826 12.56 331.482 12.944 329.61 12.944H327.738ZM335.556 6.72V7.968H338.084V16.752H335.556V18H342.052V16.752H339.524V7.968H342.052V6.72H335.556ZM348.615 18.176C351.527 18.176 353.431 16.448 353.767 13.632H352.311C352.055 15.696 350.759 16.912 348.615 16.912C346.071 16.912 344.743 15.04 344.743 12.352C344.743 9.68 346.071 7.808 348.615 7.808C350.759 7.808 352.055 9.008 352.311 11.072H353.767C353.431 8.272 351.527 6.544 348.615 6.544C345.255 6.544 343.271 9.056 343.271 12.352C343.271 15.664 345.255 18.176 348.615 18.176ZM362.392 13.696H360.952C360.952 16.864 362.76 18.176 365.656 18.176C368.36 18.176 369.944 16.944 369.944 14.88C369.944 13.12 368.984 12.544 367.544 12.272V11.872C368.984 11.648 369.784 10.944 369.784 9.52C369.784 7.776 368.36 6.544 365.656 6.544C362.76 6.544 361.112 7.856 361.112 10.432H362.552C362.552 8.64 363.464 7.792 365.624 7.792C367.624 7.792 368.344 8.608 368.344 9.792C368.344 10.944 367.704 11.472 366.392 11.472H364.824V12.672H366.392C367.704 12.672 368.504 13.248 368.504 14.656C368.504 16.128 367.608 16.928 365.624 16.928C363.464 16.928 362.392 16.08 362.392 13.696Z" fill="black"/>
<rect x="276.5" y="0.5" width="108.675" height="27" rx="13.5" stroke="black"/>
<rect x="402.5" y="0.5" width="107.675" height="27" rx="13.5" fill="white"/>
<path d="M415.56 12H415.565M412.56 10.6L412.56 12.8373C412.56 13.0818 412.56 13.2041 412.587 13.3192C412.612 13.4213 412.652 13.5188 412.707 13.6083C412.769 13.7092 412.855 13.7957 413.028 13.9686L416.863 17.8029C417.457 18.397 417.754 18.694 418.096 18.8053C418.397 18.9031 418.722 18.9031 419.023 18.8053C419.366 18.694 419.663 18.397 420.257 17.8029L421.363 16.6971C421.957 16.103 422.254 15.806 422.365 15.4635C422.463 15.1623 422.463 14.8377 422.365 14.5365C422.254 14.194 421.957 13.897 421.363 13.3029L417.528 9.46863C417.355 9.29568 417.269 9.2092 417.168 9.14736C417.078 9.09253 416.981 9.05213 416.879 9.02763C416.764 9 416.641 9 416.397 9L414.16 9C413.6 9 413.319 9 413.106 9.10899C412.917 9.20487 412.764 9.35785 412.669 9.54601C412.56 9.75992 412.56 10.0399 412.56 10.6ZM415.81 12C415.81 12.1381 415.698 12.25 415.56 12.25C415.421 12.25 415.31 12.1381 415.31 12C415.31 11.8619 415.421 11.75 415.56 11.75C415.698 11.75 415.81 11.8619 415.81 12Z" stroke="black" stroke-width="0.903608" stroke-linecap="round" stroke-linejoin="round"/>
<path d="M429.042 6.72V7.968H432.93V18H434.386V7.968H438.258V6.72H429.042ZM439.092 12.352C439.092 15.664 441.076 18.176 444.42 18.176C447.764 18.176 449.732 15.664 449.732 12.352C449.732 9.056 447.764 6.544 444.42 6.544C441.076 6.544 439.092 9.056 439.092 12.352ZM440.564 12.352C440.564 9.712 441.828 7.808 444.42 7.808C447.012 7.808 448.276 9.712 448.276 12.352C448.276 15.008 447.012 16.912 444.42 16.912C441.828 16.912 440.564 15.008 440.564 12.352ZM451.875 18H453.331V14.192H455.155C458.163 14.192 459.859 13.328 459.859 10.448C459.859 7.584 458.163 6.72 455.155 6.72H451.875V18ZM453.331 12.944V7.968H455.203C457.075 7.968 458.419 8.352 458.419 10.448C458.419 12.56 457.075 12.944 455.203 12.944H453.331ZM461.15 6.72V7.968H463.678V16.752H461.15V18H467.646V16.752H465.118V7.968H467.646V6.72H461.15ZM474.209 18.176C477.121 18.176 479.025 16.448 479.361 13.632H477.905C477.649 15.696 476.353 16.912 474.209 16.912C471.665 16.912 470.337 15.04 470.337 12.352C470.337 9.68 471.665 7.808 474.209 7.808C476.353 7.808 477.649 9.008 477.905 11.072H479.361C479.025 8.272 477.121 6.544 474.209 6.544C470.849 6.544 468.865 9.056 468.865 12.352C468.865 15.664 470.849 18.176 474.209 18.176ZM492.61 10.384V14.336H488.034L487.01 14.576V14.176C490.866 12.56 492.642 9.92 493.042 6.72H491.618C491.298 9.792 489.202 11.984 486.61 13.024V15.568H492.61V18H494.034V15.568H495.474V14.336H494.034V10.384H492.61Z" fill="black"/>
<rect x="402.5" y="0.5" width="107.675" height="27" rx="13.5" stroke="black"/>
<rect x="86.5" y="37.5" width="105" height="27" rx="13.5" fill="white"/>
<g clip-path="url(#clip0_730_32621)">
<path d="M97.7217 49H97.7267M94.7217 47.6L94.7217 49.8373C94.7217 50.0818 94.7217 50.2041 94.7493 50.3192C94.7738 50.4213 94.8142 50.5188 94.869 50.6083C94.9309 50.7092 95.0174 50.7957 95.1903 50.9686L99.0246 54.8029C99.6186 55.397 99.9157 55.694 100.258 55.8053C100.559 55.9031 100.884 55.9031 101.185 55.8053C101.528 55.694 101.825 55.397 102.419 54.8029L103.525 53.6971C104.119 53.103 104.416 52.806 104.527 52.4635C104.625 52.1623 104.625 51.8377 104.527 51.5365C104.416 51.194 104.119 50.897 103.525 50.3029L99.6903 46.4686C99.5174 46.2957 99.4309 46.2092 99.33 46.1474C99.2405 46.0925 99.1429 46.0521 99.0409 46.0276C98.9258 46 98.8035 46 98.5589 46L96.3217 46C95.7616 46 95.4816 46 95.2677 46.109C95.0795 46.2049 94.9265 46.3578 94.8307 46.546C94.7217 46.7599 94.7217 47.0399 94.7217 47.6ZM97.9717 49C97.9717 49.1381 97.8598 49.25 97.7217 49.25C97.5836 49.25 97.4717 49.1381 97.4717 49C97.4717 48.8619 97.5836 48.75 97.7217 48.75C97.8598 48.75 97.9717 48.8619 97.9717 49Z" stroke="black" stroke-width="0.903608" stroke-linecap="round" stroke-linejoin="round"/>
</g>
<path d="M111.368 43.72V44.968H115.256V55H116.712V44.968H120.584V43.72H111.368ZM121.418 49.352C121.418 52.664 123.402 55.176 126.746 55.176C130.09 55.176 132.058 52.664 132.058 49.352C132.058 46.056 130.09 43.544 126.746 43.544C123.402 43.544 121.418 46.056 121.418 49.352ZM122.89 49.352C122.89 46.712 124.154 44.808 126.746 44.808C129.338 44.808 130.602 46.712 130.602 49.352C130.602 52.008 129.338 53.912 126.746 53.912C124.154 53.912 122.89 52.008 122.89 49.352ZM134.202 55H135.658V51.192H137.482C140.49 51.192 142.186 50.328 142.186 47.448C142.186 44.584 140.49 43.72 137.482 43.72H134.202V55ZM135.658 49.944V44.968H137.53C139.402 44.968 140.746 45.352 140.746 47.448C140.746 49.56 139.402 49.944 137.53 49.944H135.658ZM143.476 43.72V44.968H146.004V53.752H143.476V55H149.972V53.752H147.444V44.968H149.972V43.72H143.476ZM156.535 55.176C159.447 55.176 161.351 53.448 161.687 50.632H160.231C159.975 52.696 158.679 53.912 156.535 53.912C153.991 53.912 152.663 52.04 152.663 49.352C152.663 46.68 153.991 44.808 156.535 44.808C158.679 44.808 159.975 46.008 160.231 48.072H161.687C161.351 45.272 159.447 43.544 156.535 43.544C153.175 43.544 151.191 46.056 151.191 49.352C151.191 52.664 153.175 55.176 156.535 55.176ZM173.64 55.176C176.456 55.176 178.312 53.544 178.312 50.904C178.312 48.376 176.824 46.968 174.344 46.968C172.584 46.968 171.48 47.752 170.824 48.952L170.504 48.744L171.24 44.936H177.496V43.72H170.072L169.16 48.472L171.112 49.592C171.72 48.792 172.6 48.136 173.976 48.136C175.864 48.136 176.888 49.128 176.888 50.872C176.888 52.824 175.656 53.96 173.656 53.96C171.528 53.96 170.36 52.92 170.36 51H168.936C168.936 53.736 170.792 55.176 173.64 55.176Z" fill="black"/>
<rect x="86.5" y="37.5" width="105" height="27" rx="13.5" stroke="black"/>
<rect x="207.5" y="37.5" width="108.675" height="27" rx="13.5" fill="white"/>
<path d="M220.56 49H220.565M217.56 47.6L217.56 49.8373C217.56 50.0818 217.56 50.2041 217.587 50.3192C217.612 50.4213 217.652 50.5188 217.707 50.6083C217.769 50.7092 217.855 50.7957 218.028 50.9686L221.863 54.8029C222.457 55.397 222.754 55.694 223.096 55.8053C223.397 55.9031 223.722 55.9031 224.023 55.8053C224.366 55.694 224.663 55.397 225.257 54.8029L226.363 53.6971C226.957 53.103 227.254 52.806 227.365 52.4635C227.463 52.1623 227.463 51.8377 227.365 51.5365C227.254 51.194 226.957 50.897 226.363 50.3029L222.528 46.4686C222.355 46.2957 222.269 46.2092 222.168 46.1474C222.078 46.0925 221.981 46.0521 221.879 46.0276C221.764 46 221.641 46 221.397 46L219.16 46C218.6 46 218.319 46 218.106 46.109C217.917 46.2049 217.764 46.3578 217.669 46.546C217.56 46.7599 217.56 47.0399 217.56 47.6ZM220.81 49C220.81 49.1381 220.698 49.25 220.56 49.25C220.421 49.25 220.31 49.1381 220.31 49C220.31 48.8619 220.421 48.75 220.56 48.75C220.698 48.75 220.81 48.8619 220.81 49Z" stroke="black" stroke-width="0.903608" stroke-linecap="round" stroke-linejoin="round"/>
<path d="M234.338 43.72V44.968H238.226V55H239.682V44.968H243.554V43.72H234.338ZM244.389 49.352C244.389 52.664 246.373 55.176 249.717 55.176C253.061 55.176 255.029 52.664 255.029 49.352C255.029 46.056 253.061 43.544 249.717 43.544C246.373 43.544 244.389 46.056 244.389 49.352ZM245.861 49.352C245.861 46.712 247.125 44.808 249.717 44.808C252.309 44.808 253.573 46.712 253.573 49.352C253.573 52.008 252.309 53.912 249.717 53.912C247.125 53.912 245.861 52.008 245.861 49.352ZM257.172 55H258.628V51.192H260.452C263.46 51.192 265.156 50.328 265.156 47.448C265.156 44.584 263.46 43.72 260.452 43.72H257.172V55ZM258.628 49.944V44.968H260.5C262.372 44.968 263.716 45.352 263.716 47.448C263.716 49.56 262.372 49.944 260.5 49.944H258.628ZM266.447 43.72V44.968H268.975V53.752H266.447V55H272.943V53.752H270.415V44.968H272.943V43.72H266.447ZM279.506 55.176C282.418 55.176 284.322 53.448 284.658 50.632H283.202C282.946 52.696 281.65 53.912 279.506 53.912C276.962 53.912 275.634 52.04 275.634 49.352C275.634 46.68 276.962 44.808 279.506 44.808C281.65 44.808 282.946 46.008 283.202 48.072H284.658C284.322 45.272 282.418 43.544 279.506 43.544C276.146 43.544 274.162 46.056 274.162 49.352C274.162 52.664 276.146 55.176 279.506 55.176ZM296.691 55.176C299.459 55.176 301.107 53.496 301.107 50.952C301.107 48.68 299.523 47 296.963 47C294.835 47 293.427 48.056 293.043 49.656H292.643L293.027 48.824C293.235 46.824 294.243 44.968 297.203 44.968H300.275V43.72H297.331C293.043 43.72 291.923 46.392 291.923 49.8C291.923 53.368 293.715 55.176 296.691 55.176ZM293.379 50.984C293.379 49.288 294.659 48.184 296.675 48.184C298.531 48.184 299.651 49.304 299.651 51C299.651 52.84 298.579 53.928 296.627 53.928C294.483 53.928 293.379 52.536 293.379 50.984Z" fill="black"/>
<rect x="207.5" y="37.5" width="108.675" height="27" rx="13.5" stroke="black"/>
<rect x="333.5" y="37.5" width="106.675" height="27" rx="13.5" fill="white"/>
<path d="M346.56 49H346.565M343.56 47.6L343.56 49.8373C343.56 50.0818 343.56 50.2041 343.587 50.3192C343.612 50.4213 343.652 50.5188 343.707 50.6083C343.769 50.7092 343.855 50.7957 344.028 50.9686L347.863 54.8029C348.457 55.397 348.754 55.694 349.096 55.8053C349.397 55.9031 349.722 55.9031 350.023 55.8053C350.366 55.694 350.663 55.397 351.257 54.8029L352.363 53.6971C352.957 53.103 353.254 52.806 353.365 52.4635C353.463 52.1623 353.463 51.8377 353.365 51.5365C353.254 51.194 352.957 50.897 352.363 50.3029L348.528 46.4686C348.355 46.2957 348.269 46.2092 348.168 46.1474C348.078 46.0925 347.981 46.0521 347.879 46.0276C347.764 46 347.641 46 347.397 46L345.16 46C344.6 46 344.319 46 344.106 46.109C343.917 46.2049 343.764 46.3578 343.669 46.546C343.56 46.7599 343.56 47.0399 343.56 47.6ZM346.81 49C346.81 49.1381 346.698 49.25 346.56 49.25C346.421 49.25 346.31 49.1381 346.31 49C346.31 48.8619 346.421 48.75 346.56 48.75C346.698 48.75 346.81 48.8619 346.81 49Z" stroke="black" stroke-width="0.903608" stroke-linecap="round" stroke-linejoin="round"/>
<path d="M360.167 43.72V44.968H364.055V55H365.511V44.968H369.383V43.72H360.167ZM370.217 49.352C370.217 52.664 372.201 55.176 375.545 55.176C378.889 55.176 380.857 52.664 380.857 49.352C380.857 46.056 378.889 43.544 375.545 43.544C372.201 43.544 370.217 46.056 370.217 49.352ZM371.689 49.352C371.689 46.712 372.953 44.808 375.545 44.808C378.137 44.808 379.401 46.712 379.401 49.352C379.401 52.008 378.137 53.912 375.545 53.912C372.953 53.912 371.689 52.008 371.689 49.352ZM383 55H384.456V51.192H386.28C389.288 51.192 390.984 50.328 390.984 47.448C390.984 44.584 389.288 43.72 386.28 43.72H383V55ZM384.456 49.944V44.968H386.328C388.2 44.968 389.544 45.352 389.544 47.448C389.544 49.56 388.2 49.944 386.328 49.944H384.456ZM392.275 43.72V44.968H394.803V53.752H392.275V55H398.771V53.752H396.243V44.968H398.771V43.72H392.275ZM405.334 55.176C408.246 55.176 410.15 53.448 410.486 50.632H409.03C408.774 52.696 407.478 53.912 405.334 53.912C402.79 53.912 401.462 52.04 401.462 49.352C401.462 46.68 402.79 44.808 405.334 44.808C407.478 44.808 408.774 46.008 409.03 48.072H410.486C410.15 45.272 408.246 43.544 405.334 43.544C401.974 43.544 399.99 46.056 399.99 49.352C399.99 52.664 401.974 55.176 405.334 55.176ZM419.207 55H420.695C420.695 50.488 422.295 47.768 425.655 46.12V43.72H417.319V44.968H424.295L425.255 44.728V45.128C421.223 47.032 419.207 50.12 419.207 55Z" fill="black"/>
<rect x="333.5" y="37.5" width="106.675" height="27" rx="13.5" stroke="black"/>
<path d="M43 28V106H86" stroke="black" stroke-dasharray="3 3"/>
<path d="M134.5 15H150" stroke="black" stroke-dasharray="3 3"/>
<path d="M103 120V167H146" stroke="black" stroke-dasharray="3 3"/>
<rect x="86.5" y="92.5" width="317.675" height="27" rx="13.5" fill="#85FF4D"/>
<path d="M107.81 106L100.81 106M107.81 102.5L100.81 102.5M107.81 109.5L100.81 109.5M98.4762 106C98.4762 106.322 98.2151 106.584 97.8929 106.584C97.5707 106.584 97.3096 106.322 97.3096 106C97.3096 105.678 97.5707 105.417 97.8929 105.417C98.2151 105.417 98.4762 105.678 98.4762 106ZM98.4762 102.5C98.4762 102.822 98.2151 103.084 97.8929 103.084C97.5707 103.084 97.3096 102.822 97.3096 102.5C97.3096 102.178 97.5707 101.917 97.8929 101.917C98.2151 101.917 98.4762 102.178 98.4762 102.5ZM98.4762 109.5C98.4762 109.822 98.2151 110.084 97.8929 110.084C97.5707 110.084 97.3096 109.822 97.3096 109.5C97.3096 109.178 97.5707 108.917 97.8929 108.917C98.2151 108.917 98.4762 109.178 98.4762 109.5Z" stroke="black" stroke-width="0.903608" stroke-linecap="round" stroke-linejoin="round"/>
<path d="M115.279 98.72V99.968H119.167V110H120.623V99.968H124.495V98.72H115.279ZM126.256 98.72V110H127.712V105.072H134.144V110H135.6V98.72H134.144V103.808H127.712V98.72H126.256ZM137.956 110H145.796V108.752H139.412V104.96H144.996V103.744H139.412V99.968H145.796V98.72H137.956V110ZM153.138 110H154.594V100.512L154.338 99.12H154.754L157.778 110H160.69L163.73 99.12H164.13L163.89 100.512V110H165.346V98.72H162.45L159.458 109.6H159.042L156.05 98.72H153.138V110ZM167.49 104.352C167.49 107.664 169.474 110.176 172.818 110.176C176.162 110.176 178.13 107.664 178.13 104.352C178.13 101.056 176.162 98.544 172.818 98.544C169.474 98.544 167.49 101.056 167.49 104.352ZM168.962 104.352C168.962 101.712 170.226 99.808 172.818 99.808C175.41 99.808 176.674 101.712 176.674 104.352C176.674 107.008 175.41 108.912 172.818 108.912C170.226 108.912 168.962 107.008 168.962 104.352ZM189.361 106.992C189.361 105.504 188.465 104.448 186.641 103.984L183.521 103.2C182.289 102.88 181.809 102.272 181.809 101.472C181.809 100.32 182.689 99.76 184.337 99.76C186.465 99.76 187.537 100.656 187.537 102.448H189.025C189.025 100.016 187.409 98.544 184.337 98.544C181.745 98.544 180.337 99.584 180.337 101.536C180.337 102.88 181.073 103.904 182.849 104.368L186.001 105.184C187.313 105.52 187.889 106.192 187.889 107.072C187.889 108.32 186.977 108.944 185.025 108.944C182.545 108.944 181.281 107.92 181.281 105.76H179.809C179.809 108.592 181.569 110.176 184.993 110.176C188.001 110.176 189.361 109.008 189.361 106.992ZM190.15 98.72V99.968H194.038V110H195.494V99.968H199.366V98.72H190.15ZM206.546 110H208.002V105.536H213.698V110H215.138V105.904C215.138 105.248 214.882 104.8 214.098 104.8H212.866V104.4C214.21 104.16 215.122 103.504 215.122 101.744C215.122 99.312 213.362 98.72 210.722 98.72H206.546V110ZM208.002 104.288V99.968H210.722C212.546 99.968 213.682 100.128 213.682 102.064C213.682 103.968 212.562 104.288 210.722 104.288H208.002ZM217.434 110H225.274V108.752H218.89V104.96H224.474V103.744H218.89V99.968H225.274V98.72H217.434V110ZM231.989 110.176C234.901 110.176 236.805 108.448 237.141 105.632H235.685C235.429 107.696 234.133 108.912 231.989 108.912C229.445 108.912 228.117 107.04 228.117 104.352C228.117 101.68 229.445 99.808 231.989 99.808C234.133 99.808 235.429 101.008 235.685 103.072H237.141C236.805 100.272 234.901 98.544 231.989 98.544C228.629 98.544 226.645 101.056 226.645 104.352C226.645 107.664 228.629 110.176 231.989 110.176ZM239 105.808C239 108.624 240.424 110.176 243.528 110.176C246.632 110.176 248.088 108.624 248.088 105.808V98.72H246.632V105.504C246.632 107.76 245.88 108.912 243.528 108.912C241.176 108.912 240.456 107.76 240.456 105.504V98.72H239V105.808ZM250.301 110H251.757V105.536H257.453V110H258.893V105.904C258.893 105.248 258.637 104.8 257.853 104.8H256.621V104.4C257.965 104.16 258.877 103.504 258.877 101.744C258.877 99.312 257.117 98.72 254.477 98.72H250.301V110ZM251.757 104.288V99.968H254.477C256.301 99.968 257.437 100.128 257.437 102.064C257.437 103.968 256.317 104.288 254.477 104.288H251.757ZM261.189 110H262.645V105.536H268.341V110H269.781V105.904C269.781 105.248 269.525 104.8 268.741 104.8H267.509V104.4C268.853 104.16 269.765 103.504 269.765 101.744C269.765 99.312 268.005 98.72 265.365 98.72H261.189V110ZM262.645 104.288V99.968H265.365C267.189 99.968 268.325 100.128 268.325 102.064C268.325 103.968 267.205 104.288 265.365 104.288H262.645ZM271.682 98.72V99.968H274.21V108.752H271.682V110H278.178V108.752H275.65V99.968H278.178V98.72H271.682ZM280.386 110H281.842V100.128L281.586 99.12H282.002L287.362 110H290.274V98.72H288.834V108.592L289.074 109.6H288.674L283.298 98.72H280.386V110ZM297.482 110.176C300.714 110.176 301.338 108.016 301.402 107.2H301.818L301.514 108.72V110H302.97V104.88C302.97 104.256 302.65 103.936 301.962 103.936H297.114V105.056H301.482C301.562 107.568 300.25 108.928 297.77 108.928C294.938 108.928 293.882 106.928 293.882 104.496C293.882 101.68 295.258 99.792 297.834 99.792C299.77 99.792 301.002 100.88 301.258 102.752H302.73C302.362 100.144 300.522 98.544 297.786 98.544C294.378 98.544 292.41 100.912 292.41 104.464C292.41 107.712 294.058 110.176 297.482 110.176ZM310.691 110H312.147V104.88H312.915L317.683 110H319.603L314.259 104.256L319.555 98.72H317.731L312.947 103.664H312.147V98.72H310.691V110ZM321.329 110H329.169V108.752H322.785V104.96H328.369V103.744H322.785V99.968H329.169V98.72H321.329V110ZM338.563 98.72L335.491 104.864H335.075L332.003 98.72H330.467L333.811 105.248H334.563V110H336.003V105.248H336.755L340.115 98.72H338.563ZM355.039 98.72H353.599L351.791 108.4L351.855 109.6H351.439L349.535 98.72H346.559L344.639 109.6H344.223L344.319 108.4L342.463 98.72H341.023L343.103 110H345.951L347.839 99.12H348.239L350.175 110H352.991L355.039 98.72ZM356.128 104.352C356.128 107.664 358.112 110.176 361.456 110.176C364.8 110.176 366.768 107.664 366.768 104.352C366.768 101.056 364.8 98.544 361.456 98.544C358.112 98.544 356.128 101.056 356.128 104.352ZM357.6 104.352C357.6 101.712 358.864 99.808 361.456 99.808C364.048 99.808 365.312 101.712 365.312 104.352C365.312 107.008 364.048 108.912 361.456 108.912C358.864 108.912 357.6 107.008 357.6 104.352ZM368.911 110H370.367V105.536H376.063V110H377.503V105.904C377.503 105.248 377.247 104.8 376.463 104.8H375.231V104.4C376.575 104.16 377.487 103.504 377.487 101.744C377.487 99.312 375.727 98.72 373.087 98.72H368.911V110ZM370.367 104.288V99.968H373.087C374.911 99.968 376.047 100.128 376.047 102.064C376.047 103.968 374.927 104.288 373.087 104.288H370.367ZM379.799 110H383.431C386.215 110 389.143 109.216 389.143 104.352C389.143 99.504 386.215 98.72 383.431 98.72H379.799V110ZM381.255 108.752V99.968H383.431C385.415 99.968 387.687 100.288 387.687 104.352C387.687 108.432 385.431 108.752 383.431 108.752H381.255Z" fill="black"/>
<rect x="86.5" y="92.5" width="317.675" height="27" rx="13.5" stroke="black"/>
<rect x="146.5" y="153.5" width="153.675" height="27" rx="4.5" fill="white"/>
<path d="M163.142 161.167L157.946 167.402C157.743 167.646 157.641 167.768 157.64 167.871C157.638 167.961 157.678 168.046 157.748 168.102C157.828 168.167 157.987 168.167 158.305 168.167H162.559L161.975 172.834L167.171 166.599C167.374 166.355 167.476 166.233 167.478 166.13C167.479 166.04 167.439 165.955 167.369 165.898C167.289 165.834 167.13 165.834 166.812 165.834H162.559L163.142 161.167Z" stroke="black" stroke-width="0.90375" stroke-linecap="round" stroke-linejoin="round"/>
<path d="M175.117 159.72V160.968H179.005V171H180.461V160.968H184.333V159.72H175.117ZM183.953 171H185.457L186.817 166.68H191.377L192.737 171H194.257L190.657 159.72H187.537L183.953 171ZM187.217 165.432L188.897 160.12H189.297L190.977 165.432H187.217ZM195.889 171H197.345V165.88H198.113L202.881 171H204.801L199.457 165.256L204.753 159.72H202.929L198.145 164.664H197.345V159.72H195.889V171ZM206.527 171H214.367V169.752H207.983V165.96H213.567V164.744H207.983V160.968H214.367V159.72H206.527V171ZM220.989 171H222.493L223.853 166.68H228.413L229.773 171H231.293L227.693 159.72H224.573L220.989 171ZM224.253 165.432L225.933 160.12H226.333L228.013 165.432H224.253ZM237.67 171.176C240.582 171.176 242.486 169.448 242.822 166.632H241.366C241.11 168.696 239.814 169.912 237.67 169.912C235.126 169.912 233.798 168.04 233.798 165.352C233.798 162.68 235.126 160.808 237.67 160.808C239.814 160.808 241.11 162.008 241.366 164.072H242.822C242.486 161.272 240.582 159.544 237.67 159.544C234.31 159.544 232.326 162.056 232.326 165.352C232.326 168.664 234.31 171.176 237.67 171.176ZM243.77 159.72V160.968H247.658V171H249.114V160.968H252.986V159.72H243.77ZM254.696 159.72V160.968H257.224V169.752H254.696V171H261.192V169.752H258.664V160.968H261.192V159.72H254.696ZM262.411 165.352C262.411 168.664 264.395 171.176 267.739 171.176C271.083 171.176 273.051 168.664 273.051 165.352C273.051 162.056 271.083 159.544 267.739 159.544C264.395 159.544 262.411 162.056 262.411 165.352ZM263.883 165.352C263.883 162.712 265.147 160.808 267.739 160.808C270.331 160.808 271.595 162.712 271.595 165.352C271.595 168.008 270.331 169.912 267.739 169.912C265.147 169.912 263.883 168.008 263.883 165.352ZM275.195 171H276.651V161.128L276.395 160.12H276.811L282.171 171H285.083V159.72H283.643V169.592L283.883 170.6H283.483L278.107 159.72H275.195V171Z" fill="black"/>
<rect x="146.5" y="153.5" width="153.675" height="27" rx="4.5" stroke="black"/>
<g opacity="0.3">
<rect x="306.5" y="153.5" width="180.675" height="27" rx="4.5" fill="white"/>
<path d="M323.142 161.167L317.946 167.402C317.743 167.646 317.641 167.768 317.64 167.871C317.638 167.961 317.678 168.046 317.748 168.102C317.828 168.167 317.987 168.167 318.305 168.167H322.559L321.975 172.834L327.171 166.599C327.374 166.355 327.476 166.233 327.478 166.13C327.479 166.04 327.439 165.955 327.369 165.898C327.289 165.834 327.13 165.834 326.812 165.834H322.559L323.142 161.167Z" stroke="black" stroke-width="0.90375" stroke-linecap="round" stroke-linejoin="round"/>
<path d="M335.772 171H339.404C342.188 171 345.116 170.216 345.116 165.352C345.116 160.504 342.188 159.72 339.404 159.72H335.772V171ZM337.228 169.752V160.968H339.404C341.388 160.968 343.66 161.288 343.66 165.352C343.66 169.432 341.404 169.752 339.404 169.752H337.228ZM346.031 159.72V160.968H348.559V169.752H346.031V171H352.527V169.752H349.999V160.968H352.527V159.72H346.031ZM363.355 167.992C363.355 166.504 362.459 165.448 360.635 164.984L357.515 164.2C356.283 163.88 355.803 163.272 355.803 162.472C355.803 161.32 356.683 160.76 358.331 160.76C360.459 160.76 361.531 161.656 361.531 163.448H363.019C363.019 161.016 361.403 159.544 358.331 159.544C355.739 159.544 354.331 160.584 354.331 162.536C354.331 163.88 355.067 164.904 356.843 165.368L359.995 166.184C361.307 166.52 361.883 167.192 361.883 168.072C361.883 169.32 360.971 169.944 359.019 169.944C356.539 169.944 355.275 168.92 355.275 166.76H353.803C353.803 169.592 355.563 171.176 358.987 171.176C361.995 171.176 363.355 170.008 363.355 167.992ZM374.321 167.992C374.321 166.504 373.425 165.448 371.601 164.984L368.481 164.2C367.249 163.88 366.769 163.272 366.769 162.472C366.769 161.32 367.649 160.76 369.297 160.76C371.425 160.76 372.497 161.656 372.497 163.448H373.985C373.985 161.016 372.369 159.544 369.297 159.544C366.705 159.544 365.297 160.584 365.297 162.536C365.297 163.88 366.033 164.904 367.809 165.368L370.961 166.184C372.273 166.52 372.849 167.192 372.849 168.072C372.849 169.32 371.937 169.944 369.985 169.944C367.505 169.944 366.241 168.92 366.241 166.76H364.769C364.769 169.592 366.529 171.176 369.953 171.176C372.961 171.176 374.321 170.008 374.321 167.992ZM376.199 171H384.039V169.752H377.655V165.96H383.239V164.744H377.655V160.968H384.039V159.72H376.199V171ZM386.024 171H387.48V161.512L387.224 160.12H387.64L390.664 171H393.576L396.616 160.12H397.016L396.776 161.512V171H398.232V159.72H395.336L392.344 170.6H391.928L388.936 159.72H386.024V171ZM400.439 159.72V160.968H402.967V169.752H400.439V171H406.935V169.752H404.407V160.968H406.935V159.72H400.439ZM409.143 171H410.599V161.128L410.343 160.12H410.759L416.119 171H419.031V159.72H417.591V169.592L417.831 170.6H417.431L412.055 159.72H409.143V171ZM420.671 171H422.175L423.535 166.68H428.095L429.455 171H430.975L427.375 159.72H424.255L420.671 171ZM423.935 165.432L425.615 160.12H426.015L427.695 165.432H423.935ZM430.595 159.72V160.968H434.483V171H435.939V160.968H439.811V159.72H430.595ZM441.522 159.72V160.968H444.05V169.752H441.522V171H448.018V169.752H445.49V160.968H448.018V159.72H441.522ZM449.236 165.352C449.236 168.664 451.22 171.176 454.564 171.176C457.908 171.176 459.876 168.664 459.876 165.352C459.876 162.056 457.908 159.544 454.564 159.544C451.22 159.544 449.236 162.056 449.236 165.352ZM450.708 165.352C450.708 162.712 451.972 160.808 454.564 160.808C457.156 160.808 458.42 162.712 458.42 165.352C458.42 168.008 457.156 169.912 454.564 169.912C451.972 169.912 450.708 168.008 450.708 165.352ZM462.02 171H463.476V161.128L463.22 160.12H463.636L468.996 171H471.908V159.72H470.468V169.592L470.708 170.6H470.308L464.932 159.72H462.02V171Z" fill="black"/>
<rect x="306.5" y="153.5" width="180.675" height="27" rx="4.5" stroke="black"/>
</g>
<path d="M103 167V228H146" stroke="black" stroke-dasharray="3 3"/>
<rect x="147.5" y="213.5" width="141.675" height="27" rx="4.5" fill="white"/>
<path d="M168.897 226.358L163.638 231.617C162.442 232.813 160.503 232.813 159.307 231.617C158.111 230.421 158.111 228.482 159.307 227.286L164.566 222.027C165.364 221.23 166.656 221.23 167.454 222.027C168.251 222.825 168.251 224.117 167.454 224.915L162.401 229.967C162.002 230.366 161.356 230.366 160.957 229.967C160.558 229.569 160.558 228.922 160.957 228.524L165.391 224.09" stroke="black" stroke-width="0.903608" stroke-linecap="round" stroke-linejoin="round"/>
<path d="M185.645 227.992C185.645 226.504 184.749 225.448 182.925 224.984L179.805 224.2C178.573 223.88 178.093 223.272 178.093 222.472C178.093 221.32 178.973 220.76 180.621 220.76C182.749 220.76 183.821 221.656 183.821 223.448H185.309C185.309 221.016 183.693 219.544 180.621 219.544C178.029 219.544 176.621 220.584 176.621 222.536C176.621 223.88 177.357 224.904 179.133 225.368L182.285 226.184C183.597 226.52 184.173 227.192 184.173 228.072C184.173 229.32 183.261 229.944 181.309 229.944C178.829 229.944 177.565 228.92 177.565 226.76H176.093C176.093 229.592 177.853 231.176 181.277 231.176C184.285 231.176 185.645 230.008 185.645 227.992ZM186.434 219.72V220.968H190.322V231H191.778V220.968H195.65V219.72H186.434ZM195.269 231H196.773L198.133 226.68H202.693L204.053 231H205.573L201.973 219.72H198.853L195.269 231ZM198.533 225.432L200.213 220.12H200.613L202.293 225.432H198.533ZM205.194 219.72V220.968H209.082V231H210.538V220.968H214.41V219.72H205.194ZM216.12 219.72V220.968H218.648V229.752H216.12V231H222.616V229.752H220.088V220.968H222.616V219.72H216.12ZM233.444 227.992C233.444 226.504 232.548 225.448 230.724 224.984L227.604 224.2C226.372 223.88 225.892 223.272 225.892 222.472C225.892 221.32 226.772 220.76 228.42 220.76C230.548 220.76 231.62 221.656 231.62 223.448H233.108C233.108 221.016 231.492 219.544 228.42 219.544C225.828 219.544 224.42 220.584 224.42 222.536C224.42 223.88 225.156 224.904 226.932 225.368L230.084 226.184C231.396 226.52 231.972 227.192 231.972 228.072C231.972 229.32 231.06 229.944 229.108 229.944C226.628 229.944 225.364 228.92 225.364 226.76H223.892C223.892 229.592 225.652 231.176 229.076 231.176C232.084 231.176 233.444 230.008 233.444 227.992ZM234.232 219.72V220.968H238.12V231H239.576V220.968H243.448V219.72H234.232ZM245.159 219.72V220.968H247.687V229.752H245.159V231H251.655V229.752H249.127V220.968H251.655V219.72H245.159ZM258.217 231.176C261.129 231.176 263.033 229.448 263.369 226.632H261.913C261.657 228.696 260.361 229.912 258.217 229.912C255.673 229.912 254.345 228.04 254.345 225.352C254.345 222.68 255.673 220.808 258.217 220.808C260.361 220.808 261.657 222.008 261.913 224.072H263.369C263.033 221.272 261.129 219.544 258.217 219.544C254.857 219.544 252.873 222.056 252.873 225.352C252.873 228.664 254.857 231.176 258.217 231.176ZM274.605 227.992C274.605 226.504 273.709 225.448 271.885 224.984L268.765 224.2C267.533 223.88 267.053 223.272 267.053 222.472C267.053 221.32 267.933 220.76 269.581 220.76C271.709 220.76 272.781 221.656 272.781 223.448H274.269C274.269 221.016 272.653 219.544 269.581 219.544C266.989 219.544 265.581 220.584 265.581 222.536C265.581 223.88 266.317 224.904 268.093 225.368L271.245 226.184C272.557 226.52 273.133 227.192 273.133 228.072C273.133 229.32 272.221 229.944 270.269 229.944C267.789 229.944 266.525 228.92 266.525 226.76H265.053C265.053 229.592 266.813 231.176 270.237 231.176C273.245 231.176 274.605 230.008 274.605 227.992Z" fill="black"/>
<rect x="147.5" y="213.5" width="141.675" height="27" rx="4.5" stroke="black"/>
<g opacity="0.3">
<rect x="295.5" y="213.5" width="152.675" height="27" rx="4.5" fill="white"/>
<path d="M316.897 226.358L311.638 231.617C310.442 232.813 308.503 232.813 307.307 231.617C306.111 230.421 306.111 228.482 307.307 227.286L312.566 222.027C313.364 221.23 314.656 221.23 315.454 222.027C316.251 222.825 316.251 224.117 315.454 224.915L310.401 229.967C310.002 230.366 309.356 230.366 308.957 229.967C308.558 229.569 308.558 228.922 308.957 228.524L313.391 224.09" stroke="black" stroke-width="0.903608" stroke-linecap="round" stroke-linejoin="round"/>
<path d="M329.382 231.176C332.614 231.176 333.238 229.016 333.302 228.2H333.718L333.414 229.72V231H334.87V225.88C334.87 225.256 334.55 224.936 333.862 224.936H329.014V226.056H333.382C333.462 228.568 332.15 229.928 329.67 229.928C326.838 229.928 325.782 227.928 325.782 225.496C325.782 222.68 327.158 220.792 329.734 220.792C331.67 220.792 332.902 221.88 333.158 223.752H334.63C334.262 221.144 332.422 219.544 329.686 219.544C326.278 219.544 324.31 221.912 324.31 225.464C324.31 228.712 325.958 231.176 329.382 231.176ZM337.265 231H338.721V226.536H344.417V231H345.857V226.904C345.857 226.248 345.601 225.8 344.817 225.8H343.585V225.4C344.929 225.16 345.841 224.504 345.841 222.744C345.841 220.312 344.081 219.72 341.441 219.72H337.265V231ZM338.721 225.288V220.968H341.441C343.265 220.968 344.401 221.128 344.401 223.064C344.401 224.968 343.281 225.288 341.441 225.288H338.721ZM347.913 225.352C347.913 228.664 349.897 231.176 353.241 231.176C356.585 231.176 358.553 228.664 358.553 225.352C358.553 222.056 356.585 219.544 353.241 219.544C349.897 219.544 347.913 222.056 347.913 225.352ZM349.385 225.352C349.385 222.712 350.649 220.808 353.241 220.808C355.833 220.808 357.097 222.712 357.097 225.352C357.097 228.008 355.833 229.912 353.241 229.912C350.649 229.912 349.385 228.008 349.385 225.352ZM360.409 226.808C360.409 229.624 361.833 231.176 364.937 231.176C368.041 231.176 369.497 229.624 369.497 226.808V219.72H368.041V226.504C368.041 228.76 367.289 229.912 364.937 229.912C362.585 229.912 361.865 228.76 361.865 226.504V219.72H360.409V226.808ZM371.71 231H373.166V221.128L372.91 220.12H373.326L378.686 231H381.598V219.72H380.158V229.592L380.398 230.6H379.998L374.622 219.72H371.71V231ZM383.957 231H387.589C390.373 231 393.301 230.216 393.301 225.352C393.301 220.504 390.373 219.72 387.589 219.72H383.957V231ZM385.413 229.752V220.968H387.589C389.573 220.968 391.845 221.288 391.845 225.352C391.845 229.432 389.589 229.752 387.589 229.752H385.413ZM396.447 231H402.543V229.752H396.895V219.72H395.439V229.992C395.439 230.648 395.807 231 396.447 231ZM404.108 231H411.948V229.752H405.564V225.96H411.148V224.744H405.564V220.968H411.948V219.72H404.108V231ZM422.662 227.992C422.662 226.504 421.766 225.448 419.942 224.984L416.822 224.2C415.59 223.88 415.11 223.272 415.11 222.472C415.11 221.32 415.99 220.76 417.638 220.76C419.766 220.76 420.838 221.656 420.838 223.448H422.326C422.326 221.016 420.71 219.544 417.638 219.544C415.046 219.544 413.638 220.584 413.638 222.536C413.638 223.88 414.374 224.904 416.15 225.368L419.302 226.184C420.614 226.52 421.19 227.192 421.19 228.072C421.19 229.32 420.278 229.944 418.326 229.944C415.846 229.944 414.582 228.92 414.582 226.76H413.11C413.11 229.592 414.87 231.176 418.294 231.176C421.302 231.176 422.662 230.008 422.662 227.992ZM433.628 227.992C433.628 226.504 432.732 225.448 430.908 224.984L427.788 224.2C426.556 223.88 426.076 223.272 426.076 222.472C426.076 221.32 426.956 220.76 428.604 220.76C430.732 220.76 431.804 221.656 431.804 223.448H433.292C433.292 221.016 431.676 219.544 428.604 219.544C426.012 219.544 424.604 220.584 424.604 222.536C424.604 223.88 425.34 224.904 427.116 225.368L430.268 226.184C431.58 226.52 432.156 227.192 432.156 228.072C432.156 229.32 431.244 229.944 429.292 229.944C426.812 229.944 425.548 228.92 425.548 226.76H424.076C424.076 229.592 425.836 231.176 429.26 231.176C432.268 231.176 433.628 230.008 433.628 227.992Z" fill="black"/>
<rect x="295.5" y="213.5" width="152.675" height="27" rx="4.5" stroke="black"/>
</g>
<path d="M3.51 5.94L3.3 5.73L2.22 6.315L0.345 7.29L0.54 7.65C1.95 6.9 1.995 7.065 1.995 8.13V16.455C1.995 17.415 1.785 17.64 0.555 17.64V18H4.83V17.64C3.69 17.64 3.51 17.415 3.51 16.455V5.94Z" fill="black"/>
<path d="M1.89 110.665V110.62C4.14 108.385 6.93 105.355 6.93 102.49C6.93 100.96 6.075 99.76 4.29 99.76C2.175 99.76 0.84 101.59 0.84 104.365H1.215C1.29 102.355 2.085 101.065 3.525 101.065C4.77 101.065 5.31 101.98 5.31 103.24C5.31 105.97 3.045 108.595 0.24 111.64V112H6.645L7.035 110.875L7.59 109.24L7.245 109.12C6.825 110.35 6.525 110.665 5.55 110.665H1.89Z" fill="black"/>
<path d="M1.24 168.055C1.24 168.805 2.44 169.24 3.625 169.24C5.74 169.24 7.51 167.86 7.51 165.61C7.51 163.645 6.175 162.67 4.6 162.505V162.46C6.175 161.845 7.105 160.765 7.105 159.385C7.105 157.735 5.965 156.76 4.495 156.76C2.875 156.76 1.765 157.78 1.51 159.595H1.87C2.11 158.62 2.68 157.84 3.88 157.84C5.035 157.84 5.53 158.695 5.53 159.67C5.53 161.23 4.495 162.085 3.055 162.505V162.85C4.45 162.85 5.83 163.57 5.83 165.805C5.83 167.815 4.765 168.58 3.82 168.58C3.235 168.58 3.01 168.37 2.74 168.025C2.515 167.74 2.305 167.44 1.9 167.44C1.525 167.44 1.24 167.695 1.24 168.055Z" fill="black"/>
<defs>
<clipPath id="clip0_730_32621">
<rect width="12" height="12" fill="white" transform="translate(93.7207 45)"/>
</clipPath>
</defs>
</svg>
