<svg width="15" height="14" viewBox="0 0 15 14" fill="none" xmlns="http://www.w3.org/2000/svg">
<path d="M9.77474 4.66675L12.0536 7.40133C12.257 7.6455 12.3588 7.76758 12.3603 7.87068C12.3617 7.96032 12.3217 8.04559 12.252 8.10194C12.1718 8.16675 12.0129 8.16675 11.6951 8.16675H7.44141L8.02474 12.8334L5.10807 9.33342M5.31222 5.83342H3.18776C2.86993 5.83342 2.71101 5.83342 2.63081 5.89823C2.56108 5.95457 2.52114 6.03985 2.52249 6.12948C2.52405 6.23259 2.62578 6.35467 2.82926 6.59883L3.62043 7.54824M8.27397 2.86579L6.8581 1.16675L7.20793 3.96541M2.19141 12.2501L12.6914 1.75008" stroke="black" stroke-width="0.9" stroke-linecap="round" stroke-linejoin="round"/>
</svg>
