<svg width="14" height="14" viewBox="0 0 14 14" fill="none" xmlns="http://www.w3.org/2000/svg">
<path d="M4.6295 5.10417H7.33783M4.6295 7H8.96283M4.6295 10.25V11.5151C4.6295 11.8037 4.6295 11.948 4.68866 12.0221C4.74012 12.0866 4.81814 12.1241 4.90062 12.124C4.99546 12.1239 5.10815 12.0337 5.33353 11.8534L6.62565 10.8197C6.88961 10.6086 7.02159 10.503 7.16855 10.4279C7.29894 10.3613 7.43773 10.3126 7.58115 10.2832C7.74282 10.25 7.91183 10.25 8.24986 10.25H9.61283C10.5229 10.25 10.978 10.25 11.3256 10.0729C11.6313 9.91709 11.8799 9.6685 12.0357 9.36274C12.2128 9.01513 12.2128 8.56009 12.2128 7.65V4.725C12.2128 3.81491 12.2128 3.35987 12.0357 3.01227C11.8799 2.7065 11.6313 2.45791 11.3256 2.30211C10.978 2.125 10.5229 2.125 9.61283 2.125H5.06283C4.15274 2.125 3.6977 2.125 3.3501 2.30211C3.04433 2.45791 2.79574 2.7065 2.63994 3.01227C2.46283 3.35987 2.46283 3.81491 2.46283 4.725V8.08333C2.46283 8.58707 2.46283 8.83894 2.5182 9.04558C2.66846 9.60636 3.10647 10.0444 3.66725 10.1946C3.87389 10.25 4.12576 10.25 4.6295 10.25Z" stroke="black" stroke-width="0.9" stroke-linecap="round" stroke-linejoin="round"/>
</svg>
