<svg width="14" height="14" viewBox="0 0 14 14" fill="none" xmlns="http://www.w3.org/2000/svg">
<path d="M9.91667 5.24997C9.91666 4.9514 9.80276 4.65284 9.57496 4.42504C9.34715 4.19724 9.04858 4.08333 8.75 4.08333M8.75 8.75C10.683 8.75 12.25 7.183 12.25 5.25C12.25 3.317 10.683 1.75 8.75 1.75C6.817 1.75 5.25 3.317 5.25 5.25C5.25 5.40965 5.26069 5.5668 5.28139 5.72077C5.31544 5.97402 5.33246 6.10065 5.321 6.18076C5.30906 6.26422 5.29387 6.30919 5.25274 6.38277C5.21325 6.45342 5.14366 6.523 5.00449 6.66217L2.02337 9.6433C1.92248 9.74419 1.87203 9.79463 1.83596 9.8535C1.80398 9.90569 1.78041 9.96259 1.76612 10.0221C1.75 10.0892 1.75 10.1606 1.75 10.3033V11.3167C1.75 11.6434 1.75 11.8067 1.81358 11.9315C1.86951 12.0413 1.95874 12.1305 2.06851 12.1864C2.19329 12.25 2.35664 12.25 2.68333 12.25H4.08333V11.0833H5.25V9.91667H6.41667L7.33783 8.99551C7.477 8.85634 7.54658 8.78675 7.61723 8.74727C7.69081 8.70613 7.73579 8.69094 7.81924 8.679C7.89935 8.66754 8.02598 8.68456 8.27923 8.71861C8.43321 8.73931 8.59035 8.75 8.75 8.75Z" stroke="black" stroke-width="0.9" stroke-linecap="round" stroke-linejoin="round"/>
</svg>
