<svg width="15" height="14" viewBox="0 0 15 14" fill="none" xmlns="http://www.w3.org/2000/svg">
<path d="M12.3086 7.00033L5.30859 7.00033M12.3086 3.50033L5.30859 3.50033M12.3086 10.5003L5.30859 10.5003M2.97526 7.00033C2.97526 7.32249 2.71409 7.58366 2.39193 7.58366C2.06976 7.58366 1.80859 7.32249 1.80859 7.00033C1.80859 6.67816 2.06976 6.41699 2.39193 6.41699C2.71409 6.41699 2.97526 6.67816 2.97526 7.00033ZM2.97526 3.50033C2.97526 3.82249 2.71409 4.08366 2.39193 4.08366C2.06976 4.08366 1.80859 3.82249 1.80859 3.50033C1.80859 3.17816 2.06976 2.91699 2.39193 2.91699C2.71409 2.91699 2.97526 3.17816 2.97526 3.50033ZM2.97526 10.5003C2.97526 10.8225 2.71409 11.0837 2.39193 11.0837C2.06976 11.0837 1.80859 10.8225 1.80859 10.5003C1.80859 10.1782 2.06976 9.91699 2.39193 9.91699C2.71409 9.91699 2.97526 10.1782 2.97526 10.5003Z" stroke="black" stroke-width="0.903608" stroke-linecap="round" stroke-linejoin="round"/>
</svg>
