<svg width="13" height="12" viewBox="0 0 13 12" fill="none" xmlns="http://www.w3.org/2000/svg">
<g clip-path="url(#clip0_288_9744)">
<path d="M4.05859 4H4.06359M1.05859 2.6L1.05859 4.83726C1.05859 5.08185 1.05859 5.20414 1.08622 5.31923C1.11072 5.42127 1.15112 5.51881 1.20595 5.60828C1.2678 5.7092 1.35427 5.79568 1.52722 5.96863L5.36154 9.80294C5.95556 10.397 6.25257 10.694 6.59507 10.8053C6.89633 10.9031 7.22085 10.9031 7.52212 10.8053C7.86461 10.694 8.16162 10.397 8.75565 9.80294L9.86154 8.69706C10.4556 8.10303 10.7526 7.80602 10.8639 7.46352C10.9617 7.16226 10.9617 6.83774 10.8639 6.53647C10.7526 6.19398 10.4556 5.89697 9.86154 5.30294L6.02722 1.46863C5.85427 1.29568 5.76779 1.2092 5.66688 1.14736C5.57741 1.09253 5.47986 1.05213 5.37782 1.02763C5.26274 1 5.14044 1 4.89585 1L2.65859 1C2.09854 1 1.81852 1 1.6046 1.10899C1.41644 1.20487 1.26346 1.35785 1.16759 1.54601C1.05859 1.75992 1.05859 2.03995 1.05859 2.6ZM4.30859 4C4.30859 4.13807 4.19667 4.25 4.05859 4.25C3.92052 4.25 3.80859 4.13807 3.80859 4C3.80859 3.86193 3.92052 3.75 4.05859 3.75C4.19667 3.75 4.30859 3.86193 4.30859 4Z" stroke="black" stroke-width="0.903608" stroke-linecap="round" stroke-linejoin="round"/>
</g>
<defs>
<clipPath id="clip0_288_9744">
<rect width="12" height="12" fill="white" transform="translate(0.0585938)"/>
</clipPath>
</defs>
</svg>
